# Blender 4.0.2
# www.blender.org
mtllib 3WAY.mtl
o Shape_IndexedFaceSet
v 0.050000 0.025000 -0.000000
v 0.050000 0.024598 -0.004464
v 0.050000 0.023406 -0.008784
v 0.050000 0.021461 -0.012823
v 0.050000 0.018827 -0.016449
v 0.050000 0.015587 -0.019546
v 0.050000 0.011847 -0.022015
v 0.050000 0.007725 -0.023776
v 0.050000 0.003356 -0.024774
v 0.050000 -0.001122 -0.024975
v 0.050000 -0.005563 -0.024373
v 0.050000 -0.009826 -0.022988
v 0.050000 -0.013772 -0.020864
v 0.050000 -0.017277 -0.018070
v 0.050000 -0.020225 -0.014695
v 0.050000 -0.022524 -0.010847
v 0.050000 -0.024099 -0.006651
v 0.050000 -0.024899 -0.002241
v 0.050000 -0.024899 0.002241
v 0.050000 -0.024099 0.006651
v 0.050000 -0.022524 0.010847
v 0.050000 -0.020225 0.014695
v 0.050000 -0.017277 0.018070
v 0.050000 -0.013772 0.020864
v 0.050000 -0.009826 0.022988
v 0.050000 -0.005563 0.024373
v 0.050000 -0.001122 0.024975
v 0.050000 0.003356 0.024774
v 0.050000 0.007725 0.023776
v 0.050000 0.011847 0.022015
v 0.050000 0.015587 0.019546
v 0.050000 0.018827 0.016448
v 0.050000 0.021461 0.012822
v 0.050000 0.023406 0.008784
v 0.050000 0.024598 0.004464
v 0.050000 0.025000 -0.000000
v 0.025000 0.025000 -0.000000
v 0.024960 0.024960 0.001423
v 0.024285 0.024285 0.005936
v 0.022774 0.022774 0.010312
v 0.020449 0.020449 0.014382
v 0.017372 0.017372 0.017979
v 0.013642 0.013642 0.020950
v 0.009394 0.009394 0.023168
v 0.004788 0.004788 0.024537
v 0.000000 -0.000000 0.025000
v -0.004788 0.004788 0.024537
v -0.009394 0.009394 0.023168
v -0.013642 0.013642 0.020950
v -0.017372 0.017372 0.017979
v -0.020449 0.020449 0.014382
v -0.022774 0.022774 0.010312
v -0.024285 0.024285 0.005936
v -0.024960 0.024960 0.001423
v -0.025000 0.025000 0.000000
v -0.050000 0.025000 0.000000
v -0.050000 0.024598 0.004464
v -0.050000 0.023406 0.008784
v -0.050000 0.021461 0.012823
v -0.050000 0.018827 0.016449
v -0.050000 0.015587 0.019546
v -0.050000 0.011847 0.022015
v -0.050000 0.007725 0.023776
v -0.050000 0.003356 0.024774
v -0.050000 -0.001122 0.024975
v -0.050000 -0.005563 0.024373
v -0.050000 -0.009826 0.022988
v -0.050000 -0.013772 0.020864
v -0.050000 -0.017277 0.018070
v -0.050000 -0.020225 0.014695
v -0.050000 -0.022524 0.010847
v -0.050000 -0.024099 0.006651
v -0.050000 -0.024899 0.002241
v -0.050000 -0.024899 -0.002241
v -0.050000 -0.024099 -0.006651
v -0.050000 -0.022524 -0.010847
v -0.050000 -0.020225 -0.014695
v -0.050000 -0.017277 -0.018070
v -0.050000 -0.013772 -0.020864
v -0.050000 -0.009826 -0.022988
v -0.050000 -0.005563 -0.024373
v -0.050000 -0.001122 -0.024975
v -0.050000 0.003356 -0.024774
v -0.050000 0.007725 -0.023776
v -0.050000 0.011847 -0.022015
v -0.050000 0.015587 -0.019546
v -0.050000 0.018827 -0.016448
v -0.050000 0.021461 -0.012822
v -0.050000 0.023406 -0.008784
v -0.050000 0.024598 -0.004464
v -0.050000 0.025000 0.000000
v -0.025000 0.025000 0.000000
v -0.024601 0.024601 -0.004449
v -0.023391 0.023391 -0.008823
v -0.021375 0.021375 -0.012966
v -0.018592 0.018592 -0.016714
v -0.015121 0.015121 -0.019909
v -0.011076 0.011076 -0.022412
v -0.006604 0.006604 -0.024112
v -0.001873 0.001873 -0.024930
v -0.000000 0.000000 -0.025000
v 0.001873 0.001873 -0.024930
v 0.006604 0.006604 -0.024112
v 0.011076 0.011076 -0.022413
v 0.015121 0.015121 -0.019909
v 0.018592 0.018592 -0.016714
v 0.021375 0.021375 -0.012966
v 0.023391 0.023391 -0.008823
v 0.024601 0.024601 -0.004449
v 0.025000 0.025000 -0.000000
v -0.000000 0.050000 -0.028500
v -0.004817 0.050000 -0.028090
v -0.009494 0.050000 -0.026872
v -0.013899 0.050000 -0.024881
v -0.017904 0.050000 -0.022174
v -0.021394 0.050000 -0.018829
v -0.024269 0.050000 -0.014943
v -0.026445 0.050000 -0.010626
v -0.027860 0.050000 -0.006004
v -0.028474 0.050000 -0.001210
v -0.028269 0.050000 0.003620
v -0.027251 0.050000 0.008345
v -0.025448 0.050000 0.012831
v -0.022914 0.050000 0.016947
v -0.019720 0.050000 0.020576
v -0.015959 0.050000 0.023613
v -0.011739 0.050000 0.025970
v -0.007181 0.050000 0.027580
v -0.002417 0.050000 0.028397
v 0.002417 0.050000 0.028397
v 0.007181 0.050000 0.027580
v 0.011739 0.050000 0.025970
v 0.015959 0.050000 0.023613
v 0.019720 0.050000 0.020576
v 0.022914 0.050000 0.016947
v 0.025448 0.050000 0.012831
v 0.027251 0.050000 0.008345
v 0.028269 0.050000 0.003620
v 0.028474 0.050000 -0.001210
v 0.027860 0.050000 -0.006004
v 0.026445 0.050000 -0.010626
v 0.024269 0.050000 -0.014943
v 0.021394 0.050000 -0.018829
v 0.017904 0.050000 -0.022174
v 0.013899 0.050000 -0.024881
v 0.009494 0.050000 -0.026872
v 0.004817 0.050000 -0.028090
v 0.025000 0.050000 0.000000
v 0.024598 0.050000 0.004464
v 0.023406 0.050000 0.008784
v 0.021461 0.050000 0.012823
v 0.018827 0.050000 0.016449
v 0.015587 0.050000 0.019546
v 0.011847 0.050000 0.022015
v 0.007725 0.050000 0.023776
v 0.003356 0.050000 0.024774
v -0.001122 0.050000 0.024975
v -0.005563 0.050000 0.024373
v -0.009826 0.050000 0.022988
v -0.013772 0.050000 0.020864
v -0.017277 0.050000 0.018070
v -0.020225 0.050000 0.014695
v -0.022524 0.050000 0.010847
v -0.024099 0.050000 0.006651
v -0.024899 0.050000 0.002241
v -0.024899 0.050000 -0.002241
v -0.024099 0.050000 -0.006651
v -0.022524 0.050000 -0.010847
v -0.020225 0.050000 -0.014695
v -0.017277 0.050000 -0.018070
v -0.013772 0.050000 -0.020864
v -0.009826 0.050000 -0.022988
v -0.005563 0.050000 -0.024373
v -0.001122 0.050000 -0.024975
v 0.003356 0.050000 -0.024774
v 0.007725 0.050000 -0.023776
v 0.011847 0.050000 -0.022015
v 0.015587 0.050000 -0.019546
v 0.018827 0.050000 -0.016448
v 0.021461 0.050000 -0.012822
v 0.023406 0.050000 -0.008784
v 0.024598 0.050000 -0.004464
v 0.025000 0.025000 -0.000000
v 0.024601 0.024601 -0.004449
v 0.023391 0.023391 -0.008823
v 0.021375 0.021375 -0.012966
v 0.018592 0.018592 -0.016714
v 0.015121 0.015121 -0.019909
v 0.011076 0.011076 -0.022413
v 0.006604 0.006604 -0.024112
v 0.001873 0.001873 -0.024930
v -0.000000 0.000000 -0.025000
v -0.001873 0.001873 -0.024930
v -0.006604 0.006604 -0.024112
v -0.011076 0.011076 -0.022412
v -0.015121 0.015121 -0.019909
v -0.018592 0.018592 -0.016714
v -0.021375 0.021375 -0.012966
v -0.023391 0.023391 -0.008823
v -0.024601 0.024601 -0.004449
v -0.025000 0.025000 0.000000
v -0.024960 0.024960 0.001423
v -0.024285 0.024285 0.005936
v -0.022774 0.022774 0.010312
v -0.020449 0.020449 0.014382
v -0.017372 0.017372 0.017979
v -0.013642 0.013642 0.020950
v -0.009394 0.009394 0.023168
v -0.004788 0.004788 0.024537
v 0.000000 -0.000000 0.025000
v 0.004788 0.004788 0.024537
v 0.009394 0.009394 0.023168
v 0.013642 0.013642 0.020950
v 0.017372 0.017372 0.017979
v 0.020449 0.020449 0.014382
v 0.022774 0.022774 0.010312
v 0.024285 0.024285 0.005936
v 0.024960 0.024960 0.001423
v 0.025000 0.025000 -0.000000
v 0.025000 0.050000 0.000000
v 0.024598 0.050000 0.004464
v 0.023406 0.050000 0.008784
v 0.021461 0.050000 0.012823
v 0.018827 0.050000 0.016449
v 0.015587 0.050000 0.019546
v 0.011847 0.050000 0.022015
v 0.007725 0.050000 0.023776
v 0.003356 0.050000 0.024774
v -0.001122 0.050000 0.024975
v -0.005563 0.050000 0.024373
v -0.009826 0.050000 0.022988
v -0.013772 0.050000 0.020864
v -0.017277 0.050000 0.018070
v -0.020225 0.050000 0.014695
v -0.022524 0.050000 0.010847
v -0.024099 0.050000 0.006651
v -0.024899 0.050000 0.002241
v -0.024899 0.050000 -0.002241
v -0.024099 0.050000 -0.006651
v -0.022524 0.050000 -0.010847
v -0.020225 0.050000 -0.014695
v -0.017277 0.050000 -0.018070
v -0.013772 0.050000 -0.020864
v -0.009826 0.050000 -0.022988
v -0.005563 0.050000 -0.024373
v -0.001122 0.050000 -0.024975
v 0.003356 0.050000 -0.024774
v 0.007725 0.050000 -0.023776
v 0.011847 0.050000 -0.022015
v 0.015587 0.050000 -0.019546
v 0.018827 0.050000 -0.016448
v 0.021461 0.050000 -0.012822
v 0.023406 0.050000 -0.008784
v 0.024598 0.050000 -0.004464
v 0.025000 0.050000 0.000000
v -0.050000 0.028500 0.000000
v -0.050000 0.028090 -0.004817
v -0.050000 0.026872 -0.009494
v -0.050000 0.024881 -0.013899
v -0.050000 0.022174 -0.017904
v -0.050000 0.018829 -0.021394
v -0.050000 0.014943 -0.024269
v -0.050000 0.010626 -0.026445
v -0.050000 0.006004 -0.027860
v -0.050000 0.001210 -0.028474
v -0.050000 -0.003620 -0.028269
v -0.050000 -0.008345 -0.027251
v -0.050000 -0.012831 -0.025448
v -0.050000 -0.016947 -0.022914
v -0.050000 -0.020576 -0.019720
v -0.050000 -0.023612 -0.015959
v -0.050000 -0.025970 -0.011739
v -0.050000 -0.027580 -0.007181
v -0.050000 -0.028397 -0.002417
v -0.050000 -0.028397 0.002417
v -0.050000 -0.027580 0.007181
v -0.050000 -0.025970 0.011739
v -0.050000 -0.023613 0.015959
v -0.050000 -0.020576 0.019720
v -0.050000 -0.016947 0.022914
v -0.050000 -0.012831 0.025448
v -0.050000 -0.008345 0.027251
v -0.050000 -0.003620 0.028269
v -0.050000 0.001210 0.028474
v -0.050000 0.006004 0.027860
v -0.050000 0.010626 0.026445
v -0.050000 0.014943 0.024269
v -0.050000 0.018829 0.021394
v -0.050000 0.022174 0.017904
v -0.050000 0.024881 0.013899
v -0.050000 0.026872 0.009494
v -0.050000 0.028090 0.004817
v -0.050000 0.025000 0.000000
v -0.050000 0.024598 0.004464
v -0.050000 0.023406 0.008784
v -0.050000 0.021461 0.012823
v -0.050000 0.018827 0.016449
v -0.050000 0.015587 0.019546
v -0.050000 0.011847 0.022015
v -0.050000 0.007725 0.023776
v -0.050000 0.003356 0.024774
v -0.050000 -0.001122 0.024975
v -0.050000 -0.005563 0.024373
v -0.050000 -0.009826 0.022988
v -0.050000 -0.013772 0.020864
v -0.050000 -0.017277 0.018070
v -0.050000 -0.020225 0.014695
v -0.050000 -0.022524 0.010847
v -0.050000 -0.024099 0.006651
v -0.050000 -0.024899 0.002241
v -0.050000 -0.024899 -0.002241
v -0.050000 -0.024099 -0.006651
v -0.050000 -0.022524 -0.010847
v -0.050000 -0.020225 -0.014695
v -0.050000 -0.017277 -0.018070
v -0.050000 -0.013772 -0.020864
v -0.050000 -0.009826 -0.022988
v -0.050000 -0.005563 -0.024373
v -0.050000 -0.001122 -0.024975
v -0.050000 0.003356 -0.024774
v -0.050000 0.007725 -0.023776
v -0.050000 0.011847 -0.022015
v -0.050000 0.015587 -0.019546
v -0.050000 0.018827 -0.016448
v -0.050000 0.021461 -0.012822
v -0.050000 0.023406 -0.008784
v -0.050000 0.024598 -0.004464
v 0.050000 0.028090 -0.004817
v 0.050000 0.026872 -0.009494
v 0.050000 0.024881 -0.013899
v 0.050000 0.022174 -0.017904
v 0.050000 0.018829 -0.021394
v 0.050000 0.014943 -0.024269
v 0.050000 0.010626 -0.026445
v 0.050000 0.006004 -0.027860
v 0.050000 0.001210 -0.028474
v 0.050000 -0.003620 -0.028269
v 0.050000 -0.008345 -0.027251
v 0.050000 -0.012831 -0.025448
v 0.050000 -0.016947 -0.022914
v 0.050000 -0.020576 -0.019720
v 0.050000 -0.023612 -0.015959
v 0.050000 -0.025970 -0.011739
v 0.050000 -0.027580 -0.007181
v 0.050000 -0.028397 -0.002417
v 0.050000 -0.028397 0.002417
v 0.050000 -0.027580 0.007181
v 0.050000 -0.025970 0.011739
v 0.050000 -0.023613 0.015959
v 0.050000 -0.020576 0.019720
v 0.050000 -0.016947 0.022914
v 0.050000 -0.012831 0.025448
v 0.050000 -0.008345 0.027251
v 0.050000 -0.003620 0.028269
v 0.050000 0.001210 0.028474
v 0.050000 0.006004 0.027860
v 0.050000 0.010626 0.026445
v 0.050000 0.014943 0.024269
v 0.050000 0.018829 0.021394
v 0.050000 0.022174 0.017904
v 0.050000 0.024881 0.013899
v 0.050000 0.026872 0.009494
v 0.050000 0.028090 0.004817
v 0.050000 0.028500 -0.000000
v 0.050000 0.024598 0.004464
v 0.050000 0.023406 0.008784
v 0.050000 0.021461 0.012822
v 0.050000 0.018827 0.016448
v 0.050000 0.015587 0.019546
v 0.050000 0.011847 0.022015
v 0.050000 0.007725 0.023776
v 0.050000 0.003356 0.024774
v 0.050000 -0.001122 0.024975
v 0.050000 -0.005563 0.024373
v 0.050000 -0.009826 0.022988
v 0.050000 -0.013772 0.020864
v 0.050000 -0.017277 0.018070
v 0.050000 -0.020225 0.014695
v 0.050000 -0.022524 0.010847
v 0.050000 -0.024099 0.006651
v 0.050000 -0.024899 0.002241
v 0.050000 -0.024899 -0.002241
v 0.050000 -0.024099 -0.006651
v 0.050000 -0.022524 -0.010847
v 0.050000 -0.020225 -0.014695
v 0.050000 -0.017277 -0.018070
v 0.050000 -0.013772 -0.020864
v 0.050000 -0.009826 -0.022988
v 0.050000 -0.005563 -0.024373
v 0.050000 -0.001122 -0.024975
v 0.050000 0.003356 -0.024774
v 0.050000 0.007725 -0.023776
v 0.050000 0.011847 -0.022015
v 0.050000 0.015587 -0.019546
v 0.050000 0.018827 -0.016449
v 0.050000 0.021461 -0.012823
v 0.050000 0.023406 -0.008784
v 0.050000 0.024598 -0.004464
v 0.050000 0.025000 -0.000000
v 0.000000 -0.000000 0.028500
v 0.005160 0.005160 0.028029
v 0.010146 0.010146 0.026633
v 0.014785 0.014785 0.024365
v 0.018921 0.018921 0.021313
v 0.022419 0.022419 0.017596
v 0.025176 0.025176 0.013358
v 0.027121 0.027121 0.008759
v 0.028223 0.028223 0.003963
v 0.028500 0.028500 -0.000000
v 0.028101 0.028101 -0.004753
v 0.026887 0.026887 -0.009452
v 0.024855 0.024855 -0.013946
v 0.022033 0.022033 -0.018078
v 0.018487 0.018487 -0.021691
v 0.014318 0.014318 -0.024643
v 0.009656 0.009656 -0.026814
v 0.004657 0.004657 -0.028117
v -0.000000 0.000000 -0.028500
v -0.000000 0.050000 -0.028500
v 0.004817 0.050000 -0.028090
v 0.009494 0.050000 -0.026872
v 0.013899 0.050000 -0.024881
v 0.017904 0.050000 -0.022174
v 0.021394 0.050000 -0.018829
v 0.024269 0.050000 -0.014943
v 0.026445 0.050000 -0.010626
v 0.027860 0.050000 -0.006004
v 0.028474 0.050000 -0.001210
v 0.028269 0.050000 0.003620
v 0.027251 0.050000 0.008345
v 0.025448 0.050000 0.012831
v 0.022914 0.050000 0.016947
v 0.019720 0.050000 0.020576
v 0.015959 0.050000 0.023613
v 0.011739 0.050000 0.025970
v 0.007181 0.050000 0.027580
v 0.002417 0.050000 0.028397
v -0.002417 0.050000 0.028397
v -0.007181 0.050000 0.027580
v -0.011739 0.050000 0.025970
v -0.015959 0.050000 0.023613
v -0.019720 0.050000 0.020576
v -0.022914 0.050000 0.016947
v -0.025448 0.050000 0.012831
v -0.027251 0.050000 0.008345
v -0.028269 0.050000 0.003620
v -0.028474 0.050000 -0.001210
v -0.027860 0.050000 -0.006004
v -0.026445 0.050000 -0.010626
v -0.024269 0.050000 -0.014943
v -0.021394 0.050000 -0.018829
v -0.017904 0.050000 -0.022174
v -0.013899 0.050000 -0.024881
v -0.009494 0.050000 -0.026872
v -0.004817 0.050000 -0.028090
v -0.000000 0.050000 -0.028500
v -0.000000 0.000000 -0.028500
v -0.004657 0.004657 -0.028117
v -0.009656 0.009656 -0.026814
v -0.014318 0.014318 -0.024642
v -0.018487 0.018487 -0.021690
v -0.022033 0.022033 -0.018078
v -0.024855 0.024855 -0.013946
v -0.026887 0.026887 -0.009452
v -0.028101 0.028101 -0.004753
v -0.028500 0.028500 0.000000
v -0.028223 0.028223 0.003963
v -0.027121 0.027121 0.008759
v -0.025176 0.025176 0.013358
v -0.022419 0.022419 0.017596
v -0.018921 0.018921 0.021313
v -0.014785 0.014785 0.024365
v -0.010146 0.010146 0.026633
v -0.005160 0.005160 0.028029
v 0.028500 0.028500 -0.000000
v 0.028223 0.028223 0.003963
v 0.027121 0.027121 0.008759
v 0.025176 0.025176 0.013358
v 0.022419 0.022419 0.017596
v 0.018921 0.018921 0.021313
v 0.014785 0.014785 0.024365
v 0.010146 0.010146 0.026633
v 0.005160 0.005160 0.028029
v 0.000000 -0.000000 0.028500
v -0.005160 0.005160 0.028029
v -0.010146 0.010146 0.026633
v -0.014785 0.014785 0.024365
v -0.018921 0.018921 0.021313
v -0.022419 0.022419 0.017596
v -0.025176 0.025176 0.013358
v -0.027121 0.027121 0.008759
v -0.028223 0.028223 0.003963
v -0.028500 0.028500 0.000000
v -0.050000 0.028500 0.000000
v -0.050000 0.028090 0.004817
v -0.050000 0.026872 0.009494
v -0.050000 0.024881 0.013899
v -0.050000 0.022174 0.017904
v -0.050000 0.018829 0.021394
v -0.050000 0.014943 0.024269
v -0.050000 0.010626 0.026445
v -0.050000 0.006004 0.027860
v -0.050000 0.001210 0.028474
v -0.050000 -0.003620 0.028269
v -0.050000 -0.008345 0.027251
v -0.050000 -0.012831 0.025448
v -0.050000 -0.016947 0.022914
v -0.050000 -0.020576 0.019720
v -0.050000 -0.023613 0.015959
v -0.050000 -0.025970 0.011739
v -0.050000 -0.027580 0.007181
v -0.050000 -0.028397 0.002417
v -0.050000 -0.028397 -0.002417
v -0.050000 -0.027580 -0.007181
v -0.050000 -0.025970 -0.011739
v -0.050000 -0.023612 -0.015959
v -0.050000 -0.020576 -0.019720
v -0.050000 -0.016947 -0.022914
v -0.050000 -0.012831 -0.025448
v -0.050000 -0.008345 -0.027251
v -0.050000 -0.003620 -0.028269
v -0.050000 0.001210 -0.028474
v -0.050000 0.006004 -0.027860
v -0.050000 0.010626 -0.026445
v -0.050000 0.014943 -0.024269
v -0.050000 0.018829 -0.021394
v -0.050000 0.022174 -0.017904
v -0.050000 0.024881 -0.013899
v -0.050000 0.026872 -0.009494
v -0.050000 0.028090 -0.004817
v -0.050000 0.028500 0.000000
v -0.028500 0.028500 0.000000
v -0.028101 0.028101 -0.004753
v -0.026887 0.026887 -0.009452
v -0.024855 0.024855 -0.013946
v -0.022033 0.022033 -0.018078
v -0.018487 0.018487 -0.021690
v -0.014318 0.014318 -0.024642
v -0.009656 0.009656 -0.026814
v -0.004657 0.004657 -0.028117
v -0.000000 0.000000 -0.028500
v 0.004657 0.004657 -0.028117
v 0.009656 0.009656 -0.026814
v 0.014318 0.014318 -0.024643
v 0.018487 0.018487 -0.021691
v 0.022033 0.022033 -0.018078
v 0.024855 0.024855 -0.013946
v 0.026887 0.026887 -0.009452
v 0.028101 0.028101 -0.004753
v 0.028500 0.028500 -0.000000
v 0.050000 0.028500 -0.000000
v 0.050000 0.028090 -0.004817
v 0.050000 0.026872 -0.009494
v 0.050000 0.024881 -0.013899
v 0.050000 0.022174 -0.017904
v 0.050000 0.018829 -0.021394
v 0.050000 0.014943 -0.024269
v 0.050000 0.010626 -0.026445
v 0.050000 0.006004 -0.027860
v 0.050000 0.001210 -0.028474
v 0.050000 -0.003620 -0.028269
v 0.050000 -0.008345 -0.027251
v 0.050000 -0.012831 -0.025448
v 0.050000 -0.016947 -0.022914
v 0.050000 -0.020576 -0.019720
v 0.050000 -0.023612 -0.015959
v 0.050000 -0.025970 -0.011739
v 0.050000 -0.027580 -0.007181
v 0.050000 -0.028397 -0.002417
v 0.050000 -0.028397 0.002417
v 0.050000 -0.027580 0.007181
v 0.050000 -0.025970 0.011739
v 0.050000 -0.023613 0.015959
v 0.050000 -0.020576 0.019720
v 0.050000 -0.016947 0.022914
v 0.050000 -0.012831 0.025448
v 0.050000 -0.008345 0.027251
v 0.050000 -0.003620 0.028269
v 0.050000 0.001210 0.028474
v 0.050000 0.006004 0.027860
v 0.050000 0.010626 0.026445
v 0.050000 0.014943 0.024269
v 0.050000 0.018829 0.021394
v 0.050000 0.022174 0.017904
v 0.050000 0.024881 0.013899
v 0.050000 0.026872 0.009494
v 0.050000 0.028090 0.004817
v 0.050000 0.028500 -0.000000
vn -0.0000 -0.9960 0.0893
vn -0.0001 -0.9960 0.0896
vn -0.0001 -0.9010 0.4339
vn -0.0005 -0.8090 0.5878
vn -0.0009 -0.6911 0.7228
vn -0.0013 -0.5509 0.8346
vn -0.0016 -0.3930 0.9195
vn -0.0018 -0.2225 0.9749
vn -0.0019 -0.0449 0.9990
vn -0.0000 0.1342 0.9910
vn -0.0000 0.3090 0.9511
vn -0.0000 0.4739 0.8806
vn -0.0000 0.6235 0.7818
vn -0.0000 0.7531 0.6579
vn -0.0000 0.8584 0.5129
vn -0.0000 0.9362 0.3514
vn -0.0000 0.9839 0.1786
vn -0.0000 1.0000 -0.0000
vn -0.0000 0.9839 -0.1786
vn -0.0000 0.9362 -0.3514
vn -0.0000 0.8584 -0.5129
vn -0.0000 0.7531 -0.6579
vn -0.0000 0.6235 -0.7818
vn -0.0000 0.4739 -0.8806
vn -0.0000 0.3090 -0.9511
vn -0.0000 0.1342 -0.9910
vn -0.0015 -0.0449 -0.9990
vn -0.0019 -0.2225 -0.9749
vn -0.0024 -0.3930 -0.9195
vn -0.0028 -0.5509 -0.8346
vn -0.0031 -0.6911 -0.7228
vn -0.0033 -0.8090 -0.5878
vn -0.0034 -0.9010 -0.4339
vn -0.0035 -0.9640 -0.2660
vn -0.0035 -0.9960 -0.0896
vn -0.0000 -0.9996 -0.0284
vn 0.0036 -0.9891 -0.1473
vn 0.0037 -0.9456 -0.3252
vn 0.0037 -0.8692 -0.4945
vn 0.0035 -0.7613 -0.6484
vn 0.0033 -0.6251 -0.7805
vn 0.0030 -0.4652 -0.8852
vn 0.0025 -0.2873 -0.9578
vn 0.0021 -0.0983 -0.9952
vn -0.0021 -0.0983 -0.9952
vn -0.0025 -0.2873 -0.9578
vn -0.0030 -0.4652 -0.8852
vn -0.0033 -0.6251 -0.7805
vn -0.0035 -0.7613 -0.6484
vn -0.0037 -0.8692 -0.4945
vn -0.0037 -0.9456 -0.3252
vn -0.0036 -0.9891 -0.1473
vn 0.0035 -0.9960 -0.0896
vn 0.0035 -0.9640 -0.2660
vn 0.0034 -0.9010 -0.4339
vn 0.0033 -0.8090 -0.5878
vn 0.0031 -0.6911 -0.7228
vn 0.0028 -0.5509 -0.8346
vn 0.0024 -0.3930 -0.9195
vn 0.0019 -0.2225 -0.9749
vn 0.0015 -0.0449 -0.9990
vn 0.0019 -0.0449 0.9990
vn 0.0018 -0.2225 0.9749
vn 0.0016 -0.3930 0.9195
vn 0.0013 -0.5509 0.8346
vn 0.0009 -0.6911 0.7228
vn 0.0005 -0.8090 0.5878
vn 0.0001 -0.9010 0.4339
vn 0.0001 -0.9960 0.0896
vn -0.0001 -0.9638 0.2665
vn -0.0005 -0.8992 0.4375
vn -0.0010 -0.8032 0.5957
vn -0.0014 -0.6780 0.7350
vn -0.0018 -0.5276 0.8495
vn -0.0020 -0.3570 0.9341
vn -0.0021 -0.1724 0.9850
vn 0.0013 -0.0361 0.9993
vn -0.0013 -0.0361 0.9993
vn 0.0021 -0.1724 0.9850
vn 0.0020 -0.3570 0.9341
vn 0.0018 -0.5276 0.8495
vn 0.0014 -0.6780 0.7350
vn 0.0010 -0.8032 0.5957
vn 0.0005 -0.8992 0.4375
vn 0.0001 -0.9638 0.2665
vn -0.0000 0.0225 -0.9997
vn -0.0000 0.0225 0.9997
vn -0.0001 -0.9640 0.2660
vn 0.0001 -0.9640 0.2660
vn -0.9960 -0.0000 0.0893
vn -0.9638 0.0001 0.2665
vn -0.8992 0.0005 0.4375
vn -0.8032 0.0010 0.5957
vn -0.6780 0.0014 0.7350
vn -0.5276 0.0018 0.8495
vn -0.3570 0.0020 0.9341
vn -0.1724 0.0021 0.9850
vn -0.0361 -0.0013 0.9993
vn 0.0378 0.0003 0.9993
vn 0.1721 0.0018 0.9851
vn 0.3573 0.0023 0.9340
vn 0.5284 0.0028 0.8490
vn 0.6790 0.0033 0.7341
vn 0.8041 0.0036 0.5945
vn 0.8999 0.0038 0.4361
vn 0.9641 0.0040 0.2655
vn 0.9960 0.0040 0.0890
vn 0.9996 -0.0015 -0.0285
vn 0.9891 0.0024 -0.1474
vn 0.9455 0.0022 -0.3257
vn 0.8687 0.0018 -0.4953
vn 0.7603 0.0011 -0.6496
vn 0.6233 0.0004 -0.7819
vn 0.4637 0.0010 -0.8860
vn 0.2863 0.0014 -0.9581
vn 0.0979 0.0017 -0.9952
vn -0.0983 0.0021 -0.9952
vn -0.2873 0.0025 -0.9578
vn -0.4652 0.0030 -0.8852
vn -0.6251 0.0033 -0.7805
vn -0.7613 0.0035 -0.6484
vn -0.8692 0.0037 -0.4945
vn -0.9456 0.0037 -0.3252
vn -0.9891 0.0036 -0.1473
vn -0.9996 -0.0000 -0.0284
vn -0.9960 -0.0035 -0.0896
vn -0.9640 -0.0035 -0.2660
vn -0.9010 -0.0034 -0.4339
vn -0.8090 -0.0033 -0.5878
vn -0.6911 -0.0031 -0.7228
vn -0.5509 -0.0028 -0.8346
vn -0.3930 -0.0024 -0.9195
vn -0.2225 -0.0019 -0.9749
vn -0.0449 -0.0015 -0.9990
vn 0.1342 -0.0013 -0.9909
vn 0.3090 -0.0009 -0.9511
vn 0.4739 -0.0004 -0.8806
vn 0.6235 0.0004 -0.7818
vn 0.7531 -0.0004 -0.6579
vn 0.8584 -0.0011 -0.5129
vn 0.9362 -0.0017 -0.3514
vn 0.9839 -0.0022 -0.1786
vn 1.0000 -0.0040 -0.0000
vn 0.9839 -0.0040 0.1786
vn 0.9362 -0.0038 0.3514
vn 0.8584 -0.0035 0.5129
vn 0.7531 -0.0031 0.6579
vn 0.6235 -0.0027 0.7818
vn 0.4739 -0.0022 0.8806
vn 0.3090 -0.0017 0.9511
vn 0.1342 -0.0012 0.9909
vn -0.0449 -0.0019 0.9990
vn -0.2225 -0.0018 0.9749
vn -0.3930 -0.0016 0.9195
vn -0.5509 -0.0013 0.8346
vn -0.6911 -0.0009 0.7228
vn -0.8090 -0.0005 0.5878
vn -0.9010 -0.0001 0.4339
vn -0.9640 0.0001 0.2660
vn -0.9960 -0.0001 0.0896
vn -1.0000 -0.0000 -0.0000
vn 1.0000 -0.0000 -0.0000
vn -0.0934 -0.0025 0.9956
vn 0.0934 -0.0025 0.9956
vn 0.2721 -0.0026 0.9623
vn 0.4414 -0.0027 0.8973
vn 0.5955 -0.0027 0.8034
vn 0.7294 -0.0025 0.6841
vn 0.8390 -0.0022 0.5442
vn 0.9213 -0.0019 0.3889
vn 0.9747 -0.0015 0.2237
vn 0.9976 -0.0010 0.0696
vn 0.9965 -0.0035 -0.0834
vn 0.9684 -0.0036 -0.2492
vn 0.9117 -0.0034 -0.4108
vn 0.8267 -0.0030 -0.5626
vn 0.7149 -0.0025 -0.6992
vn 0.5790 -0.0018 -0.8153
vn 0.4232 -0.0011 -0.9060
vn 0.2525 -0.0004 -0.9676
vn 0.0820 -0.0000 -0.9966
vn 0.0848 0.0003 -0.9964
vn 0.2520 -0.0003 -0.9677
vn 0.4119 0.0003 -0.9112
vn 0.5600 0.0010 -0.8285
vn 0.6919 0.0017 -0.7220
vn 0.8040 0.0024 -0.5946
vn 0.8929 0.0030 -0.4502
vn 0.9562 0.0034 -0.2928
vn 0.9919 0.0036 -0.1270
vn 0.9991 0.0036 0.0424
vn 0.9776 0.0012 0.2107
vn 0.9279 0.0015 0.3729
vn 0.8515 0.0018 0.5243
vn 0.7507 0.0021 0.6607
vn 0.6282 0.0023 0.7780
vn 0.4877 0.0024 0.8730
vn 0.3331 0.0024 0.9429
vn 0.1690 0.0022 0.9856
vn -0.0000 0.0021 1.0000
vn -0.1690 0.0022 0.9856
vn -0.3331 0.0024 0.9429
vn -0.4877 0.0024 0.8730
vn -0.6282 0.0023 0.7780
vn -0.7507 0.0021 0.6607
vn -0.8515 0.0018 0.5243
vn -0.9279 0.0015 0.3729
vn -0.9776 0.0012 0.2107
vn -0.9991 0.0036 0.0424
vn -0.9919 0.0036 -0.1270
vn -0.9562 0.0034 -0.2928
vn -0.8929 0.0030 -0.4502
vn -0.8040 0.0024 -0.5946
vn -0.6919 0.0017 -0.7220
vn -0.5600 0.0010 -0.8285
vn -0.4119 0.0003 -0.9112
vn -0.2520 -0.0003 -0.9677
vn -0.0848 0.0003 -0.9964
vn -0.0820 -0.0000 -0.9966
vn -0.2525 -0.0004 -0.9676
vn -0.4232 -0.0011 -0.9060
vn -0.5790 -0.0018 -0.8153
vn -0.7149 -0.0025 -0.6992
vn -0.8267 -0.0030 -0.5626
vn -0.9117 -0.0034 -0.4108
vn -0.9684 -0.0036 -0.2492
vn -0.9965 -0.0035 -0.0834
vn -0.9976 -0.0010 0.0696
vn -0.9747 -0.0015 0.2237
vn -0.9213 -0.0019 0.3889
vn -0.8390 -0.0022 0.5442
vn -0.7294 -0.0025 0.6841
vn -0.5955 -0.0027 0.8034
vn -0.4414 -0.0027 0.8973
vn -0.2721 -0.0026 0.9623
vn -0.0000 0.9976 0.0697
vn -0.0028 0.9747 0.2234
vn -0.0025 0.9214 0.3886
vn -0.0019 0.8389 0.5443
vn -0.0012 0.7287 0.6848
vn -0.0005 0.5941 0.8044
vn -0.0011 0.4401 0.8980
vn -0.0015 0.2710 0.9626
vn -0.0017 0.0926 0.9957
vn 0.0017 0.0926 0.9957
vn 0.0015 0.2710 0.9626
vn 0.0011 0.4401 0.8980
vn 0.0005 0.5941 0.8044
vn 0.0012 0.7287 0.6848
vn 0.0019 0.8389 0.5443
vn 0.0025 0.9214 0.3886
vn 0.0028 0.9747 0.2234
vn -0.0028 0.9964 0.0848
vn -0.0024 0.9677 0.2520
vn -0.0018 0.9112 0.4119
vn -0.0011 0.8285 0.5600
vn -0.0003 0.7220 0.6919
vn -0.0004 0.4502 0.8929
vn -0.0010 0.2928 0.9562
vn -0.0013 0.1270 0.9919
vn -0.0015 -0.0424 0.9991
vn -0.0000 -0.2107 0.9776
vn -0.0000 -0.3729 0.9279
vn -0.0000 -0.5243 0.8515
vn -0.0000 -0.6607 0.7507
vn -0.0000 -0.7780 0.6282
vn -0.0000 -0.8730 0.4877
vn -0.0000 -0.9429 0.3331
vn -0.0000 -0.9856 0.1690
vn -0.0000 -1.0000 -0.0000
vn -0.0000 -0.9856 -0.1690
vn -0.0000 -0.9429 -0.3331
vn -0.0000 -0.8730 -0.4877
vn -0.0000 -0.7780 -0.6282
vn -0.0000 -0.6607 -0.7507
vn -0.0000 -0.5243 -0.8515
vn -0.0000 -0.3729 -0.9279
vn -0.0000 -0.2107 -0.9776
vn -0.0015 -0.0424 -0.9991
vn -0.0018 0.1270 -0.9919
vn -0.0017 0.2928 -0.9562
vn -0.0015 0.4502 -0.8929
vn -0.0011 0.5946 -0.8040
vn -0.0006 0.7220 -0.6919
vn -0.0002 0.8285 -0.5600
vn -0.0002 0.9677 -0.2520
vn -0.0002 0.9964 -0.0848
vn -0.0000 0.9965 -0.0837
vn 0.0002 0.9682 -0.2501
vn 0.0002 0.9112 -0.4120
vn 0.0007 0.8260 -0.5637
vn 0.0012 0.7143 -0.6999
vn 0.0016 0.5789 -0.8154
vn 0.0019 0.4239 -0.9057
vn 0.0021 0.2541 -0.9672
vn 0.0015 0.0835 -0.9965
vn -0.0015 0.0835 -0.9965
vn -0.0021 0.2541 -0.9672
vn -0.0019 0.4239 -0.9057
vn -0.0016 0.5789 -0.8154
vn -0.0012 0.7143 -0.6999
vn -0.0007 0.8260 -0.5637
vn -0.0002 0.9112 -0.4120
vn -0.0002 0.9682 -0.2501
vn 0.0002 0.9964 -0.0848
vn 0.0002 0.9677 -0.2520
vn 0.0002 0.8285 -0.5600
vn 0.0006 0.7220 -0.6919
vn 0.0011 0.5946 -0.8040
vn 0.0015 0.4502 -0.8929
vn 0.0017 0.2928 -0.9562
vn 0.0018 0.1270 -0.9919
vn 0.0015 -0.0424 -0.9991
vn 0.0015 -0.0424 0.9991
vn 0.0013 0.1270 0.9919
vn 0.0010 0.2928 0.9562
vn 0.0004 0.4502 0.8929
vn 0.0003 0.7220 0.6919
vn 0.0011 0.8285 0.5600
vn 0.0018 0.9112 0.4119
vn 0.0024 0.9677 0.2520
vn 0.0028 0.9964 0.0848
vn -0.0003 0.5946 0.8040
vn 0.0003 0.5946 0.8040
vn -0.0000 -0.0636 0.9980
vn -0.0000 -0.0636 -0.9980
vn 0.0002 0.9112 -0.4119
vn -0.0002 0.9112 -0.4119
vt 0.253990 0.588971
vt 0.000000 0.500000
vt 0.250000 0.500000
vt 0.000000 0.589278
vt 0.266088 0.676469
vt 0.000000 0.756450
vt 0.000000 0.675687
vt 0.286253 0.759324
vt 0.000000 0.828970
vt 0.314082 0.834272
vt 0.000000 0.890916
vt 0.348793 0.898178
vt 0.000000 0.940298
vt 0.389238 0.948250
vt 0.000000 0.975528
vt 0.433960 0.982240
vt 0.000000 0.995474
vt 0.481274 0.998596
vt 0.000000 0.999496
vt 1.000000 0.987464
vt 0.000000 0.987464
vt 1.000000 0.959764
vt 0.000000 0.959764
vt 1.000000 0.917286
vt 0.000000 0.917286
vt 1.000000 0.861398
vt 0.000000 0.861398
vt 1.000000 0.793892
vt 0.000000 0.793892
vt 1.000000 0.716942
vt 0.000000 0.716942
vt 1.000000 0.633018
vt 0.000000 0.633018
vt 1.000000 0.544820
vt 0.000000 0.544820
vt 1.000000 0.455180
vt 0.000000 0.455180
vt 1.000000 0.366982
vt 0.000000 0.366982
vt 1.000000 0.283058
vt 0.000000 0.283058
vt 1.000000 0.206108
vt 0.000000 0.206108
vt 1.000000 0.138602
vt 0.000000 0.138602
vt 1.000000 0.082714
vt 0.000000 0.082714
vt 1.000000 0.040236
vt 0.000000 0.040236
vt 1.000000 0.012536
vt 0.000000 0.012536
vt 1.000000 0.000504
vt 0.000000 0.000504
vt 0.500000 0.000000
vt 0.000000 0.004526
vt 0.452122 0.009254
vt 0.000000 0.024472
vt 0.406058 0.036642
vt 0.000000 0.059702
vt 0.363580 0.081004
vt 0.000000 0.109084
vt 0.326284 0.140428
vt 0.000000 0.171030
vt 0.295509 0.212364
vt 0.000000 0.243550
vt 0.272258 0.293762
vt 0.000000 0.324313
vt 0.257149 0.381286
vt 0.000000 0.410722
vt 0.250405 0.471538
vt 1.000000 0.004526
vt 0.547878 0.009254
vt 1.000000 0.024472
vt 0.593942 0.036642
vt 1.000000 0.059702
vt 0.636420 0.081004
vt 1.000000 0.109084
vt 0.673716 0.140428
vt 1.000000 0.171030
vt 0.704491 0.212364
vt 1.000000 0.243550
vt 0.727742 0.293762
vt 1.000000 0.324313
vt 0.742851 0.381286
vt 1.000000 0.410722
vt 0.749595 0.471538
vt 1.000000 0.500000
vt 0.750000 0.500000
vt 1.000000 0.999496
vt 0.518726 0.998596
vt 1.000000 0.995474
vt 0.566040 0.982240
vt 1.000000 0.975528
vt 0.610762 0.948250
vt 1.000000 0.940298
vt 0.651207 0.898178
vt 1.000000 0.890916
vt 0.685918 0.834272
vt 1.000000 0.828970
vt 0.713747 0.759324
vt 1.000000 0.756450
vt 0.733912 0.676469
vt 1.000000 0.675687
vt 0.746010 0.588971
vt 1.000000 0.589278
vt 0.500000 1.000000
vt 0.415423 0.992796
vt 0.441073 0.934508
vt 0.584577 0.992796
vt 0.519695 0.938043
vt 0.666720 0.971387
vt 0.597685 0.927469
vt 0.744067 0.936392
vt 0.672535 0.903127
vt 0.814394 0.888817
vt 0.741839 0.865799
vt 0.875676 0.830031
vt 0.803372 0.816685
vt 0.926149 0.761725
vt 0.855152 0.757363
vt 0.964363 0.685862
vt 0.895518 0.689741
vt 0.989218 0.604627
vt 0.923173 0.615991
vt 1.000000 0.520356
vt 0.937226 0.538484
vt 0.996399 0.435474
vt 0.937226 0.459711
vt 0.978516 0.352422
vt 0.923173 0.382204
vt 0.946866 0.273589
vt 0.895518 0.308454
vt 0.902361 0.201245
vt 0.855152 0.240832
vt 0.846282 0.137469
vt 0.803372 0.181509
vt 0.780240 0.084095
vt 0.706137 0.042661
vt 0.741839 0.132396
vt 0.626103 0.014357
vt 0.672535 0.095068
vt 0.542441 0.000000
vt 0.597685 0.070726
vt 0.457559 0.000000
vt 0.519695 0.060152
vt 0.373897 0.014357
vt 0.441073 0.063687
vt 0.293863 0.042661
vt 0.364344 0.081215
vt 0.219760 0.084095
vt 0.291976 0.112174
vt 0.153718 0.137469
vt 0.226294 0.155570
vt 0.097639 0.201245
vt 0.169407 0.210006
vt 0.053134 0.273589
vt 0.123148 0.273735
vt 0.021484 0.352422
vt 0.089000 0.344708
vt 0.003601 0.435474
vt 0.068063 0.420642
vt 0.000000 0.520356
vt 0.061008 0.499097
vt 0.010782 0.604627
vt 0.068063 0.577553
vt 0.035637 0.685862
vt 0.089000 0.653487
vt 0.073851 0.761725
vt 0.123148 0.724460
vt 0.124324 0.830031
vt 0.169407 0.788189
vt 0.185606 0.888817
vt 0.255933 0.936392
vt 0.226294 0.842625
vt 0.333280 0.971387
vt 0.291976 0.886021
vt 0.364344 0.916980
vt 0.007980 0.492020
vt 0.000000 1.000000
vt 0.031882 1.000000
vt 0.032176 0.467824
vt 0.070776 1.000000
vt 0.072506 0.427494
vt 0.123464 1.000000
vt 0.128164 0.371836
vt 0.188256 1.000000
vt 0.197586 0.302414
vt 0.263066 1.000000
vt 0.278476 0.221524
vt 0.345492 1.000000
vt 0.367920 0.132080
vt 0.432883 1.000000
vt 0.462548 0.037452
vt 0.522432 1.000000
vt 0.537452 0.037452
vt 0.611260 1.000000
vt 0.632080 0.132080
vt 0.696513 1.000000
vt 0.721524 0.221524
vt 0.775448 1.000000
vt 0.802414 0.302414
vt 0.845532 1.000000
vt 0.871836 0.371836
vt 0.904508 1.000000
vt 0.927494 0.427494
vt 0.950484 1.000000
vt 0.967824 0.467824
vt 0.981982 1.000000
vt 0.992020 0.492020
vt 0.997988 1.000000
vt 0.999190 0.499190
vt 0.985702 0.485702
vt 0.955484 0.455484
vt 0.908982 0.408982
vt 0.847432 0.347432
vt 0.772840 0.272840
vt 0.687884 0.187884
vt 0.595755 0.095755
vt 0.500000 0.000000
vt 0.404245 0.095755
vt 0.312116 0.187884
vt 0.227160 0.272840
vt 0.152568 0.347432
vt 0.091018 0.408982
vt 0.044516 0.455484
vt 0.014298 0.485702
vt 0.008036 1.000000
vt 0.000810 0.499190
vt 0.500000 0.938486
vt 0.578385 0.931424
vt 0.654251 0.910469
vt 0.725159 0.876289
vt 0.788831 0.829988
vt 0.843218 0.773051
vt 0.886575 0.707309
vt 0.917506 0.634876
vt 0.935019 0.558078
vt 0.938550 0.479384
vt 0.927986 0.401324
vt 0.903666 0.326407
vt 0.866371 0.257040
vt 0.817302 0.195452
vt 0.758033 0.143625
vt 0.690472 0.103223
vt 0.616788 0.075543
vt 0.539351 0.061477
vt 0.460649 0.061477
vt 0.383212 0.075543
vt 0.309528 0.103223
vt 0.241967 0.143625
vt 0.182698 0.195452
vt 0.133629 0.257040
vt 0.096334 0.326407
vt 0.072014 0.401324
vt 0.061450 0.479384
vt 0.064981 0.558078
vt 0.082494 0.634876
vt 0.113425 0.707309
vt 0.156782 0.773051
vt 0.211169 0.829988
vt 0.274841 0.876289
vt 0.345749 0.910469
vt 0.421615 0.931424
vt 0.590535 0.008265
vt 0.542403 0.001802
vt 0.409465 0.008265
vt 0.457597 0.001802
vt 0.321996 0.032758
vt 0.374011 0.016133
vt 0.240609 0.072547
vt 0.294049 0.044386
vt 0.168053 0.126088
vt 0.220012 0.085746
vt 0.106681 0.191293
vt 0.154030 0.139023
vt 0.058325 0.265646
vt 0.098002 0.202684
vt 0.024196 0.346341
vt 0.053537 0.274898
vt 0.004856 0.430482
vt 0.021916 0.353589
vt 0.004049 0.436491
vt 0.007002 0.583384
vt 0.000451 0.521221
vt 0.028298 0.665825
vt 0.011223 0.605340
vt 0.063954 0.744672
vt 0.036056 0.686428
vt 0.113458 0.817151
vt 0.074235 0.762154
vt 0.175665 0.880535
vt 0.124663 0.830337
vt 0.248812 0.932325
vt 0.185889 0.889018
vt 0.330597 0.970428
vt 0.256153 0.936507
vt 0.418294 0.993279
vt 0.333430 0.971439
vt 0.415500 0.992809
vt 0.625989 0.016133
vt 0.705951 0.044386
vt 0.678003 0.032758
vt 0.779988 0.085746
vt 0.759391 0.072547
vt 0.845970 0.139023
vt 0.831947 0.126088
vt 0.901998 0.202684
vt 0.893319 0.191293
vt 0.946463 0.274898
vt 0.941675 0.265646
vt 0.978084 0.353589
vt 0.975803 0.346341
vt 0.995951 0.436491
vt 0.995144 0.430482
vt 0.999549 0.521221
vt 0.988777 0.605340
vt 0.992998 0.583384
vt 0.963944 0.686428
vt 0.971702 0.665825
vt 0.925765 0.762154
vt 0.936046 0.744672
vt 0.875337 0.830337
vt 0.886542 0.817151
vt 0.814111 0.889018
vt 0.824335 0.880535
vt 0.743847 0.936507
vt 0.751188 0.932325
vt 0.666570 0.971439
vt 0.669403 0.970428
vt 0.584500 0.992809
vt 0.581706 0.993279
vt 0.215000 0.500000
vt 0.217768 0.430482
vt 0.228792 0.346341
vt 0.000000 0.415500
vt 0.248245 0.265646
vt 0.000000 0.333430
vt 0.275808 0.191293
vt 0.000000 0.256153
vt 0.310790 0.126088
vt 0.000000 0.185889
vt 0.352147 0.072547
vt 0.000000 0.074235
vt 0.398538 0.032758
vt 0.000000 0.036056
vt 0.448395 0.008265
vt 0.000000 0.011223
vt 0.000000 0.000451
vt 0.551605 0.008265
vt 1.000000 0.000451
vt 0.601462 0.032758
vt 1.000000 0.011223
vt 0.647853 0.072547
vt 1.000000 0.036056
vt 0.689210 0.126088
vt 1.000000 0.074235
vt 0.724192 0.191293
vt 1.000000 0.185889
vt 0.751755 0.265646
vt 1.000000 0.256153
vt 0.771208 0.346341
vt 1.000000 0.333430
vt 0.782232 0.430482
vt 1.000000 0.415500
vt 0.785000 0.500000
vt 1.000000 0.124663
vt 1.000000 0.004049
vt 1.000000 0.021916
vt 0.000000 0.021916
vt 1.000000 0.053537
vt 0.000000 0.053537
vt 1.000000 0.098002
vt 0.000000 0.098002
vt 1.000000 0.154030
vt 0.000000 0.154030
vt 1.000000 0.220012
vt 0.000000 0.220012
vt 1.000000 0.294049
vt 0.000000 0.294049
vt 1.000000 0.374011
vt 0.000000 0.374011
vt 1.000000 0.457597
vt 0.000000 0.457597
vt 1.000000 0.542403
vt 0.000000 0.542403
vt 1.000000 0.625989
vt 0.000000 0.625989
vt 1.000000 0.705951
vt 0.000000 0.705951
vt 1.000000 0.779988
vt 0.000000 0.779988
vt 1.000000 0.845970
vt 0.000000 0.845970
vt 1.000000 0.901998
vt 0.000000 0.901998
vt 1.000000 0.946463
vt 0.000000 0.946463
vt 1.000000 0.978084
vt 0.000000 0.978084
vt 1.000000 0.995951
vt 0.000000 0.995951
vt 1.000000 0.999549
vt 1.000000 0.988777
vt 0.546572 0.993279
vt 1.000000 0.963944
vt 0.596560 0.970428
vt 1.000000 0.925765
vt 0.643177 0.932325
vt 1.000000 0.875337
vt 0.684871 0.880535
vt 1.000000 0.814111
vt 0.720329 0.817151
vt 1.000000 0.743847
vt 0.748546 0.744672
vt 1.000000 0.666570
vt 1.000000 0.584500
vt 0.768870 0.665825
vt 0.781009 0.583384
vt 0.453428 0.993279
vt 0.000000 0.999549
vt 0.403440 0.970428
vt 0.000000 0.988777
vt 0.356823 0.932325
vt 0.000000 0.963944
vt 0.315129 0.880535
vt 0.000000 0.925765
vt 0.279671 0.817151
vt 0.000000 0.875337
vt 0.251454 0.744672
vt 0.000000 0.814111
vt 0.231130 0.665825
vt 0.000000 0.743847
vt 0.218991 0.583384
vt 0.000000 0.584500
vt 0.000000 0.666570
vt 0.000000 0.004049
vt 0.000000 0.124663
s 0
usemtl Shape
f 109/1/1 1/2/1 110/3/1
f 109/1/2 2/4/2 1/2/2
f 108/5/3 4/6/3 3/7/3
f 107/8/4 5/9/4 4/6/4
f 106/10/5 6/11/5 5/9/5
f 105/12/6 7/13/6 6/11/6
f 104/14/7 8/15/7 7/13/7
f 103/16/8 9/17/8 8/15/8
f 102/18/9 10/19/9 9/17/9
f 81/20/10 11/21/10 10/19/10
f 80/22/11 12/23/11 11/21/11
f 79/24/12 13/25/12 12/23/12
f 78/26/13 14/27/13 13/25/13
f 77/28/14 15/29/14 14/27/14
f 76/30/15 16/31/15 15/29/15
f 75/32/16 17/33/16 16/31/16
f 74/34/17 18/35/17 17/33/17
f 73/36/18 19/37/18 18/35/18
f 72/38/19 20/39/19 19/37/19
f 71/40/20 21/41/20 20/39/20
f 70/42/21 22/43/21 21/41/21
f 69/44/22 23/45/22 22/43/22
f 68/46/23 24/47/23 23/45/23
f 67/48/24 25/49/24 24/47/24
f 66/50/25 26/51/25 25/49/25
f 65/52/26 27/53/26 26/51/26
f 46/54/27 28/55/27 27/53/27
f 45/56/28 29/57/28 28/55/28
f 44/58/29 30/59/29 29/57/29
f 43/60/30 31/61/30 30/59/30
f 42/62/31 32/63/31 31/61/31
f 41/64/32 33/65/32 32/63/32
f 40/66/33 34/67/33 33/65/33
f 39/68/34 35/69/34 34/67/34
f 38/70/35 36/2/35 35/69/35
f 38/70/36 37/3/36 36/2/36
f 35/69/37 39/68/37 38/70/37
f 34/67/38 40/66/38 39/68/38
f 33/65/39 41/64/39 40/66/39
f 32/63/40 42/62/40 41/64/40
f 31/61/41 43/60/41 42/62/41
f 30/59/42 44/58/42 43/60/42
f 29/57/43 45/56/43 44/58/43
f 28/55/44 46/54/44 45/56/44
f 64/71/45 47/72/45 46/54/45
f 63/73/46 48/74/46 47/72/46
f 62/75/47 49/76/47 48/74/47
f 61/77/48 50/78/48 49/76/48
f 60/79/49 51/80/49 50/78/49
f 59/81/50 52/82/50 51/80/50
f 58/83/51 53/84/51 52/82/51
f 57/85/52 54/86/52 53/84/52
f 56/87/36 55/88/36 54/86/36
f 54/86/53 57/85/53 56/87/53
f 53/84/54 58/83/54 57/85/54
f 52/82/55 59/81/55 58/83/55
f 51/80/56 60/79/56 59/81/56
f 50/78/57 61/77/57 60/79/57
f 49/76/58 62/75/58 61/77/58
f 48/74/59 63/73/59 62/75/59
f 47/72/60 64/71/60 63/73/60
f 46/54/61 65/52/61 64/71/61
f 26/51/26 66/50/26 65/52/26
f 25/49/25 67/48/25 66/50/25
f 24/47/24 68/46/24 67/48/24
f 23/45/23 69/44/23 68/46/23
f 22/43/22 70/42/22 69/44/22
f 21/41/21 71/40/21 70/42/21
f 20/39/20 72/38/20 71/40/20
f 19/37/19 73/36/19 72/38/19
f 18/35/18 74/34/18 73/36/18
f 17/33/17 75/32/17 74/34/17
f 16/31/16 76/30/16 75/32/16
f 15/29/15 77/28/15 76/30/15
f 14/27/14 78/26/14 77/28/14
f 13/25/13 79/24/13 78/26/13
f 12/23/12 80/22/12 79/24/12
f 11/21/11 81/20/11 80/22/11
f 10/19/10 82/89/10 81/20/10
f 100/90/62 83/91/62 82/89/62
f 99/92/63 84/93/63 83/91/63
f 98/94/64 85/95/64 84/93/64
f 97/96/65 86/97/65 85/95/65
f 96/98/66 87/99/66 86/97/66
f 95/100/67 88/101/67 87/99/67
f 94/102/68 89/103/68 88/101/68
f 93/104/69 91/87/69 90/105/69
f 93/104/1 92/88/1 91/87/1
f 89/103/70 94/102/70 93/104/70
f 88/101/71 95/100/71 94/102/71
f 87/99/72 96/98/72 95/100/72
f 86/97/73 97/96/73 96/98/73
f 85/95/74 98/94/74 97/96/74
f 84/93/75 99/92/75 98/94/75
f 83/91/76 100/90/76 99/92/76
f 82/89/77 101/106/77 100/90/77
f 10/19/78 102/18/78 101/106/78
f 9/17/79 103/16/79 102/18/79
f 8/15/80 104/14/80 103/16/80
f 7/13/81 105/12/81 104/14/81
f 6/11/82 106/10/82 105/12/82
f 5/9/83 107/8/83 106/10/83
f 4/6/84 108/5/84 107/8/84
f 3/7/85 109/1/85 108/5/85
f 46/54/86 27/53/86 65/52/86
f 101/106/87 82/89/87 10/19/87
f 90/105/88 89/103/88 93/104/88
f 109/1/89 3/7/89 2/4/89
f 147/107/18 111/106/18 175/108/18
f 111/106/18 112/109/18 174/110/18
f 112/109/18 113/111/18 173/112/18
f 113/111/18 114/113/18 172/114/18
f 114/113/18 115/115/18 171/116/18
f 115/115/18 116/117/18 170/118/18
f 116/117/18 117/119/18 169/120/18
f 117/119/18 118/121/18 168/122/18
f 118/121/18 119/123/18 167/124/18
f 119/123/18 120/125/18 166/126/18
f 120/125/18 121/127/18 165/128/18
f 121/127/18 122/129/18 164/130/18
f 122/129/18 123/131/18 163/132/18
f 123/131/18 124/133/18 162/134/18
f 124/133/18 125/135/18 161/136/18
f 125/135/18 126/137/18 161/136/18
f 126/137/18 127/138/18 160/139/18
f 127/138/18 128/140/18 159/141/18
f 128/140/18 129/142/18 158/143/18
f 129/142/18 130/144/18 157/145/18
f 130/144/18 131/146/18 156/147/18
f 131/146/18 132/148/18 155/149/18
f 132/148/18 133/150/18 154/151/18
f 133/150/18 134/152/18 153/153/18
f 134/152/18 135/154/18 152/155/18
f 135/154/18 136/156/18 151/157/18
f 136/156/18 137/158/18 150/159/18
f 137/158/18 138/160/18 149/161/18
f 138/160/18 139/162/18 148/163/18
f 139/162/18 140/164/18 182/165/18
f 140/164/18 141/166/18 181/167/18
f 141/166/18 142/168/18 180/169/18
f 142/168/18 143/170/18 179/171/18
f 143/170/18 144/172/18 179/171/18
f 144/172/18 145/173/18 178/174/18
f 145/173/18 146/175/18 177/176/18
f 146/175/18 147/107/18 176/177/18
f 182/165/18 148/163/18 139/162/18
f 148/163/18 149/161/18 138/160/18
f 149/161/18 150/159/18 137/158/18
f 150/159/18 151/157/18 136/156/18
f 151/157/18 152/155/18 135/154/18
f 152/155/18 153/153/18 134/152/18
f 153/153/18 154/151/18 133/150/18
f 154/151/18 155/149/18 132/148/18
f 155/149/18 156/147/18 131/146/18
f 156/147/18 157/145/18 130/144/18
f 157/145/18 158/143/18 129/142/18
f 158/143/18 159/141/18 128/140/18
f 159/141/18 160/139/18 127/138/18
f 160/139/18 161/136/18 126/137/18
f 161/136/18 162/134/18 124/133/18
f 162/134/18 163/132/18 123/131/18
f 163/132/18 164/130/18 122/129/18
f 164/130/18 165/128/18 121/127/18
f 165/128/18 166/126/18 120/125/18
f 166/126/18 167/124/18 119/123/18
f 167/124/18 168/122/18 118/121/18
f 168/122/18 169/120/18 117/119/18
f 169/120/18 170/118/18 116/117/18
f 170/118/18 171/116/18 115/115/18
f 171/116/18 172/114/18 114/113/18
f 172/114/18 173/112/18 113/111/18
f 173/112/18 174/110/18 112/109/18
f 174/110/18 175/108/18 111/106/18
f 175/108/18 176/177/18 147/107/18
f 176/177/18 177/176/18 146/175/18
f 177/176/18 178/174/18 145/173/18
f 178/174/18 179/171/18 144/172/18
f 179/171/18 180/169/18 142/168/18
f 180/169/18 181/167/18 141/166/18
f 181/167/18 182/165/18 140/164/18
f 184/178/90 183/2/90 255/179/90
f 253/180/91 185/181/91 184/178/91
f 252/182/92 186/183/92 185/181/92
f 251/184/93 187/185/93 186/183/93
f 250/186/94 188/187/94 187/185/94
f 249/188/95 189/189/95 188/187/95
f 248/190/96 190/191/96 189/189/96
f 247/192/97 191/193/97 190/191/97
f 246/194/98 192/54/98 191/193/98
f 246/194/99 193/195/99 192/54/99
f 245/196/100 194/197/100 193/195/100
f 244/198/101 195/199/101 194/197/101
f 243/200/102 196/201/102 195/199/102
f 242/202/103 197/203/103 196/201/103
f 241/204/104 198/205/104 197/203/104
f 240/206/105 199/207/105 198/205/105
f 239/208/106 200/209/106 199/207/106
f 238/210/107 201/87/107 200/209/107
f 237/210/108 202/211/108 201/87/108
f 237/210/109 203/212/109 202/211/109
f 236/208/110 204/213/110 203/212/110
f 235/206/111 205/214/111 204/213/111
f 234/204/112 206/215/112 205/214/112
f 232/200/113 207/216/113 206/215/113
f 231/198/114 208/217/114 207/216/114
f 230/196/115 209/218/115 208/217/115
f 229/194/116 210/219/116 209/218/116
f 228/192/117 211/220/117 210/219/117
f 227/190/118 212/221/118 211/220/118
f 226/188/119 213/222/119 212/221/119
f 225/186/120 214/223/120 213/222/120
f 224/184/121 215/224/121 214/223/121
f 223/182/122 216/225/122 215/224/122
f 222/180/123 217/226/123 216/225/123
f 221/227/124 218/228/124 217/226/124
f 220/179/125 219/2/125 218/228/125
f 218/228/126 221/227/126 220/179/126
f 217/226/127 222/180/127 221/227/127
f 216/225/128 223/182/128 222/180/128
f 215/224/129 224/184/129 223/182/129
f 214/223/130 225/186/130 224/184/130
f 213/222/131 226/188/131 225/186/131
f 212/221/132 227/190/132 226/188/132
f 211/220/133 228/192/133 227/190/133
f 210/219/134 229/194/134 228/192/134
f 209/218/135 230/196/135 229/194/135
f 208/217/136 231/198/136 230/196/136
f 207/216/137 232/200/137 231/198/137
f 206/215/138 233/202/138 232/200/138
f 206/215/139 234/204/139 233/202/139
f 205/214/140 235/206/140 234/204/140
f 204/213/141 236/208/141 235/206/141
f 203/212/142 237/210/142 236/208/142
f 201/87/143 238/210/143 237/210/143
f 200/209/144 239/208/144 238/210/144
f 199/207/145 240/206/145 239/208/145
f 198/205/146 241/204/146 240/206/146
f 197/203/147 242/202/147 241/204/147
f 196/201/148 243/200/148 242/202/148
f 195/199/149 244/198/149 243/200/149
f 194/197/150 245/196/150 244/198/150
f 193/195/151 246/194/151 245/196/151
f 191/193/152 247/192/152 246/194/152
f 190/191/153 248/190/153 247/192/153
f 189/189/154 249/188/154 248/190/154
f 188/187/155 250/186/155 249/188/155
f 187/185/156 251/184/156 250/186/156
f 186/183/157 252/182/157 251/184/157
f 185/181/158 253/180/158 252/182/158
f 184/178/159 254/227/159 253/180/159
f 184/178/160 255/179/160 254/227/160
f 292/107/161 256/106/161 293/229/161
f 256/106/161 257/109/161 293/229/161
f 257/109/161 258/111/161 327/230/161
f 258/111/161 259/113/161 326/231/161
f 259/113/161 260/115/161 325/232/161
f 260/115/161 261/117/161 324/233/161
f 261/117/161 262/119/161 323/234/161
f 262/119/161 263/121/161 322/235/161
f 263/121/161 264/123/161 321/236/161
f 264/123/161 265/125/161 320/237/161
f 265/125/161 266/127/161 319/238/161
f 266/127/161 267/129/161 318/239/161
f 267/129/161 268/131/161 317/240/161
f 268/131/161 269/133/161 316/241/161
f 269/133/161 270/135/161 315/242/161
f 270/135/161 271/137/161 314/243/161
f 271/137/161 272/138/161 313/244/161
f 272/138/161 273/140/161 312/245/161
f 273/140/161 274/142/161 311/246/161
f 274/142/161 275/144/161 310/247/161
f 275/144/161 276/146/161 310/247/161
f 276/146/161 277/148/161 309/248/161
f 277/148/161 278/150/161 308/249/161
f 278/150/161 279/152/161 307/250/161
f 279/152/161 280/154/161 306/251/161
f 280/154/161 281/156/161 305/252/161
f 281/156/161 282/158/161 304/253/161
f 282/158/161 283/160/161 303/254/161
f 283/160/161 284/162/161 302/255/161
f 284/162/161 285/164/161 301/256/161
f 285/164/161 286/166/161 300/257/161
f 286/166/161 287/168/161 299/258/161
f 287/168/161 288/170/161 298/259/161
f 288/170/161 289/172/161 297/260/161
f 289/172/161 290/173/161 296/261/161
f 290/173/161 291/175/161 295/262/161
f 291/175/161 292/107/161 294/263/161
f 327/230/161 293/229/161 257/109/161
f 293/229/161 294/263/161 292/107/161
f 294/263/161 295/262/161 291/175/161
f 295/262/161 296/261/161 290/173/161
f 296/261/161 297/260/161 289/172/161
f 297/260/161 298/259/161 288/170/161
f 298/259/161 299/258/161 287/168/161
f 299/258/161 300/257/161 286/166/161
f 300/257/161 301/256/161 285/164/161
f 301/256/161 302/255/161 284/162/161
f 302/255/161 303/254/161 283/160/161
f 303/254/161 304/253/161 282/158/161
f 304/253/161 305/252/161 281/156/161
f 305/252/161 306/251/161 280/154/161
f 306/251/161 307/250/161 279/152/161
f 307/250/161 308/249/161 278/150/161
f 308/249/161 309/248/161 277/148/161
f 309/248/161 310/247/161 276/146/161
f 310/247/161 311/246/161 274/142/161
f 311/246/161 312/245/161 273/140/161
f 312/245/161 313/244/161 272/138/161
f 313/244/161 314/243/161 271/137/161
f 314/243/161 315/242/161 270/135/161
f 315/242/161 316/241/161 269/133/161
f 316/241/161 317/240/161 268/131/161
f 317/240/161 318/239/161 267/129/161
f 318/239/161 319/238/161 266/127/161
f 319/238/161 320/237/161 265/125/161
f 320/237/161 321/236/161 264/123/161
f 321/236/161 322/235/161 263/121/161
f 322/235/161 323/234/161 262/119/161
f 323/234/161 324/233/161 261/117/161
f 324/233/161 325/232/161 260/115/161
f 325/232/161 326/231/161 259/113/161
f 326/231/161 327/230/161 258/111/161
f 399/229/162 328/109/162 364/106/162
f 398/230/162 329/111/162 328/109/162
f 397/231/162 330/113/162 329/111/162
f 396/232/162 331/115/162 330/113/162
f 395/233/162 332/117/162 331/115/162
f 394/234/162 333/119/162 332/117/162
f 393/235/162 334/121/162 333/119/162
f 392/236/162 335/123/162 334/121/162
f 391/237/162 336/125/162 335/123/162
f 390/238/162 337/127/162 336/125/162
f 389/239/162 338/129/162 337/127/162
f 388/240/162 339/131/162 338/129/162
f 387/241/162 340/133/162 339/131/162
f 386/242/162 341/135/162 340/133/162
f 385/243/162 342/137/162 341/135/162
f 384/244/162 343/138/162 342/137/162
f 383/245/162 344/140/162 343/138/162
f 382/246/162 345/142/162 344/140/162
f 381/247/162 346/144/162 345/142/162
f 381/247/162 347/146/162 346/144/162
f 380/248/162 348/148/162 347/146/162
f 379/249/162 349/150/162 348/148/162
f 378/250/162 350/152/162 349/150/162
f 377/251/162 351/154/162 350/152/162
f 376/252/162 352/156/162 351/154/162
f 375/253/162 353/158/162 352/156/162
f 374/254/162 354/160/162 353/158/162
f 373/255/162 355/162/162 354/160/162
f 372/256/162 356/164/162 355/162/162
f 371/257/162 357/166/162 356/164/162
f 370/258/162 358/168/162 357/166/162
f 369/259/162 359/170/162 358/168/162
f 368/260/162 360/172/162 359/170/162
f 367/261/162 361/173/162 360/172/162
f 366/262/162 362/175/162 361/173/162
f 365/263/162 363/107/162 362/175/162
f 399/229/162 364/106/162 363/107/162
f 363/107/162 365/263/162 399/229/162
f 362/175/162 366/262/162 365/263/162
f 361/173/162 367/261/162 366/262/162
f 360/172/162 368/260/162 367/261/162
f 359/170/162 369/259/162 368/260/162
f 358/168/162 370/258/162 369/259/162
f 357/166/162 371/257/162 370/258/162
f 356/164/162 372/256/162 371/257/162
f 355/162/162 373/255/162 372/256/162
f 354/160/162 374/254/162 373/255/162
f 353/158/162 375/253/162 374/254/162
f 352/156/162 376/252/162 375/253/162
f 351/154/162 377/251/162 376/252/162
f 350/152/162 378/250/162 377/251/162
f 349/150/162 379/249/162 378/250/162
f 348/148/162 380/248/162 379/249/162
f 347/146/162 381/247/162 380/248/162
f 345/142/162 382/246/162 381/247/162
f 344/140/162 383/245/162 382/246/162
f 343/138/162 384/244/162 383/245/162
f 342/137/162 385/243/162 384/244/162
f 341/135/162 386/242/162 385/243/162
f 340/133/162 387/241/162 386/242/162
f 339/131/162 388/240/162 387/241/162
f 338/129/162 389/239/162 388/240/162
f 337/127/162 390/238/162 389/239/162
f 336/125/162 391/237/162 390/238/162
f 335/123/162 392/236/162 391/237/162
f 334/121/162 393/235/162 392/236/162
f 333/119/162 394/234/162 393/235/162
f 332/117/162 395/233/162 394/234/162
f 331/115/162 396/232/162 395/233/162
f 330/113/162 397/231/162 396/232/162
f 329/111/162 398/230/162 397/231/162
f 328/109/162 399/229/162 398/230/162
f 474/264/163 400/54/163 438/265/163
f 400/54/164 401/266/164 437/267/164
f 401/266/165 402/268/165 436/269/165
f 402/268/166 403/270/166 435/271/166
f 403/270/167 404/272/167 434/273/167
f 404/272/168 405/274/168 433/275/168
f 405/274/169 406/276/169 432/277/169
f 406/276/170 407/278/170 431/279/170
f 407/278/171 408/280/171 430/281/171
f 408/280/172 409/2/172 429/282/172
f 409/2/173 410/283/173 428/284/173
f 410/283/174 411/285/174 427/286/174
f 411/285/175 412/287/175 426/288/175
f 412/287/176 413/289/176 425/290/176
f 413/289/177 414/291/177 424/292/177
f 414/291/178 415/293/178 423/294/178
f 415/293/179 416/295/179 422/296/179
f 416/295/180 417/297/180 421/298/180
f 417/297/181 418/106/181 419/106/181
f 419/106/182 420/299/182 417/297/182
f 420/299/183 421/298/183 417/297/183
f 421/298/184 422/296/184 416/295/184
f 422/296/185 423/294/185 415/293/185
f 423/294/186 424/292/186 414/291/186
f 424/292/187 425/290/187 413/289/187
f 425/290/188 426/288/188 412/287/188
f 426/288/189 427/286/189 411/285/189
f 427/286/190 428/284/190 410/283/190
f 428/284/191 429/282/191 409/2/191
f 429/282/192 430/281/192 408/280/192
f 430/281/193 431/279/193 407/278/193
f 431/279/194 432/277/194 406/276/194
f 432/277/195 433/275/195 405/274/195
f 433/275/196 434/273/196 404/272/196
f 434/273/197 435/271/197 403/270/197
f 435/271/198 436/269/198 402/268/198
f 436/269/199 437/267/199 401/266/199
f 437/267/200 438/265/200 400/54/200
f 438/265/201 439/300/201 474/264/201
f 439/300/202 440/301/202 473/302/202
f 440/301/203 441/303/203 472/304/203
f 441/303/204 442/305/204 471/306/204
f 442/305/205 443/307/205 470/308/205
f 443/307/206 444/309/206 469/310/206
f 444/309/207 445/311/207 468/312/207
f 445/311/208 446/313/208 467/314/208
f 446/313/209 447/315/209 466/87/209
f 447/315/210 448/316/210 465/317/210
f 448/316/211 449/318/211 464/319/211
f 449/318/212 450/320/212 463/321/212
f 450/320/213 451/322/213 462/323/213
f 451/322/214 452/324/214 461/325/214
f 452/324/215 453/326/215 460/327/215
f 453/326/216 454/328/216 459/329/216
f 454/328/217 455/330/217 458/331/217
f 455/330/218 456/106/218 458/331/218
f 456/106/219 457/106/219 458/331/219
f 458/331/220 459/329/220 454/328/220
f 459/329/221 460/327/221 453/326/221
f 460/327/222 461/325/222 452/324/222
f 461/325/223 462/323/223 451/322/223
f 462/323/224 463/321/224 450/320/224
f 463/321/225 464/319/225 449/318/225
f 464/319/226 465/317/226 448/316/226
f 465/317/227 466/87/227 447/315/227
f 466/87/228 467/314/228 446/313/228
f 467/314/229 468/312/229 445/311/229
f 468/312/230 469/310/230 444/309/230
f 469/310/231 470/308/231 443/307/231
f 470/308/232 471/306/232 442/305/232
f 471/306/233 472/304/233 441/303/233
f 472/304/234 473/302/234 440/301/234
f 473/302/235 474/264/235 439/300/235
f 588/2/236 475/332/236 476/333/236
f 476/333/237 477/334/237 587/335/237
f 477/334/238 478/336/238 586/337/238
f 478/336/239 479/338/239 585/339/239
f 479/338/240 480/340/240 584/341/240
f 480/340/241 481/342/241 582/343/241
f 481/342/242 482/344/242 581/345/242
f 482/344/243 483/346/243 580/347/243
f 483/346/244 484/54/244 579/348/244
f 484/54/245 485/349/245 503/350/245
f 485/349/246 486/351/246 502/352/246
f 486/351/247 487/353/247 501/354/247
f 487/353/248 488/355/248 500/356/248
f 488/355/249 489/357/249 498/358/249
f 489/357/250 490/359/250 497/360/250
f 490/359/251 491/361/251 496/362/251
f 491/361/252 492/363/252 495/364/252
f 492/363/236 493/365/236 494/87/236
f 494/87/253 495/364/253 492/363/253
f 495/364/254 496/362/254 491/361/254
f 496/362/255 497/360/255 490/359/255
f 497/360/256 498/358/256 489/357/256
f 498/358/257 499/366/257 488/355/257
f 500/356/258 501/354/258 487/353/258
f 501/354/259 502/352/259 486/351/259
f 502/352/260 503/350/260 485/349/260
f 503/350/261 504/367/261 484/54/261
f 504/367/262 505/368/262 577/369/262
f 505/368/263 506/370/263 576/371/263
f 506/370/264 507/372/264 575/373/264
f 507/372/265 508/374/265 574/375/265
f 508/374/266 509/376/266 573/377/266
f 509/376/267 510/378/267 572/379/267
f 510/378/268 511/380/268 571/381/268
f 511/380/269 512/382/269 570/383/269
f 512/382/270 513/384/270 569/385/270
f 513/384/271 514/386/271 568/387/271
f 514/386/272 515/388/272 567/389/272
f 515/388/273 516/390/273 566/391/273
f 516/390/274 517/392/274 565/393/274
f 517/392/275 518/394/275 564/395/275
f 518/394/276 519/396/276 563/397/276
f 519/396/277 520/398/277 562/399/277
f 520/398/278 521/400/278 561/401/278
f 521/400/279 522/402/279 541/106/279
f 522/402/280 523/403/280 540/404/280
f 523/403/281 524/405/281 539/406/281
f 524/405/282 525/407/282 538/408/282
f 525/407/283 526/409/283 537/410/283
f 526/409/284 527/411/284 536/412/284
f 527/411/285 528/413/285 535/414/285
f 529/415/286 530/416/286 534/417/286
f 530/416/287 531/87/287 533/418/287
f 531/87/288 532/365/288 533/418/288
f 533/418/289 534/417/289 530/416/289
f 534/417/290 535/414/290 528/413/290
f 535/414/291 536/412/291 527/411/291
f 536/412/292 537/410/292 526/409/292
f 537/410/293 538/408/293 525/407/293
f 538/408/294 539/406/294 524/405/294
f 539/406/295 540/404/295 523/403/295
f 540/404/296 541/106/296 522/402/296
f 541/106/297 542/419/297 560/420/297
f 542/419/298 543/421/298 559/422/298
f 543/421/299 544/423/299 558/424/299
f 544/423/300 545/425/300 557/426/300
f 545/425/301 546/427/301 556/428/301
f 546/427/302 547/429/302 555/430/302
f 547/429/303 548/431/303 554/432/303
f 548/431/304 549/433/304 552/434/304
f 549/433/288 550/332/288 551/2/288
f 551/2/305 552/434/305 549/433/305
f 552/434/306 553/435/306 548/431/306
f 554/432/307 555/430/307 547/429/307
f 555/430/308 556/428/308 546/427/308
f 556/428/309 557/426/309 545/425/309
f 557/426/310 558/424/310 544/423/310
f 558/424/311 559/422/311 543/421/311
f 559/422/312 560/420/312 542/419/312
f 560/420/313 561/401/313 541/106/313
f 561/401/278 562/399/278 520/398/278
f 562/399/277 563/397/277 519/396/277
f 563/397/276 564/395/276 518/394/276
f 564/395/275 565/393/275 517/392/275
f 565/393/274 566/391/274 516/390/274
f 566/391/273 567/389/273 515/388/273
f 567/389/272 568/387/272 514/386/272
f 568/387/271 569/385/271 513/384/271
f 569/385/270 570/383/270 512/382/270
f 570/383/269 571/381/269 511/380/269
f 571/381/268 572/379/268 510/378/268
f 572/379/267 573/377/267 509/376/267
f 573/377/266 574/375/266 508/374/266
f 574/375/265 575/373/265 507/372/265
f 575/373/264 576/371/264 506/370/264
f 576/371/263 577/369/263 505/368/263
f 577/369/262 578/436/262 504/367/262
f 578/436/314 579/348/314 484/54/314
f 579/348/315 580/347/315 483/346/315
f 580/347/316 581/345/316 482/344/316
f 581/345/317 582/343/317 481/342/317
f 583/437/318 584/341/318 480/340/318
f 584/341/319 585/339/319 479/338/319
f 585/339/320 586/337/320 478/336/320
f 586/337/321 587/335/321 477/334/321
f 587/335/322 588/2/322 476/333/322
f 480/340/323 582/343/323 583/437/323
f 500/356/324 488/355/324 499/366/324
f 484/54/325 504/367/325 578/436/325
f 561/401/326 521/400/326 541/106/326
f 534/417/327 528/413/327 529/415/327
f 548/431/328 553/435/328 554/432/328
