# Blender 4.0.2
# www.blender.org
mtllib 4Way.mtl
o Shape_IndexedFaceSet
v 0.040000 0.028090 -0.044816
v 0.040000 0.026872 -0.049494
v 0.040000 0.024881 -0.053899
v 0.040000 0.022174 -0.057904
v 0.040000 0.018829 -0.061394
v 0.040000 0.014943 -0.064269
v 0.040000 0.010626 -0.066445
v 0.040000 0.006004 -0.067860
v 0.040000 0.001210 -0.068474
v 0.040000 -0.003620 -0.068269
v 0.040000 -0.008345 -0.067251
v 0.040000 -0.012831 -0.065448
v 0.040000 -0.016947 -0.062914
v 0.040000 -0.020576 -0.059720
v 0.040000 -0.023612 -0.055959
v 0.040000 -0.025970 -0.051739
v 0.040000 -0.027580 -0.047181
v 0.040000 -0.028397 -0.042417
v 0.040000 -0.028397 -0.037583
v 0.040000 -0.027580 -0.032819
v 0.040000 -0.025970 -0.028261
v 0.040000 -0.023612 -0.024041
v 0.040000 -0.020576 -0.020280
v 0.040000 -0.016947 -0.017086
v 0.040000 -0.012831 -0.014552
v 0.040000 -0.008345 -0.012749
v 0.040000 -0.003620 -0.011731
v 0.040000 0.001210 -0.011526
v 0.040000 0.006004 -0.012140
v 0.040000 0.010626 -0.013555
v 0.040000 0.014943 -0.015731
v 0.040000 0.018829 -0.018606
v 0.040000 0.022174 -0.022096
v 0.040000 0.024881 -0.026101
v 0.040000 0.026872 -0.030506
v 0.040000 0.028090 -0.035183
v 0.040000 0.028500 -0.040000
v 0.040000 -0.004464 -0.015402
v 0.040000 -0.008784 -0.016594
v 0.040000 -0.012822 -0.018539
v 0.040000 -0.016448 -0.021173
v 0.040000 -0.019546 -0.024413
v 0.040000 -0.022015 -0.028153
v 0.040000 -0.023776 -0.032275
v 0.040000 -0.024774 -0.036644
v 0.040000 -0.024975 -0.041122
v 0.040000 -0.024373 -0.045563
v 0.040000 -0.022988 -0.049826
v 0.040000 -0.020864 -0.053772
v 0.040000 -0.018070 -0.057277
v 0.040000 -0.014695 -0.060225
v 0.040000 -0.010847 -0.062524
v 0.040000 -0.006651 -0.064099
v 0.040000 -0.002241 -0.064899
v 0.040000 0.002241 -0.064899
v 0.040000 0.006651 -0.064099
v 0.040000 0.010847 -0.062524
v 0.040000 0.014695 -0.060225
v 0.040000 0.018070 -0.057277
v 0.040000 0.020864 -0.053772
v 0.040000 0.022988 -0.049826
v 0.040000 0.024373 -0.045563
v 0.040000 0.024975 -0.041122
v 0.040000 0.024774 -0.036644
v 0.040000 0.023776 -0.032275
v 0.040000 0.022015 -0.028153
v 0.040000 0.019546 -0.024413
v 0.040000 0.016449 -0.021173
v 0.040000 0.012823 -0.018539
v 0.040000 0.008784 -0.016594
v 0.040000 0.004464 -0.015402
v 0.040000 0.000000 -0.015000
v -0.040000 0.028500 -0.040000
v -0.040000 0.028090 -0.044816
v -0.040000 0.026872 -0.049494
v -0.040000 0.024881 -0.053899
v -0.040000 0.022174 -0.057904
v -0.040000 0.018829 -0.061394
v -0.040000 0.014943 -0.064269
v -0.040000 0.010626 -0.066445
v -0.040000 0.006004 -0.067860
v -0.040000 0.001210 -0.068474
v -0.040000 -0.003620 -0.068269
v -0.040000 -0.008345 -0.067251
v -0.040000 -0.012831 -0.065448
v -0.040000 -0.016947 -0.062914
v -0.040000 -0.020576 -0.059720
v -0.040000 -0.023612 -0.055959
v -0.040000 -0.025970 -0.051739
v -0.040000 -0.027580 -0.047181
v -0.040000 -0.028397 -0.042417
v -0.040000 -0.028397 -0.037583
v -0.040000 -0.027580 -0.032819
v -0.040000 -0.025970 -0.028261
v -0.040000 -0.023612 -0.024041
v -0.040000 -0.020576 -0.020280
v -0.040000 -0.016947 -0.017086
v -0.040000 -0.012831 -0.014552
v -0.040000 -0.008345 -0.012749
v -0.040000 -0.003620 -0.011731
v -0.040000 0.001210 -0.011526
v -0.040000 0.006004 -0.012140
v -0.040000 0.010626 -0.013555
v -0.040000 0.014943 -0.015731
v -0.040000 0.018829 -0.018606
v -0.040000 0.022174 -0.022096
v -0.040000 0.024881 -0.026101
v -0.040000 0.026872 -0.030505
v -0.040000 0.028090 -0.035183
v -0.040000 0.000000 -0.015000
v -0.040000 -0.004464 -0.015402
v -0.040000 -0.008784 -0.016594
v -0.040000 -0.012822 -0.018539
v -0.040000 -0.016448 -0.021173
v -0.040000 -0.019546 -0.024413
v -0.040000 -0.022015 -0.028153
v -0.040000 -0.023776 -0.032275
v -0.040000 -0.024774 -0.036644
v -0.040000 -0.024975 -0.041122
v -0.040000 -0.024373 -0.045563
v -0.040000 -0.022988 -0.049826
v -0.040000 -0.020864 -0.053772
v -0.040000 -0.018070 -0.057277
v -0.040000 -0.014695 -0.060225
v -0.040000 -0.010847 -0.062524
v -0.040000 -0.006651 -0.064099
v -0.040000 -0.002241 -0.064899
v -0.040000 0.002241 -0.064899
v -0.040000 0.006651 -0.064099
v -0.040000 0.010847 -0.062524
v -0.040000 0.014695 -0.060225
v -0.040000 0.018070 -0.057277
v -0.040000 0.020864 -0.053772
v -0.040000 0.022988 -0.049826
v -0.040000 0.024373 -0.045563
v -0.040000 0.024975 -0.041122
v -0.040000 0.024774 -0.036644
v -0.040000 0.023776 -0.032275
v -0.040000 0.022015 -0.028153
v -0.040000 0.019546 -0.024413
v -0.040000 0.016449 -0.021173
v -0.040000 0.012823 -0.018539
v -0.040000 0.008784 -0.016594
v -0.040000 0.004464 -0.015402
v -0.003155 -0.024800 -0.043155
v -0.007851 -0.023735 -0.047851
v -0.012238 -0.021800 -0.052238
v -0.016151 -0.019083 -0.056151
v -0.019449 -0.015708 -0.059449
v -0.022028 -0.011822 -0.062028
v -0.023820 -0.007590 -0.063820
v -0.024798 -0.003175 -0.064798
v -0.024966 0.001312 -0.064966
v -0.024310 0.005832 -0.064310
v -0.022815 0.010223 -0.062814
v -0.020498 0.014312 -0.060498
v -0.017422 0.017930 -0.057422
v -0.013687 0.020921 -0.053687
v -0.009427 0.023154 -0.049427
v -0.004805 0.024534 -0.044805
v -0.000000 0.025000 -0.040000
v 0.001778 0.024937 -0.041778
v 0.006530 0.024132 -0.046530
v 0.011023 0.022439 -0.051023
v 0.015087 0.019934 -0.055087
v 0.018574 0.016734 -0.058574
v 0.021367 0.012978 -0.061367
v 0.023389 0.008828 -0.063389
v 0.024601 0.004449 -0.064601
v 0.025000 0.000000 -0.065000
v 0.025000 0.000000 -0.080000
v 0.024598 0.004464 -0.080000
v 0.023406 0.008784 -0.080000
v 0.021461 0.012823 -0.080000
v 0.018827 0.016449 -0.080000
v 0.015587 0.019546 -0.080000
v 0.011847 0.022015 -0.080000
v 0.007725 0.023776 -0.080000
v 0.003356 0.024774 -0.080000
v -0.001122 0.024975 -0.080000
v -0.005563 0.024373 -0.080000
v -0.009826 0.022988 -0.080000
v -0.013772 0.020864 -0.080000
v -0.017277 0.018070 -0.080000
v -0.020225 0.014695 -0.080000
v -0.022524 0.010847 -0.080000
v -0.024099 0.006651 -0.080000
v -0.024899 0.002241 -0.080000
v -0.024899 -0.002241 -0.080000
v -0.024099 -0.006651 -0.080000
v -0.022524 -0.010847 -0.080000
v -0.020225 -0.014695 -0.080000
v -0.017277 -0.018070 -0.080000
v -0.013772 -0.020864 -0.080000
v -0.009826 -0.022988 -0.080000
v -0.005563 -0.024373 -0.080000
v -0.001122 -0.024975 -0.080000
v 0.003356 -0.024774 -0.080000
v 0.007725 -0.023776 -0.080000
v 0.011847 -0.022015 -0.080000
v 0.015587 -0.019546 -0.080000
v 0.018827 -0.016448 -0.080000
v 0.021461 -0.012822 -0.080000
v 0.023406 -0.008784 -0.080000
v 0.024598 -0.004464 -0.080000
v 0.025000 0.000000 -0.080000
v 0.025000 0.000000 -0.065000
v 0.024966 -0.001312 -0.064966
v 0.024310 -0.005832 -0.064310
v 0.022814 -0.010222 -0.062814
v 0.020498 -0.014312 -0.060498
v 0.017422 -0.017930 -0.057422
v 0.013687 -0.020921 -0.053687
v 0.009427 -0.023154 -0.049428
v 0.004805 -0.024534 -0.044806
v -0.000000 -0.025000 -0.040000
v -0.004805 0.024534 -0.035194
v -0.009427 0.023154 -0.030572
v -0.013687 0.020921 -0.026313
v -0.017422 0.017930 -0.022578
v -0.020498 0.014312 -0.019502
v -0.022815 0.010223 -0.017185
v -0.024310 0.005832 -0.015690
v -0.024966 0.001312 -0.015034
v -0.025000 0.000000 -0.015000
v -0.024601 -0.004449 -0.015399
v -0.023389 -0.008828 -0.016610
v -0.021368 -0.012978 -0.018632
v -0.018574 -0.016733 -0.021426
v -0.015087 -0.019934 -0.024913
v -0.011023 -0.022438 -0.028977
v -0.006530 -0.024132 -0.033470
v -0.001778 -0.024937 -0.038222
v -0.000000 -0.025000 -0.040000
v 0.004805 -0.024534 -0.035195
v 0.009427 -0.023154 -0.030573
v 0.013687 -0.020921 -0.026313
v 0.017422 -0.017930 -0.022578
v 0.020498 -0.014312 -0.019502
v 0.022814 -0.010222 -0.017185
v 0.024310 -0.005832 -0.015690
v 0.024966 -0.001312 -0.015034
v 0.025000 0.000000 -0.015000
v 0.025000 -0.000000 -0.000000
v 0.024598 -0.004464 -0.000000
v 0.023406 -0.008784 -0.000000
v 0.021461 -0.012823 -0.000000
v 0.018827 -0.016448 -0.000000
v 0.015587 -0.019546 -0.000000
v 0.011847 -0.022015 -0.000000
v 0.007725 -0.023776 -0.000000
v 0.003356 -0.024774 -0.000000
v -0.001122 -0.024975 -0.000000
v -0.005563 -0.024373 -0.000000
v -0.009826 -0.022988 -0.000000
v -0.013772 -0.020864 -0.000000
v -0.017277 -0.018070 0.000000
v -0.020225 -0.014695 0.000000
v -0.022524 -0.010847 0.000000
v -0.024099 -0.006651 0.000000
v -0.024899 -0.002241 0.000000
v -0.024899 0.002241 0.000000
v -0.024099 0.006651 0.000000
v -0.022524 0.010847 0.000000
v -0.020225 0.014695 0.000000
v -0.017277 0.018070 0.000000
v -0.013772 0.020864 0.000000
v -0.009826 0.022988 0.000000
v -0.005563 0.024373 0.000000
v -0.001122 0.024975 0.000000
v 0.003356 0.024774 0.000000
v 0.007725 0.023776 0.000000
v 0.011847 0.022015 0.000000
v 0.015587 0.019546 0.000000
v 0.018827 0.016448 -0.000000
v 0.021461 0.012823 -0.000000
v 0.023406 0.008784 -0.000000
v 0.024598 0.004464 -0.000000
v 0.025000 -0.000000 -0.000000
v 0.025000 0.000000 -0.015000
v 0.024601 0.004449 -0.015399
v 0.023389 0.008828 -0.016611
v 0.021367 0.012978 -0.018632
v 0.018574 0.016734 -0.021426
v 0.015087 0.019934 -0.024913
v 0.011023 0.022439 -0.028977
v 0.006530 0.024132 -0.033470
v 0.001778 0.024937 -0.038222
v -0.000000 0.025000 -0.040000
v 0.024601 0.004449 -0.064601
v 0.023389 0.008828 -0.063389
v 0.021367 0.012978 -0.061367
v 0.018574 0.016734 -0.058574
v 0.015087 0.019934 -0.055087
v 0.011023 0.022439 -0.051023
v 0.006530 0.024132 -0.046530
v 0.001778 0.024937 -0.041778
v -0.000000 0.025000 -0.040000
v 0.001778 0.024937 -0.038222
v 0.006530 0.024132 -0.033470
v 0.011023 0.022439 -0.028977
v 0.015087 0.019934 -0.024913
v 0.018574 0.016734 -0.021426
v 0.021367 0.012978 -0.018632
v 0.023389 0.008828 -0.016611
v 0.024601 0.004449 -0.015399
v 0.025000 0.000000 -0.015000
v 0.040000 0.000000 -0.015000
v 0.040000 0.004464 -0.015402
v 0.040000 0.008784 -0.016594
v 0.040000 0.012823 -0.018539
v 0.040000 0.016449 -0.021173
v 0.040000 0.019546 -0.024413
v 0.040000 0.022015 -0.028153
v 0.040000 0.023776 -0.032275
v 0.040000 0.024774 -0.036644
v 0.040000 0.024975 -0.041122
v 0.040000 0.024373 -0.045563
v 0.040000 0.022988 -0.049826
v 0.040000 0.020864 -0.053772
v 0.040000 0.018070 -0.057277
v 0.040000 0.014695 -0.060225
v 0.040000 0.010847 -0.062524
v 0.040000 0.006651 -0.064099
v 0.040000 0.002241 -0.064899
v 0.040000 -0.002241 -0.064899
v 0.040000 -0.006651 -0.064099
v 0.040000 -0.010847 -0.062524
v 0.040000 -0.014695 -0.060225
v 0.040000 -0.018070 -0.057277
v 0.040000 -0.020864 -0.053772
v 0.040000 -0.022988 -0.049826
v 0.040000 -0.024373 -0.045563
v 0.040000 -0.024975 -0.041122
v 0.040000 -0.024774 -0.036644
v 0.040000 -0.023776 -0.032275
v 0.040000 -0.022015 -0.028153
v 0.040000 -0.019546 -0.024413
v 0.040000 -0.016448 -0.021173
v 0.040000 -0.012822 -0.018539
v 0.040000 -0.008784 -0.016594
v 0.040000 -0.004464 -0.015402
v 0.040000 0.000000 -0.015000
v 0.025000 0.000000 -0.015000
v 0.024966 -0.001312 -0.015034
v 0.024310 -0.005832 -0.015690
v 0.022814 -0.010222 -0.017185
v 0.020498 -0.014312 -0.019502
v 0.017422 -0.017930 -0.022578
v 0.013687 -0.020921 -0.026313
v 0.009427 -0.023154 -0.030573
v 0.004805 -0.024534 -0.035195
v -0.000000 -0.025000 -0.040000
v 0.004805 -0.024534 -0.044806
v 0.009427 -0.023154 -0.049428
v 0.013687 -0.020921 -0.053687
v 0.017422 -0.017930 -0.057422
v 0.020498 -0.014312 -0.060498
v 0.022814 -0.010222 -0.062814
v 0.024310 -0.005832 -0.064310
v 0.024966 -0.001312 -0.064966
v 0.025000 0.000000 -0.065000
v -0.040000 0.000000 -0.015000
v -0.040000 -0.004464 -0.015402
v -0.040000 -0.008784 -0.016594
v -0.040000 -0.012822 -0.018539
v -0.040000 -0.016448 -0.021173
v -0.040000 -0.019546 -0.024413
v -0.040000 -0.022015 -0.028153
v -0.040000 -0.023776 -0.032275
v -0.040000 -0.024774 -0.036644
v -0.040000 -0.024975 -0.041122
v -0.040000 -0.024373 -0.045563
v -0.040000 -0.022988 -0.049826
v -0.040000 -0.020864 -0.053772
v -0.040000 -0.018070 -0.057277
v -0.040000 -0.014695 -0.060225
v -0.040000 -0.010847 -0.062524
v -0.040000 -0.006651 -0.064099
v -0.040000 -0.002241 -0.064899
v -0.040000 0.002241 -0.064899
v -0.040000 0.006651 -0.064099
v -0.040000 0.010847 -0.062524
v -0.040000 0.014695 -0.060225
v -0.040000 0.018070 -0.057277
v -0.040000 0.020864 -0.053772
v -0.040000 0.022988 -0.049826
v -0.040000 0.024373 -0.045563
v -0.040000 0.024975 -0.041122
v -0.040000 0.024774 -0.036644
v -0.040000 0.023776 -0.032275
v -0.040000 0.022015 -0.028153
v -0.040000 0.019546 -0.024413
v -0.040000 0.016449 -0.021173
v -0.040000 0.012823 -0.018539
v -0.040000 0.008784 -0.016594
v -0.040000 0.004464 -0.015402
v -0.040000 0.000000 -0.015000
v -0.025000 0.000000 -0.015000
v -0.024966 0.001312 -0.015034
v -0.024310 0.005832 -0.015690
v -0.022815 0.010223 -0.017185
v -0.020498 0.014312 -0.019502
v -0.017422 0.017930 -0.022578
v -0.013687 0.020921 -0.026313
v -0.009427 0.023154 -0.030572
v -0.004805 0.024534 -0.035194
v -0.000000 0.025000 -0.040000
v -0.004805 0.024534 -0.044805
v -0.009427 0.023154 -0.049427
v -0.013687 0.020921 -0.053687
v -0.017422 0.017930 -0.057422
v -0.020498 0.014312 -0.060498
v -0.022815 0.010223 -0.062814
v -0.024310 0.005832 -0.064310
v -0.024966 0.001312 -0.064966
v -0.024798 -0.003175 -0.064798
v -0.023820 -0.007590 -0.063820
v -0.022028 -0.011822 -0.062028
v -0.019449 -0.015708 -0.059449
v -0.016151 -0.019083 -0.056151
v -0.012238 -0.021800 -0.052238
v -0.007851 -0.023735 -0.047851
v -0.003155 -0.024800 -0.043155
v -0.000000 -0.025000 -0.040000
v -0.001778 -0.024937 -0.038222
v -0.006530 -0.024132 -0.033470
v -0.011023 -0.022438 -0.028977
v -0.015087 -0.019934 -0.024913
v -0.018574 -0.016733 -0.021426
v -0.021368 -0.012978 -0.018632
v -0.023389 -0.008828 -0.016610
v -0.024601 -0.004449 -0.015399
v -0.025000 0.000000 -0.015000
v -0.000000 0.028500 -0.040000
v 0.005189 0.028024 -0.034811
v 0.010201 0.026612 -0.029799
v 0.014861 0.024319 -0.025139
v 0.019009 0.021235 -0.020991
v 0.022509 0.017482 -0.017491
v 0.025255 0.013208 -0.014745
v 0.027178 0.008578 -0.012822
v 0.028251 0.003762 -0.011749
v 0.028500 0.000000 -0.011500
v 0.028101 -0.004753 -0.011899
v 0.026884 -0.009460 -0.013116
v 0.024842 -0.013969 -0.015158
v 0.022002 -0.018115 -0.017998
v 0.018429 -0.021740 -0.021571
v 0.014226 -0.024695 -0.025774
v 0.009528 -0.026860 -0.030472
v 0.004493 -0.028144 -0.035507
v -0.000000 -0.028500 -0.040000
v 0.004493 -0.028144 -0.044493
v 0.009528 -0.026860 -0.049528
v 0.014226 -0.024695 -0.054226
v 0.018429 -0.021740 -0.058429
v 0.022002 -0.018115 -0.062002
v 0.024842 -0.013969 -0.064842
v 0.026884 -0.009460 -0.066884
v 0.028101 -0.004753 -0.068101
v 0.028500 0.000000 -0.068500
v 0.028251 0.003762 -0.068251
v 0.027178 0.008578 -0.067178
v 0.025255 0.013208 -0.065255
v 0.022509 0.017482 -0.062509
v 0.019009 0.021235 -0.059009
v 0.014861 0.024319 -0.054861
v 0.010201 0.026612 -0.050201
v 0.005189 0.028024 -0.045189
v -0.000000 0.028500 -0.040000
v 0.040000 0.028500 -0.040000
v 0.040000 0.028090 -0.044816
v 0.040000 0.026872 -0.049494
v 0.040000 0.024881 -0.053899
v 0.040000 0.022174 -0.057904
v 0.040000 0.018829 -0.061394
v 0.040000 0.014943 -0.064269
v 0.040000 0.010626 -0.066445
v 0.040000 0.006004 -0.067860
v 0.040000 0.001210 -0.068474
v 0.040000 -0.003620 -0.068269
v 0.040000 -0.008345 -0.067251
v 0.040000 -0.012831 -0.065448
v 0.040000 -0.016947 -0.062914
v 0.040000 -0.020576 -0.059720
v 0.040000 -0.023612 -0.055959
v 0.040000 -0.025970 -0.051739
v 0.040000 -0.027580 -0.047181
v 0.040000 -0.028397 -0.042417
v 0.040000 -0.028397 -0.037583
v 0.040000 -0.027580 -0.032819
v 0.040000 -0.025970 -0.028261
v 0.040000 -0.023612 -0.024041
v 0.040000 -0.020576 -0.020280
v 0.040000 -0.016947 -0.017086
v 0.040000 -0.012831 -0.014552
v 0.040000 -0.008345 -0.012749
v 0.040000 -0.003620 -0.011731
v 0.040000 0.001210 -0.011526
v 0.040000 0.006004 -0.012140
v 0.040000 0.010626 -0.013555
v 0.040000 0.014943 -0.015731
v 0.040000 0.018829 -0.018606
v 0.040000 0.022174 -0.022096
v 0.040000 0.024881 -0.026101
v 0.040000 0.026872 -0.030506
v 0.040000 0.028090 -0.035183
v 0.040000 0.028500 -0.040000
v -0.000000 0.028500 -0.040000
v -0.003321 0.028306 -0.043321
v -0.008408 0.027231 -0.048408
v -0.013198 0.025260 -0.053198
v -0.017526 0.022474 -0.057526
v -0.021252 0.018990 -0.061252
v -0.024266 0.014948 -0.064266
v -0.026493 0.010507 -0.066492
v -0.027897 0.005831 -0.067897
v -0.028480 0.001076 -0.068480
v -0.028251 -0.003762 -0.068251
v -0.027179 -0.008578 -0.067178
v -0.025255 -0.013208 -0.065255
v -0.022509 -0.017482 -0.062509
v -0.019009 -0.021235 -0.059009
v -0.014861 -0.024319 -0.054861
v -0.010201 -0.026612 -0.050201
v -0.005189 -0.028024 -0.045189
v -0.000000 -0.028500 -0.040000
v -0.005189 -0.028024 -0.034811
v -0.010201 -0.026612 -0.029799
v -0.014861 -0.024319 -0.025139
v -0.019009 -0.021235 -0.020991
v -0.022509 -0.017482 -0.017491
v -0.025255 -0.013208 -0.014745
v -0.027178 -0.008578 -0.012821
v -0.028251 -0.003762 -0.011749
v -0.028480 0.001076 -0.011520
v -0.027897 0.005831 -0.012103
v -0.026493 0.010507 -0.013507
v -0.024266 0.014948 -0.015734
v -0.021252 0.018990 -0.018748
v -0.017526 0.022474 -0.022474
v -0.013198 0.025260 -0.026802
v -0.008408 0.027231 -0.031592
v -0.003321 0.028306 -0.036679
v -0.000000 0.028500 -0.040000
v -0.040000 0.028500 -0.040000
v -0.040000 0.028090 -0.035183
v -0.040000 0.026872 -0.030505
v -0.040000 0.024881 -0.026101
v -0.040000 0.022174 -0.022096
v -0.040000 0.018829 -0.018606
v -0.040000 0.014943 -0.015731
v -0.040000 0.010626 -0.013555
v -0.040000 0.006004 -0.012140
v -0.040000 0.001210 -0.011526
v -0.040000 -0.003620 -0.011731
v -0.040000 -0.008345 -0.012749
v -0.040000 -0.012831 -0.014552
v -0.040000 -0.016947 -0.017086
v -0.040000 -0.020576 -0.020280
v -0.040000 -0.023612 -0.024041
v -0.040000 -0.025970 -0.028261
v -0.040000 -0.027580 -0.032819
v -0.040000 -0.028397 -0.037583
v -0.040000 -0.028397 -0.042417
v -0.040000 -0.027580 -0.047181
v -0.040000 -0.025970 -0.051739
v -0.040000 -0.023612 -0.055959
v -0.040000 -0.020576 -0.059720
v -0.040000 -0.016947 -0.062914
v -0.040000 -0.012831 -0.065448
v -0.040000 -0.008345 -0.067251
v -0.040000 -0.003620 -0.068269
v -0.040000 0.001210 -0.068474
v -0.040000 0.006004 -0.067860
v -0.040000 0.010626 -0.066445
v -0.040000 0.014943 -0.064269
v -0.040000 0.018829 -0.061394
v -0.040000 0.022174 -0.057904
v -0.040000 0.024881 -0.053899
v -0.040000 0.026872 -0.049494
v -0.040000 0.028090 -0.044816
v -0.040000 0.028500 -0.040000
v 0.028500 0.000000 -0.080000
v 0.028090 -0.004817 -0.080000
v 0.026872 -0.009494 -0.080000
v 0.024881 -0.013899 -0.080000
v 0.022174 -0.017904 -0.080000
v 0.018829 -0.021394 -0.080000
v 0.014943 -0.024269 -0.080000
v 0.010626 -0.026445 -0.080000
v 0.006004 -0.027860 -0.080000
v 0.001210 -0.028474 -0.080000
v -0.003620 -0.028269 -0.080000
v -0.008345 -0.027251 -0.080000
v -0.012831 -0.025448 -0.080000
v -0.016947 -0.022914 -0.080000
v -0.020576 -0.019720 -0.080000
v -0.023613 -0.015959 -0.080000
v -0.025970 -0.011739 -0.080000
v -0.027580 -0.007181 -0.080000
v -0.028397 -0.002417 -0.080000
v -0.028397 0.002417 -0.080000
v -0.027580 0.007181 -0.080000
v -0.025970 0.011739 -0.080000
v -0.023613 0.015959 -0.080000
v -0.020576 0.019720 -0.080000
v -0.016947 0.022914 -0.080000
v -0.012831 0.025448 -0.080000
v -0.008345 0.027251 -0.080000
v -0.003620 0.028269 -0.080000
v 0.001210 0.028474 -0.080000
v 0.006004 0.027860 -0.080000
v 0.010626 0.026445 -0.080000
v 0.014943 0.024269 -0.080000
v 0.018829 0.021394 -0.080000
v 0.022174 0.017904 -0.080000
v 0.024881 0.013899 -0.080000
v 0.026872 0.009494 -0.080000
v 0.028090 0.004817 -0.080000
v 0.025000 0.000000 -0.080000
v 0.024598 0.004464 -0.080000
v 0.023406 0.008784 -0.080000
v 0.021461 0.012823 -0.080000
v 0.018827 0.016449 -0.080000
v 0.015587 0.019546 -0.080000
v 0.011847 0.022015 -0.080000
v 0.007725 0.023776 -0.080000
v 0.003356 0.024774 -0.080000
v -0.001122 0.024975 -0.080000
v -0.005563 0.024373 -0.080000
v -0.009826 0.022988 -0.080000
v -0.013772 0.020864 -0.080000
v -0.017277 0.018070 -0.080000
v -0.020225 0.014695 -0.080000
v -0.022524 0.010847 -0.080000
v -0.024099 0.006651 -0.080000
v -0.024899 0.002241 -0.080000
v -0.024899 -0.002241 -0.080000
v -0.024099 -0.006651 -0.080000
v -0.022524 -0.010847 -0.080000
v -0.020225 -0.014695 -0.080000
v -0.017277 -0.018070 -0.080000
v -0.013772 -0.020864 -0.080000
v -0.009826 -0.022988 -0.080000
v -0.005563 -0.024373 -0.080000
v -0.001122 -0.024975 -0.080000
v 0.003356 -0.024774 -0.080000
v 0.007725 -0.023776 -0.080000
v 0.011847 -0.022015 -0.080000
v 0.015587 -0.019546 -0.080000
v 0.018827 -0.016448 -0.080000
v 0.021461 -0.012822 -0.080000
v 0.023406 -0.008784 -0.080000
v 0.024598 -0.004464 -0.080000
v 0.028090 -0.004817 -0.000000
v 0.026872 -0.009494 -0.000000
v 0.024881 -0.013899 -0.000000
v 0.022174 -0.017904 -0.000000
v 0.018829 -0.021394 -0.000000
v 0.014943 -0.024269 -0.000000
v 0.010626 -0.026445 -0.000000
v 0.006004 -0.027860 -0.000000
v 0.001210 -0.028474 -0.000000
v -0.003620 -0.028269 -0.000000
v -0.008345 -0.027251 -0.000000
v -0.012831 -0.025448 -0.000000
v -0.016947 -0.022914 -0.000000
v -0.020576 -0.019720 0.000000
v -0.023612 -0.015959 0.000000
v -0.025970 -0.011739 0.000000
v -0.027580 -0.007181 0.000000
v -0.028397 -0.002417 0.000000
v -0.028397 0.002417 0.000000
v -0.027580 0.007181 0.000000
v -0.025970 0.011739 0.000000
v -0.023612 0.015959 0.000000
v -0.020576 0.019720 0.000000
v -0.016947 0.022914 0.000000
v -0.012831 0.025448 0.000000
v -0.008345 0.027251 0.000000
v -0.003620 0.028269 0.000000
v 0.001210 0.028474 0.000000
v 0.006004 0.027860 0.000000
v 0.010626 0.026445 0.000000
v 0.014943 0.024269 0.000000
v 0.018829 0.021394 -0.000000
v 0.022174 0.017904 -0.000000
v 0.024881 0.013899 -0.000000
v 0.026872 0.009494 -0.000000
v 0.028090 0.004817 -0.000000
v 0.028500 0.000000 -0.000000
v 0.024598 0.004464 -0.000000
v 0.023406 0.008784 -0.000000
v 0.021461 0.012823 -0.000000
v 0.018827 0.016448 -0.000000
v 0.015587 0.019546 0.000000
v 0.011847 0.022015 0.000000
v 0.007725 0.023776 0.000000
v 0.003356 0.024774 0.000000
v -0.001122 0.024975 0.000000
v -0.005563 0.024373 0.000000
v -0.009826 0.022988 0.000000
v -0.013772 0.020864 0.000000
v -0.017277 0.018070 0.000000
v -0.020225 0.014695 0.000000
v -0.022524 0.010847 0.000000
v -0.024099 0.006651 0.000000
v -0.024899 0.002241 0.000000
v -0.024899 -0.002241 0.000000
v -0.024099 -0.006651 0.000000
v -0.022524 -0.010847 0.000000
v -0.020225 -0.014695 0.000000
v -0.017277 -0.018070 0.000000
v -0.013772 -0.020864 -0.000000
v -0.009826 -0.022988 -0.000000
v -0.005563 -0.024373 -0.000000
v -0.001122 -0.024975 -0.000000
v 0.003356 -0.024774 -0.000000
v 0.007725 -0.023776 -0.000000
v 0.011847 -0.022015 -0.000000
v 0.015587 -0.019546 -0.000000
v 0.018827 -0.016448 -0.000000
v 0.021461 -0.012823 -0.000000
v 0.023406 -0.008784 -0.000000
v 0.024598 -0.004464 -0.000000
v 0.025000 -0.000000 -0.000000
v 0.028500 0.000000 -0.011500
v 0.028251 0.003762 -0.011749
v 0.027178 0.008578 -0.012822
v 0.025255 0.013208 -0.014745
v 0.022509 0.017482 -0.017491
v 0.019009 0.021235 -0.020991
v 0.014861 0.024319 -0.025139
v 0.010201 0.026612 -0.029799
v 0.005189 0.028024 -0.034811
v -0.000000 0.028500 -0.040000
v -0.003321 0.028306 -0.036679
v -0.008408 0.027231 -0.031592
v -0.013198 0.025260 -0.026802
v -0.017526 0.022474 -0.022474
v -0.021252 0.018990 -0.018748
v -0.024266 0.014948 -0.015734
v -0.026493 0.010507 -0.013507
v -0.027897 0.005831 -0.012103
v -0.028480 0.001076 -0.011520
v -0.028251 -0.003762 -0.011749
v -0.027178 -0.008578 -0.012821
v -0.025255 -0.013208 -0.014745
v -0.022509 -0.017482 -0.017491
v -0.019009 -0.021235 -0.020991
v -0.014861 -0.024319 -0.025139
v -0.010201 -0.026612 -0.029799
v -0.005189 -0.028024 -0.034811
v -0.000000 -0.028500 -0.040000
v 0.004493 -0.028144 -0.035507
v 0.009528 -0.026860 -0.030472
v 0.014226 -0.024695 -0.025774
v 0.018429 -0.021740 -0.021571
v 0.022002 -0.018115 -0.017998
v 0.024842 -0.013969 -0.015158
v 0.026884 -0.009460 -0.013116
v 0.028101 -0.004753 -0.011899
v 0.028500 0.000000 -0.011500
v 0.028500 0.000000 -0.000000
v 0.028090 -0.004817 -0.000000
v 0.026872 -0.009494 -0.000000
v 0.024881 -0.013899 -0.000000
v 0.022174 -0.017904 -0.000000
v 0.018829 -0.021394 -0.000000
v 0.014943 -0.024269 -0.000000
v 0.010626 -0.026445 -0.000000
v 0.006004 -0.027860 -0.000000
v 0.001210 -0.028474 -0.000000
v -0.003620 -0.028269 -0.000000
v -0.008345 -0.027251 -0.000000
v -0.012831 -0.025448 -0.000000
v -0.016947 -0.022914 -0.000000
v -0.020576 -0.019720 0.000000
v -0.023612 -0.015959 0.000000
v -0.025970 -0.011739 0.000000
v -0.027580 -0.007181 0.000000
v -0.028397 -0.002417 0.000000
v -0.028397 0.002417 0.000000
v -0.027580 0.007181 0.000000
v -0.025970 0.011739 0.000000
v -0.023612 0.015959 0.000000
v -0.020576 0.019720 0.000000
v -0.016947 0.022914 0.000000
v -0.012831 0.025448 0.000000
v -0.008345 0.027251 0.000000
v -0.003620 0.028269 0.000000
v 0.001210 0.028474 0.000000
v 0.006004 0.027860 0.000000
v 0.010626 0.026445 0.000000
v 0.014943 0.024269 0.000000
v 0.018829 0.021394 -0.000000
v 0.022174 0.017904 -0.000000
v 0.024881 0.013899 -0.000000
v 0.026872 0.009494 -0.000000
v 0.028090 0.004817 -0.000000
v 0.028500 0.000000 -0.000000
v -0.000000 -0.028500 -0.040000
v -0.005189 -0.028024 -0.045189
v -0.010201 -0.026612 -0.050201
v -0.014861 -0.024319 -0.054861
v -0.019009 -0.021235 -0.059009
v -0.022509 -0.017482 -0.062509
v -0.025255 -0.013208 -0.065255
v -0.027179 -0.008578 -0.067178
v -0.028251 -0.003762 -0.068251
v -0.028480 0.001076 -0.068480
v -0.027897 0.005831 -0.067897
v -0.026493 0.010507 -0.066492
v -0.024266 0.014948 -0.064266
v -0.021252 0.018990 -0.061252
v -0.017526 0.022474 -0.057526
v -0.013198 0.025260 -0.053198
v -0.008408 0.027231 -0.048408
v -0.003321 0.028306 -0.043321
v -0.000000 0.028500 -0.040000
v 0.005189 0.028024 -0.045189
v 0.010201 0.026612 -0.050201
v 0.014861 0.024319 -0.054861
v 0.019009 0.021235 -0.059009
v 0.022509 0.017482 -0.062509
v 0.025255 0.013208 -0.065255
v 0.027178 0.008578 -0.067178
v 0.028251 0.003762 -0.068251
v 0.028500 0.000000 -0.068500
v 0.028500 0.000000 -0.080000
v 0.028090 0.004817 -0.080000
v 0.026872 0.009494 -0.080000
v 0.024881 0.013899 -0.080000
v 0.022174 0.017904 -0.080000
v 0.018829 0.021394 -0.080000
v 0.014943 0.024269 -0.080000
v 0.010626 0.026445 -0.080000
v 0.006004 0.027860 -0.080000
v 0.001210 0.028474 -0.080000
v -0.003620 0.028269 -0.080000
v -0.008345 0.027251 -0.080000
v -0.012831 0.025448 -0.080000
v -0.016947 0.022914 -0.080000
v -0.020576 0.019720 -0.080000
v -0.023613 0.015959 -0.080000
v -0.025970 0.011739 -0.080000
v -0.027580 0.007181 -0.080000
v -0.028397 0.002417 -0.080000
v -0.028397 -0.002417 -0.080000
v -0.027580 -0.007181 -0.080000
v -0.025970 -0.011739 -0.080000
v -0.023613 -0.015959 -0.080000
v -0.020576 -0.019720 -0.080000
v -0.016947 -0.022914 -0.080000
v -0.012831 -0.025448 -0.080000
v -0.008345 -0.027251 -0.080000
v -0.003620 -0.028269 -0.080000
v 0.001210 -0.028474 -0.080000
v 0.006004 -0.027860 -0.080000
v 0.010626 -0.026445 -0.080000
v 0.014943 -0.024269 -0.080000
v 0.018829 -0.021394 -0.080000
v 0.022174 -0.017904 -0.080000
v 0.024881 -0.013899 -0.080000
v 0.026872 -0.009494 -0.080000
v 0.028090 -0.004817 -0.080000
v 0.028500 0.000000 -0.080000
v 0.028500 0.000000 -0.068500
v 0.028101 -0.004753 -0.068101
v 0.026884 -0.009460 -0.066884
v 0.024842 -0.013969 -0.064842
v 0.022002 -0.018115 -0.062002
v 0.018429 -0.021740 -0.058429
v 0.014226 -0.024695 -0.054226
v 0.009528 -0.026860 -0.049528
v 0.004493 -0.028144 -0.044493
vn 1.0000 -0.0000 -0.0000
vn -1.0000 -0.0000 -0.0000
vn 0.0644 0.9979 -0.0012
vn 0.2243 0.9745 -0.0034
vn 0.4068 0.9135 -0.0038
vn 0.5731 0.8195 -0.0041
vn 0.7173 0.6968 -0.0043
vn 0.8345 0.5510 -0.0044
vn 0.9215 0.3883 -0.0044
vn 0.9766 0.2152 -0.0044
vn 0.9993 0.0373 -0.0044
vn 0.9897 -0.1428 -0.0045
vn 0.9470 -0.3212 -0.0040
vn 0.8709 -0.4915 -0.0032
vn 0.7627 -0.6468 -0.0020
vn 0.6255 -0.7802 -0.0008
vn 0.4654 -0.8851 -0.0013
vn 0.2877 -0.9577 -0.0018
vn 0.0987 -0.9951 -0.0021
vn -0.0340 -0.9994 0.0016
vn -0.1696 -0.9855 -0.0028
vn -0.3551 -0.9348 -0.0027
vn -0.5264 -0.8502 -0.0025
vn -0.6774 -0.7356 -0.0021
vn -0.8029 -0.5961 -0.0015
vn -0.8991 -0.4376 -0.0009
vn -0.9638 -0.2666 -0.0003
vn -0.9960 -0.0893 -0.0000
vn -0.9960 -0.0896 0.0001
vn -0.9640 -0.2660 -0.0001
vn -0.9010 -0.4339 0.0002
vn -0.8090 -0.5878 0.0008
vn -0.6911 -0.7228 0.0015
vn -0.5509 -0.8346 0.0020
vn -0.3930 -0.9195 0.0023
vn -0.2225 -0.9749 0.0024
vn -0.0449 -0.9990 0.0024
vn 0.1342 -0.9909 0.0016
vn 0.3090 -0.9511 0.0011
vn 0.4739 -0.8806 0.0003
vn 0.6235 -0.7818 -0.0004
vn 0.7531 -0.6579 0.0008
vn 0.8584 -0.5129 0.0019
vn 0.9362 -0.3514 0.0030
vn 0.9839 -0.1786 0.0039
vn 1.0000 -0.0000 0.0044
vn 0.9839 0.1786 0.0044
vn 0.9362 0.3514 0.0042
vn 0.8584 0.5129 0.0041
vn 0.7531 0.6579 0.0040
vn 0.6235 0.7818 0.0038
vn 0.4739 0.8806 0.0035
vn 0.3090 0.9511 0.0031
vn 0.1342 0.9909 0.0027
vn -0.0449 0.9990 0.0019
vn -0.2225 0.9749 0.0025
vn -0.3930 0.9195 0.0032
vn -0.5509 0.8346 0.0038
vn -0.6910 0.7228 0.0044
vn -0.8090 0.5878 0.0049
vn -0.9010 0.4339 0.0053
vn -0.9640 0.2660 0.0055
vn -0.9960 0.0896 0.0055
vn -0.9997 0.0262 -0.0000
vn -0.9898 0.1427 -0.0057
vn -0.9472 0.3207 -0.0058
vn -0.8714 0.4905 -0.0056
vn -0.7640 0.6452 -0.0052
vn -0.6279 0.7783 -0.0047
vn -0.4676 0.8839 -0.0041
vn -0.2891 0.9573 -0.0034
vn -0.0992 0.9951 -0.0027
vn 0.0987 -0.9951 0.0021
vn 0.2877 -0.9577 0.0018
vn 0.4654 -0.8851 0.0013
vn 0.6255 -0.7802 0.0008
vn 0.7627 -0.6468 0.0020
vn 0.8709 -0.4915 0.0032
vn 0.9470 -0.3212 0.0040
vn 0.9897 -0.1428 0.0045
vn 0.9997 -0.0263 -0.0028
vn 0.9960 0.0887 0.0066
vn 0.9642 0.2650 0.0065
vn 0.9001 0.4356 0.0061
vn 0.8043 0.5942 0.0054
vn 0.6788 0.7343 0.0047
vn 0.5274 0.8496 0.0039
vn 0.3554 0.9347 0.0030
vn 0.1691 0.9856 0.0022
vn 0.0360 0.9994 0.0004
vn -0.0992 0.9951 0.0027
vn -0.2891 0.9573 0.0034
vn -0.4676 0.8839 0.0041
vn -0.6279 0.7783 0.0047
vn -0.7640 0.6452 0.0052
vn -0.8714 0.4905 0.0056
vn -0.9472 0.3207 0.0058
vn -0.9898 0.1427 0.0057
vn -0.9960 0.0896 -0.0055
vn -0.9640 0.2660 -0.0055
vn -0.9010 0.4339 -0.0053
vn -0.8090 0.5878 -0.0049
vn -0.6910 0.7228 -0.0044
vn -0.5509 0.8346 -0.0038
vn -0.3930 0.9195 -0.0032
vn -0.2225 0.9749 -0.0025
vn -0.0449 0.9990 -0.0019
vn 0.1342 0.9909 -0.0013
vn 0.3090 0.9511 -0.0021
vn 0.4739 0.8806 -0.0029
vn 0.6235 0.7818 -0.0037
vn 0.7531 0.6579 -0.0046
vn 0.8584 0.5129 -0.0054
vn 0.9362 0.3514 -0.0061
vn 0.9839 0.1786 -0.0065
vn 1.0000 -0.0000 -0.0067
vn 0.9839 -0.1786 -0.0039
vn 0.9362 -0.3514 -0.0030
vn 0.8584 -0.5129 -0.0019
vn 0.7531 -0.6579 -0.0008
vn 0.6235 -0.7818 0.0004
vn 0.4739 -0.8806 -0.0003
vn 0.3090 -0.9511 -0.0011
vn 0.1342 -0.9909 -0.0016
vn -0.0449 -0.9990 -0.0024
vn -0.2225 -0.9749 -0.0024
vn -0.3930 -0.9195 -0.0023
vn -0.5509 -0.8346 -0.0020
vn -0.6911 -0.7228 -0.0015
vn -0.8090 -0.5878 -0.0008
vn -0.9010 -0.4339 -0.0002
vn -0.9640 -0.2660 0.0001
vn -0.9960 -0.0896 -0.0001
vn -0.9638 -0.2666 0.0003
vn -0.8991 -0.4376 0.0009
vn -0.8029 -0.5961 0.0015
vn -0.6774 -0.7356 0.0021
vn -0.5264 -0.8502 0.0025
vn -0.3551 -0.9348 0.0027
vn -0.1696 -0.9855 0.0028
vn -0.0340 -0.9994 -0.0016
vn 0.0066 -0.0887 0.9960
vn 0.0065 -0.2650 0.9642
vn 0.0061 -0.4356 0.9001
vn 0.0054 -0.5942 0.8043
vn 0.0047 -0.7343 0.6788
vn 0.0039 -0.8496 0.5274
vn 0.0030 -0.9347 0.3554
vn 0.0022 -0.9856 0.1691
vn 0.0004 -0.9994 0.0360
vn -0.0016 -0.9994 -0.0340
vn 0.0028 -0.9855 -0.1696
vn 0.0027 -0.9348 -0.3551
vn 0.0025 -0.8502 -0.5264
vn 0.0021 -0.7356 -0.6774
vn 0.0015 -0.5961 -0.8029
vn 0.0009 -0.4376 -0.8991
vn 0.0003 -0.2666 -0.9638
vn -0.0000 -0.0893 -0.9960
vn -0.0001 -0.0896 -0.9960
vn 0.0001 -0.2660 -0.9640
vn -0.0002 -0.4339 -0.9010
vn -0.0008 -0.5878 -0.8090
vn -0.0015 -0.7228 -0.6911
vn -0.0020 -0.8346 -0.5509
vn -0.0023 -0.9195 -0.3930
vn -0.0024 -0.9749 -0.2225
vn -0.0024 -0.9990 -0.0449
vn -0.0013 -0.9909 0.1342
vn -0.0021 -0.9511 0.3090
vn -0.0029 -0.8806 0.4739
vn -0.0037 -0.7818 0.6235
vn -0.0046 -0.6579 0.7531
vn -0.0054 -0.5129 0.8584
vn -0.0061 -0.3514 0.9362
vn -0.0065 -0.1786 0.9839
vn -0.0067 -0.0000 1.0000
vn -0.0039 0.1786 0.9839
vn -0.0030 0.3514 0.9362
vn -0.0019 0.5129 0.8584
vn -0.0008 0.6579 0.7531
vn 0.0004 0.7818 0.6235
vn -0.0003 0.8806 0.4739
vn -0.0011 0.9511 0.3090
vn -0.0016 0.9909 0.1342
vn -0.0019 0.9990 -0.0449
vn -0.0025 0.9749 -0.2225
vn -0.0032 0.9195 -0.3930
vn -0.0038 0.8346 -0.5509
vn -0.0044 0.7228 -0.6910
vn -0.0049 0.5878 -0.8090
vn -0.0053 0.4339 -0.9010
vn -0.0055 0.2660 -0.9640
vn -0.0055 0.0896 -0.9960
vn -0.0000 0.0262 -0.9997
vn 0.0057 0.1427 -0.9898
vn 0.0058 0.3207 -0.9472
vn 0.0056 0.4905 -0.8714
vn 0.0052 0.6452 -0.7640
vn 0.0047 0.7783 -0.6279
vn 0.0041 0.8839 -0.4676
vn 0.0034 0.9573 -0.2891
vn 0.0027 0.9951 -0.0992
vn 0.0021 0.9951 0.0987
vn 0.0018 0.9577 0.2877
vn 0.0013 0.8851 0.4654
vn 0.0008 0.7802 0.6255
vn 0.0020 0.6468 0.7627
vn 0.0032 0.4915 0.8709
vn 0.0040 0.3212 0.9470
vn 0.0045 0.1428 0.9897
vn -0.0028 0.0263 0.9997
vn -0.0000 0.0893 -0.9960
vn 0.0001 0.0896 -0.9960
vn -0.0001 0.2660 -0.9640
vn 0.0002 0.4339 -0.9010
vn 0.0008 0.5878 -0.8090
vn 0.0015 0.7228 -0.6911
vn 0.0020 0.8346 -0.5509
vn 0.0023 0.9195 -0.3930
vn 0.0024 0.9749 -0.2225
vn 0.0024 0.9990 -0.0449
vn 0.0027 0.9909 0.1342
vn 0.0031 0.9511 0.3090
vn 0.0035 0.8806 0.4739
vn 0.0038 0.7818 0.6235
vn 0.0040 0.6579 0.7531
vn 0.0041 0.5129 0.8584
vn 0.0042 0.3514 0.9362
vn 0.0044 0.1786 0.9839
vn 0.0044 -0.0000 1.0000
vn 0.0039 -0.1786 0.9839
vn 0.0030 -0.3514 0.9362
vn 0.0019 -0.5129 0.8584
vn 0.0008 -0.6579 0.7531
vn -0.0004 -0.7818 0.6235
vn 0.0003 -0.8806 0.4739
vn 0.0011 -0.9511 0.3090
vn 0.0016 -0.9909 0.1342
vn 0.0019 -0.9990 -0.0449
vn 0.0025 -0.9749 -0.2225
vn 0.0032 -0.9195 -0.3930
vn 0.0038 -0.8346 -0.5509
vn 0.0044 -0.7228 -0.6910
vn 0.0049 -0.5878 -0.8090
vn 0.0053 -0.4339 -0.9010
vn 0.0055 -0.2660 -0.9640
vn 0.0055 -0.0896 -0.9960
vn -0.0000 -0.0262 -0.9997
vn -0.0057 -0.1427 -0.9898
vn -0.0058 -0.3207 -0.9472
vn -0.0056 -0.4905 -0.8714
vn -0.0052 -0.6452 -0.7640
vn -0.0047 -0.7783 -0.6279
vn -0.0041 -0.8839 -0.4676
vn -0.0034 -0.9573 -0.2891
vn -0.0027 -0.9951 -0.0992
vn -0.0021 -0.9951 0.0987
vn -0.0018 -0.9577 0.2877
vn -0.0013 -0.8851 0.4654
vn -0.0008 -0.7802 0.6255
vn -0.0020 -0.6468 0.7627
vn -0.0032 -0.4915 0.8709
vn -0.0040 -0.3212 0.9470
vn -0.0045 -0.1428 0.9897
vn -0.0044 0.0373 0.9993
vn -0.0044 0.2152 0.9765
vn -0.0044 0.3883 0.9215
vn -0.0044 0.5510 0.8345
vn -0.0043 0.6968 0.7173
vn -0.0041 0.8195 0.5731
vn -0.0038 0.9135 0.4068
vn -0.0034 0.9745 0.2243
vn -0.0012 0.9979 0.0644
vn 0.0016 0.9994 -0.0340
vn -0.0028 0.9855 -0.1696
vn -0.0027 0.9348 -0.3551
vn -0.0025 0.8502 -0.5264
vn -0.0021 0.7356 -0.6774
vn -0.0015 0.5961 -0.8029
vn -0.0009 0.4376 -0.8991
vn -0.0003 0.2666 -0.9638
vn -0.0000 0.9964 0.0848
vn -0.0009 0.9957 0.0923
vn -0.0019 0.9620 0.2729
vn -0.0031 0.8960 0.4440
vn -0.0043 0.8004 0.5994
vn -0.0056 0.6792 0.7339
vn -0.0068 0.5374 0.8433
vn -0.0079 0.3809 0.9246
vn -0.0087 0.2155 0.9765
vn -0.0047 0.0658 0.9978
vn -0.0062 -0.0832 0.9965
vn -0.0059 -0.2488 0.9685
vn -0.0057 -0.4105 0.9119
vn -0.0054 -0.5626 0.8267
vn -0.0050 -0.6995 0.7146
vn -0.0046 -0.8158 0.5783
vn -0.0041 -0.9067 0.4219
vn -0.0036 -0.9681 0.2504
vn -0.0024 -0.9967 0.0814
vn -0.0024 -0.9967 -0.0814
vn -0.0036 -0.9681 -0.2504
vn -0.0041 -0.9067 -0.4219
vn -0.0046 -0.8158 -0.5783
vn -0.0050 -0.6995 -0.7146
vn -0.0054 -0.5626 -0.8267
vn -0.0057 -0.4105 -0.9119
vn -0.0059 -0.2488 -0.9685
vn -0.0062 -0.0832 -0.9965
vn -0.0047 0.0658 -0.9978
vn -0.0087 0.2155 -0.9765
vn -0.0079 0.3809 -0.9246
vn -0.0068 0.5374 -0.8433
vn -0.0056 0.6792 -0.7339
vn -0.0043 0.8004 -0.5994
vn -0.0031 0.8960 -0.4440
vn -0.0019 0.9620 -0.2729
vn -0.0009 0.9957 -0.0923
vn -0.0000 0.9964 -0.0848
vn 0.0009 0.9677 -0.2520
vn 0.0018 0.9112 -0.4119
vn 0.0029 0.8285 -0.5600
vn 0.0041 0.7219 -0.6919
vn 0.0054 0.5946 -0.8040
vn 0.0067 0.4502 -0.8929
vn 0.0079 0.2928 -0.9561
vn 0.0087 0.1270 -0.9919
vn 0.0067 -0.0424 -0.9991
vn 0.0062 -0.2107 -0.9775
vn 0.0057 -0.3729 -0.9279
vn 0.0053 -0.5243 -0.8515
vn 0.0049 -0.6607 -0.7507
vn 0.0044 -0.7780 -0.6282
vn 0.0039 -0.8730 -0.4877
vn 0.0034 -0.9429 -0.3331
vn 0.0028 -0.9856 -0.1690
vn 0.0026 -1.0000 -0.0000
vn 0.0028 -0.9856 0.1690
vn 0.0034 -0.9429 0.3331
vn 0.0039 -0.8730 0.4877
vn 0.0044 -0.7780 0.6282
vn 0.0049 -0.6607 0.7507
vn 0.0053 -0.5243 0.8515
vn 0.0057 -0.3729 0.9279
vn 0.0062 -0.2107 0.9775
vn 0.0067 -0.0424 0.9991
vn 0.0087 0.1270 0.9919
vn 0.0079 0.2928 0.9561
vn 0.0067 0.4502 0.8929
vn 0.0054 0.5946 0.8040
vn 0.0041 0.7219 0.6919
vn 0.0029 0.8285 0.5600
vn 0.0018 0.9112 0.4119
vn 0.0009 0.9677 0.2520
vn -0.0000 0.9983 -0.0584
vn 0.0028 0.9778 -0.2093
vn 0.0027 0.9238 -0.3829
vn 0.0023 0.8398 -0.5429
vn 0.0018 0.7295 -0.6840
vn 0.0010 0.5973 -0.8020
vn 0.0008 0.4480 -0.8941
vn 0.0012 0.2874 -0.9578
vn 0.0009 0.1215 -0.9926
vn 0.0010 -0.0473 -0.9989
vn 0.0016 -0.2170 -0.9762
vn 0.0023 -0.3828 -0.9238
vn 0.0030 -0.5392 -0.8422
vn 0.0035 -0.6803 -0.7330
vn 0.0037 -0.8007 -0.5990
vn 0.0036 -0.8958 -0.4444
vn 0.0035 -0.9616 -0.2744
vn 0.0032 -0.9955 -0.0945
vn 0.0032 -0.9955 0.0945
vn 0.0035 -0.9616 0.2744
vn 0.0036 -0.8958 0.4444
vn 0.0037 -0.8007 0.5990
vn 0.0035 -0.6803 0.7330
vn 0.0030 -0.5392 0.8422
vn 0.0023 -0.3828 0.9238
vn 0.0016 -0.2170 0.9762
vn 0.0010 -0.0473 0.9989
vn 0.0009 0.1215 0.9926
vn 0.0012 0.2874 0.9578
vn 0.0008 0.4480 0.8941
vn 0.0010 0.5973 0.8020
vn 0.0018 0.7295 0.6840
vn 0.0023 0.8398 0.5429
vn 0.0027 0.9238 0.3829
vn 0.0028 0.9778 0.2093
vn -0.0000 0.9983 0.0584
vn -0.0024 0.9964 0.0848
vn -0.0023 0.9677 0.2520
vn -0.0021 0.9112 0.4119
vn -0.0016 0.8285 0.5600
vn -0.0009 0.7220 0.6919
vn -0.0000 0.5946 0.8040
vn -0.0000 0.4502 0.8929
vn -0.0008 0.2928 0.9562
vn -0.0012 0.1270 0.9919
vn -0.0010 -0.0424 0.9991
vn -0.0010 -0.2107 0.9776
vn -0.0015 -0.3729 0.9279
vn -0.0022 -0.5243 0.8515
vn -0.0028 -0.6607 0.7507
vn -0.0031 -0.7780 0.6282
vn -0.0032 -0.8730 0.4877
vn -0.0031 -0.9429 0.3331
vn -0.0029 -0.9856 0.1690
vn -0.0026 -1.0000 -0.0000
vn -0.0029 -0.9856 -0.1690
vn -0.0031 -0.9429 -0.3331
vn -0.0032 -0.8730 -0.4877
vn -0.0031 -0.7780 -0.6282
vn -0.0028 -0.6607 -0.7507
vn -0.0022 -0.5243 -0.8515
vn -0.0015 -0.3729 -0.9279
vn -0.0010 -0.2107 -0.9776
vn -0.0010 -0.0424 -0.9991
vn -0.0012 0.1270 -0.9919
vn -0.0008 0.2928 -0.9562
vn -0.0000 0.4502 -0.8929
vn -0.0000 0.5946 -0.8040
vn -0.0009 0.7220 -0.6919
vn -0.0016 0.8285 -0.5600
vn -0.0021 0.9112 -0.4119
vn -0.0023 0.9677 -0.2520
vn -0.0024 0.9964 -0.0848
vn -0.0000 -0.0000 -1.0000
vn -0.0000 -0.0000 1.0000
vn 0.9978 0.0661 -0.0000
vn 0.9764 0.2160 -0.0060
vn 0.9242 0.3818 -0.0052
vn 0.8424 0.5388 -0.0039
vn 0.7325 0.6808 -0.0024
vn 0.5973 0.8020 -0.0010
vn 0.4426 0.8967 -0.0013
vn 0.2729 0.9620 -0.0019
vn 0.0936 0.9956 -0.0022
vn -0.0579 0.9983 0.0005
vn -0.2073 0.9783 -0.0007
vn -0.3817 0.9243 -0.0013
vn -0.5429 0.8398 -0.0024
vn -0.6850 0.7285 -0.0037
vn -0.8034 0.5954 -0.0049
vn -0.8951 0.4458 -0.0060
vn -0.9583 0.2858 -0.0068
vn -0.9927 0.1207 -0.0070
vn -0.9989 -0.0470 -0.0071
vn -0.9764 -0.2158 -0.0071
vn -0.9245 -0.3812 -0.0069
vn -0.8432 -0.5376 -0.0064
vn -0.7340 -0.6791 -0.0058
vn -0.5999 -0.8000 -0.0051
vn -0.4450 -0.8955 -0.0043
vn -0.2744 -0.9616 -0.0035
vn -0.0942 -0.9956 -0.0028
vn 0.0809 -0.9967 -0.0018
vn 0.2497 -0.9683 -0.0029
vn 0.4208 -0.9072 -0.0028
vn 0.5769 -0.8168 -0.0025
vn 0.7131 -0.7010 -0.0020
vn 0.8254 -0.5645 -0.0013
vn 0.9110 -0.4124 -0.0004
vn 0.9682 -0.2502 -0.0005
vn 0.9965 -0.0837 -0.0000
vn 0.9964 -0.0848 0.0005
vn 0.9677 -0.2520 0.0002
vn 0.9112 -0.4119 -0.0002
vn 0.8285 -0.5600 0.0004
vn 0.7220 -0.6919 0.0012
vn 0.5946 -0.8040 0.0019
vn 0.4502 -0.8929 0.0023
vn 0.2928 -0.9562 0.0025
vn 0.1270 -0.9919 0.0025
vn -0.0424 -0.9991 0.0019
vn -0.2107 -0.9776 0.0026
vn -0.3729 -0.9279 0.0033
vn -0.5243 -0.8515 0.0041
vn -0.6607 -0.7507 0.0048
vn -0.7780 -0.6282 0.0056
vn -0.8730 -0.4877 0.0062
vn -0.9429 -0.3331 0.0067
vn -0.9856 -0.1690 0.0070
vn -1.0000 -0.0000 0.0072
vn -0.9856 0.1690 0.0069
vn -0.9429 0.3331 0.0061
vn -0.8730 0.4877 0.0049
vn -0.7780 0.6282 0.0036
vn -0.6607 0.7507 0.0023
vn -0.5243 0.8515 0.0012
vn -0.3729 0.9279 0.0002
vn -0.2107 0.9776 -0.0002
vn -0.0424 0.9991 0.0019
vn 0.1270 0.9919 0.0017
vn 0.2928 0.9562 0.0012
vn 0.4502 0.8929 0.0003
vn 0.5946 0.8040 -0.0003
vn 0.7220 0.6919 0.0009
vn 0.8285 0.5600 0.0023
vn 0.9112 0.4119 0.0038
vn 0.9677 0.2520 0.0051
vn 0.9964 0.0848 0.0060
vn 0.0809 -0.9967 0.0018
vn -0.0942 -0.9956 0.0028
vn -0.2744 -0.9616 0.0035
vn -0.4450 -0.8955 0.0043
vn -0.5999 -0.8000 0.0051
vn -0.7340 -0.6791 0.0058
vn -0.8432 -0.5376 0.0064
vn -0.9245 -0.3812 0.0069
vn -0.9764 -0.2158 0.0071
vn -0.9989 -0.0470 0.0071
vn -0.9927 0.1207 0.0070
vn -0.9583 0.2858 0.0068
vn -0.8951 0.4458 0.0060
vn -0.8034 0.5954 0.0049
vn -0.6850 0.7285 0.0037
vn -0.5429 0.8398 0.0024
vn -0.3817 0.9243 0.0013
vn -0.2073 0.9783 0.0007
vn -0.0579 0.9983 -0.0005
vn 0.0936 0.9956 0.0022
vn 0.2729 0.9620 0.0019
vn 0.4426 0.8967 0.0013
vn 0.5973 0.8020 0.0010
vn 0.7325 0.6808 0.0024
vn 0.8424 0.5388 0.0039
vn 0.9242 0.3818 0.0052
vn 0.9764 0.2160 0.0060
vn 0.9964 0.0848 -0.0060
vn 0.9677 0.2520 -0.0051
vn 0.9112 0.4119 -0.0038
vn 0.8285 0.5600 -0.0023
vn 0.7220 0.6919 -0.0009
vn 0.5946 0.8040 0.0003
vn 0.4502 0.8929 -0.0003
vn 0.2928 0.9562 -0.0012
vn 0.1270 0.9919 -0.0017
vn -0.0424 0.9991 -0.0019
vn -0.2107 0.9776 0.0002
vn -0.3729 0.9279 -0.0002
vn -0.5243 0.8515 -0.0012
vn -0.6607 0.7507 -0.0023
vn -0.7780 0.6282 -0.0036
vn -0.8730 0.4877 -0.0049
vn -0.9429 0.3331 -0.0061
vn -0.9856 0.1690 -0.0069
vn -1.0000 -0.0000 -0.0072
vn -0.9856 -0.1690 -0.0070
vn -0.9429 -0.3331 -0.0067
vn -0.8730 -0.4877 -0.0062
vn -0.7780 -0.6282 -0.0056
vn -0.6607 -0.7507 -0.0048
vn -0.5243 -0.8515 -0.0041
vn -0.3729 -0.9279 -0.0033
vn -0.2107 -0.9776 -0.0026
vn -0.0424 -0.9991 -0.0019
vn 0.1270 -0.9919 -0.0025
vn 0.2928 -0.9562 -0.0025
vn 0.4502 -0.8929 -0.0023
vn 0.5946 -0.8040 -0.0019
vn 0.7220 -0.6919 -0.0012
vn 0.8285 -0.5600 -0.0004
vn 0.9112 -0.4119 0.0002
vn 0.9677 -0.2520 -0.0002
vn 0.9964 -0.0848 -0.0005
vn 0.9682 -0.2502 0.0005
vn 0.9110 -0.4124 0.0004
vn 0.8254 -0.5645 0.0013
vn 0.7131 -0.7010 0.0020
vn 0.5769 -0.8168 0.0025
vn 0.4208 -0.9072 0.0028
vn 0.2497 -0.9683 0.0029
vt 0.519695 0.938043
vt 0.584576 0.992796
vt 0.500000 1.000000
vt 0.597685 0.927469
vt 0.666721 0.971387
vt 0.672535 0.903127
vt 0.744067 0.936392
vt 0.741839 0.865799
vt 0.814394 0.888817
vt 0.803372 0.816685
vt 0.875676 0.830031
vt 0.855152 0.757363
vt 0.926149 0.761725
vt 0.895518 0.689741
vt 0.964363 0.685862
vt 0.923173 0.615991
vt 0.989218 0.604627
vt 0.937226 0.538484
vt 1.000000 0.520356
vt 0.937226 0.459711
vt 0.996399 0.435474
vt 0.923173 0.382204
vt 0.978516 0.352422
vt 0.895518 0.308454
vt 0.946866 0.273589
vt 0.855152 0.240832
vt 0.902361 0.201245
vt 0.803372 0.181509
vt 0.846282 0.137469
vt 0.780240 0.084095
vt 0.741839 0.132396
vt 0.706137 0.042661
vt 0.672535 0.095068
vt 0.626103 0.014357
vt 0.597685 0.070726
vt 0.542442 0.000000
vt 0.519695 0.060152
vt 0.457558 0.000000
vt 0.441073 0.063687
vt 0.373897 0.014357
vt 0.364344 0.081215
vt 0.293863 0.042661
vt 0.291976 0.112174
vt 0.219760 0.084095
vt 0.226294 0.155570
vt 0.153718 0.137469
vt 0.169407 0.210006
vt 0.097639 0.201245
vt 0.123148 0.273735
vt 0.053134 0.273589
vt 0.089000 0.344708
vt 0.021484 0.352422
vt 0.068063 0.420642
vt 0.003601 0.435474
vt 0.061008 0.499097
vt 0.000000 0.520356
vt 0.068063 0.577553
vt 0.010782 0.604627
vt 0.089000 0.653487
vt 0.035637 0.685862
vt 0.123148 0.724460
vt 0.073851 0.761725
vt 0.169407 0.788189
vt 0.124324 0.830031
vt 0.185606 0.888817
vt 0.226294 0.842625
vt 0.255933 0.936392
vt 0.291976 0.886021
vt 0.333279 0.971387
vt 0.364344 0.916980
vt 0.415424 0.992796
vt 0.441073 0.934508
vt 0.000504 0.522792
vt 0.003998 0.563486
vt 0.000000 0.500344
vt 0.012536 0.611681
vt 0.025296 0.657477
vt 0.040236 0.696992
vt 0.064006 0.745277
vt 0.082714 0.775982
vt 0.118342 0.823581
vt 0.138602 0.846114
vt 0.185846 0.889594
vt 0.206108 0.905131
vt 0.263552 0.941208
vt 0.283058 0.951138
vt 0.348206 0.977074
vt 0.366982 0.982658
vt 0.436507 0.996638
vt 0.455180 0.998675
vt 0.526234 1.000000
vt 0.544820 0.998675
vt 0.616635 0.986885
vt 0.633018 0.982658
vt 0.704450 0.956948
vt 0.716942 0.951138
vt 0.786238 0.910589
vt 0.793892 0.905131
vt 0.858594 0.849024
vt 0.861398 0.846114
vt 0.918412 0.774269
vt 0.959764 0.696992
vt 0.963086 0.689024
vt 0.987464 0.611681
vt 0.990676 0.596520
vt 0.999496 0.522792
vt 1.000000 0.500344
vt 0.998734 0.464760
vt 0.995474 0.433181
vt 0.982644 0.369657
vt 0.975528 0.345729
vt 0.948770 0.279726
vt 0.940298 0.263247
vt 0.898686 0.198392
vt 0.890916 0.188386
vt 0.834670 0.128610
vt 0.828970 0.123549
vt 0.759562 0.072700
vt 0.756450 0.070825
vt 0.676558 0.032232
vt 0.675687 0.031904
vt 0.588971 0.007985
vt 0.500000 0.000000
vt 0.589278 0.008042
vt 0.917286 0.775982
vt 0.004526 0.433181
vt 0.009324 0.404169
vt 0.024472 0.345729
vt 0.036914 0.311665
vt 0.059702 0.263247
vt 0.081588 0.226420
vt 0.109084 0.188386
vt 0.141406 0.151664
vt 0.171030 0.123549
vt 0.213762 0.090100
vt 0.243550 0.070825
vt 0.295550 0.043740
vt 0.324313 0.031904
vt 0.383365 0.013803
vt 0.410722 0.008042
vt 0.473766 0.000688
vt 0.522432 0.999496
vt 0.596109 0.990676
vt 0.611260 0.987464
vt 0.688550 0.963086
vt 0.696513 0.959764
vt 0.773736 0.918412
vt 0.845532 0.861398
vt 0.848440 0.858594
vt 0.904508 0.793892
vt 0.909962 0.786238
vt 0.950484 0.716942
vt 0.956290 0.704450
vt 0.981982 0.633018
vt 0.986206 0.616635
vt 0.997988 0.544820
vt 0.999312 0.526234
vt 1.000000 0.500000
vt 0.997988 0.455180
vt 0.992020 0.411029
vt 0.981982 0.366982
vt 0.967790 0.323442
vt 0.950484 0.283058
vt 0.927350 0.240438
vt 0.904508 0.206108
vt 0.871478 0.165330
vt 0.845532 0.138602
vt 0.801744 0.101314
vt 0.775448 0.082714
vt 0.720466 0.051230
vt 0.696513 0.040236
vt 0.630598 0.017356
vt 0.611260 0.012536
vt 0.535559 0.001266
vt 0.522432 0.000504
vt 0.432883 0.004526
vt 0.403891 0.009324
vt 0.345492 0.024472
vt 0.311450 0.036914
vt 0.263066 0.059702
vt 0.226264 0.081588
vt 0.188256 0.109084
vt 0.151560 0.141406
vt 0.123464 0.171030
vt 0.090038 0.213762
vt 0.070776 0.243550
vt 0.043710 0.295550
vt 0.031882 0.324313
vt 0.013794 0.383365
vt 0.008036 0.410722
vt 0.000688 0.473766
vt 0.000000 0.500000
vt 0.775448 0.917286
vt 0.464441 0.998734
vt 0.432883 0.995474
vt 0.369402 0.982644
vt 0.345492 0.975528
vt 0.279534 0.948770
vt 0.263066 0.940298
vt 0.198256 0.898686
vt 0.188256 0.890916
vt 0.128522 0.834670
vt 0.123464 0.828970
vt 0.072650 0.759562
vt 0.070776 0.756450
vt 0.032210 0.676558
vt 0.031882 0.675687
vt 0.007980 0.588971
vt 0.008036 0.589278
vt 0.544820 0.997988
vt 0.588971 0.992020
vt 0.633018 0.981982
vt 0.676558 0.967790
vt 0.716942 0.950484
vt 0.759562 0.927350
vt 0.793892 0.904508
vt 0.834670 0.871478
vt 0.861398 0.845532
vt 0.898686 0.801744
vt 0.917286 0.775448
vt 0.948770 0.720466
vt 0.959764 0.696512
vt 0.982644 0.630598
vt 0.987464 0.611260
vt 0.998734 0.535560
vt 0.999496 0.522432
vt 0.998734 0.464440
vt 0.995474 0.432884
vt 0.982644 0.369402
vt 0.975528 0.345492
vt 0.948770 0.279534
vt 0.940298 0.263066
vt 0.898686 0.198256
vt 0.890916 0.188256
vt 0.834670 0.128522
vt 0.828970 0.123464
vt 0.759562 0.072650
vt 0.756450 0.070776
vt 0.676558 0.032210
vt 0.675687 0.031882
vt 0.588971 0.007980
vt 0.589278 0.008036
vt 0.455180 0.997988
vt 0.383365 0.986206
vt 0.366982 0.981982
vt 0.295550 0.956290
vt 0.283058 0.950484
vt 0.213762 0.909962
vt 0.206108 0.904508
vt 0.141406 0.848440
vt 0.138602 0.845532
vt 0.081588 0.773736
vt 0.082714 0.775448
vt 0.040236 0.696512
vt 0.036914 0.688550
vt 0.012536 0.611260
vt 0.009324 0.596110
vt 0.000504 0.522432
vt 0.004526 0.432884
vt 0.009324 0.403890
vt 0.024472 0.345492
vt 0.036914 0.311450
vt 0.059702 0.263066
vt 0.081588 0.226264
vt 0.109084 0.188256
vt 0.141406 0.151560
vt 0.171030 0.123464
vt 0.213762 0.090038
vt 0.243550 0.070776
vt 0.295550 0.043710
vt 0.324313 0.031882
vt 0.383365 0.013794
vt 0.410722 0.008036
vt 0.473766 0.000688
vt 0.473766 0.999312
vt 0.411029 0.007985
vt 0.323442 0.032232
vt 0.240438 0.072700
vt 0.165330 0.128610
vt 0.101314 0.198392
vt 0.051230 0.279726
vt 0.024472 0.345730
vt 0.017356 0.369656
vt 0.004526 0.433182
vt 0.001266 0.464760
vt 0.000504 0.522792
vt 0.003998 0.563486
vt 0.012536 0.611681
vt 0.025296 0.657476
vt 0.040236 0.696992
vt 0.959764 0.696992
vt 0.963086 0.689024
vt 0.987464 0.611681
vt 0.990676 0.596520
vt 0.999496 0.522792
vt 0.995474 0.433182
vt 0.990676 0.404168
vt 0.975528 0.345730
vt 0.963086 0.311664
vt 0.918412 0.226420
vt 0.858594 0.151664
vt 0.786238 0.090100
vt 0.704450 0.043740
vt 0.616635 0.013803
vt 0.526234 0.000688
vt 0.992809 0.415500
vt 0.991642 0.408958
vt 0.966872 0.321032
vt 0.971439 0.333430
vt 0.926646 0.239282
vt 0.936507 0.256153
vt 0.872539 0.166511
vt 0.889018 0.185889
vt 0.806695 0.105111
vt 0.830337 0.124663
vt 0.731712 0.056932
vt 0.762154 0.074235
vt 0.650487 0.023184
vt 0.686428 0.036056
vt 0.566004 0.004375
vt 0.605340 0.011223
vt 0.521221 0.000451
vt 0.416616 0.007002
vt 0.436491 0.004049
vt 0.334029 0.028351
vt 0.353589 0.021916
vt 0.254935 0.064175
vt 0.274898 0.053537
vt 0.182186 0.114002
vt 0.202684 0.098002
vt 0.118600 0.176682
vt 0.139023 0.154030
vt 0.066746 0.250419
vt 0.085746 0.220012
vt 0.028768 0.332846
vt 0.044386 0.294049
vt 0.006253 0.421175
vt 0.016133 0.374011
vt 0.001802 0.457596
vt 0.006253 0.578825
vt 0.001802 0.542404
vt 0.028768 0.667154
vt 0.016133 0.625989
vt 0.066746 0.749581
vt 0.044386 0.705951
vt 0.118600 0.823318
vt 0.085746 0.779988
vt 0.182186 0.885998
vt 0.139023 0.845970
vt 0.254935 0.935825
vt 0.202684 0.901998
vt 0.334029 0.971649
vt 0.274898 0.946463
vt 0.416616 0.992998
vt 0.353589 0.978084
vt 0.436491 0.995951
vt 0.566004 0.995625
vt 0.521221 0.999549
vt 0.650487 0.976816
vt 0.605340 0.988777
vt 0.731712 0.943068
vt 0.686428 0.963944
vt 0.806695 0.894889
vt 0.762154 0.925765
vt 0.872539 0.833489
vt 0.830337 0.875337
vt 0.926646 0.760718
vt 0.889018 0.814111
vt 0.966872 0.678968
vt 0.936507 0.743847
vt 0.991642 0.591042
vt 0.971439 0.666570
vt 0.992809 0.584500
vt 0.996593 0.558306
vt 0.977744 0.647617
vt 0.992809 0.584560
vt 0.943160 0.731702
vt 0.971439 0.666689
vt 0.894286 0.807691
vt 0.936507 0.744021
vt 0.833149 0.873108
vt 0.889018 0.814334
vt 0.762240 0.926016
vt 0.830337 0.875604
vt 0.684335 0.965112
vt 0.686428 0.964275
vt 0.602295 0.989773
vt 0.605340 0.989126
vt 0.518869 1.000000
vt 0.521221 0.999905
vt 0.433996 0.995978
vt 0.436491 0.996304
vt 0.349513 0.977156
vt 0.353589 0.978425
vt 0.268288 0.943384
vt 0.274898 0.946781
vt 0.193305 0.895171
vt 0.202684 0.902285
vt 0.127461 0.833727
vt 0.139023 0.846217
vt 0.073354 0.760903
vt 0.085746 0.780187
vt 0.033128 0.679096
vt 0.044386 0.706098
vt 0.008358 0.591107
vt 0.016133 0.626079
vt 0.001802 0.542434
vt 0.008358 0.408893
vt 0.001802 0.457566
vt 0.033128 0.320904
vt 0.016133 0.373921
vt 0.073354 0.239097
vt 0.044386 0.293902
vt 0.127461 0.166273
vt 0.085746 0.219813
vt 0.193305 0.104829
vt 0.139023 0.153783
vt 0.268288 0.056616
vt 0.202684 0.097715
vt 0.349513 0.022844
vt 0.274898 0.053219
vt 0.433996 0.004022
vt 0.353589 0.021575
vt 0.518869 0.000000
vt 0.436491 0.003696
vt 0.602295 0.010227
vt 0.521221 0.000095
vt 0.684335 0.034888
vt 0.605340 0.010874
vt 0.762240 0.073984
vt 0.686428 0.035725
vt 0.833149 0.126892
vt 0.830337 0.124396
vt 0.894286 0.192309
vt 0.889018 0.185666
vt 0.943160 0.268298
vt 0.936507 0.255979
vt 0.977744 0.352383
vt 0.971439 0.333311
vt 0.996593 0.441694
vt 0.992809 0.415440
vt 0.762154 0.073932
vt 0.762154 0.926068
vt 0.584577 0.007204
vt 0.500000 0.061514
vt 0.415423 0.007204
vt 0.333280 0.028613
vt 0.421615 0.068576
vt 0.255933 0.063608
vt 0.345749 0.089531
vt 0.185606 0.111183
vt 0.274841 0.123711
vt 0.124324 0.169969
vt 0.211169 0.170012
vt 0.073851 0.238275
vt 0.156782 0.226949
vt 0.035637 0.314138
vt 0.113425 0.292691
vt 0.010782 0.395373
vt 0.082494 0.365124
vt 0.000000 0.479644
vt 0.064981 0.441922
vt 0.003601 0.564526
vt 0.061450 0.520616
vt 0.021484 0.647578
vt 0.072014 0.598675
vt 0.053134 0.726411
vt 0.096334 0.673593
vt 0.097639 0.798755
vt 0.133629 0.742960
vt 0.153718 0.862531
vt 0.182698 0.804548
vt 0.219760 0.915905
vt 0.241967 0.856375
vt 0.293863 0.957339
vt 0.309528 0.896777
vt 0.373897 0.985643
vt 0.383212 0.924457
vt 0.457559 1.000000
vt 0.460649 0.938523
vt 0.542441 1.000000
vt 0.626103 0.985643
vt 0.539351 0.938523
vt 0.706137 0.957339
vt 0.616788 0.924457
vt 0.780240 0.915905
vt 0.690472 0.896777
vt 0.846282 0.862531
vt 0.758033 0.856375
vt 0.902361 0.798755
vt 0.817302 0.804548
vt 0.946866 0.726411
vt 0.866371 0.742960
vt 0.978516 0.647578
vt 0.903666 0.673593
vt 0.996399 0.564526
vt 0.927986 0.598675
vt 1.000000 0.479644
vt 0.938550 0.520616
vt 0.989218 0.395373
vt 0.935019 0.441922
vt 0.964363 0.314138
vt 0.917506 0.365124
vt 0.926149 0.238275
vt 0.886575 0.292691
vt 0.875676 0.169969
vt 0.843218 0.226949
vt 0.814394 0.111183
vt 0.788831 0.170012
vt 0.744067 0.063608
vt 0.725159 0.123711
vt 0.666720 0.028613
vt 0.654251 0.089531
vt 0.578385 0.068576
vt 0.566004 0.004377
vt 0.650487 0.023192
vt 0.584500 0.007194
vt 0.731712 0.056952
vt 0.666570 0.028572
vt 0.806695 0.105148
vt 0.743847 0.063516
vt 0.872539 0.166570
vt 0.814111 0.111022
vt 0.926646 0.239368
vt 0.875337 0.169724
vt 0.966872 0.321146
vt 0.963944 0.313684
vt 0.991642 0.409103
vt 0.988777 0.394801
vt 1.000000 0.500178
vt 0.999549 0.478950
vt 0.996593 0.558463
vt 0.995951 0.563710
vt 0.977744 0.647744
vt 0.943160 0.731797
vt 0.946463 0.725360
vt 0.894286 0.807760
vt 0.901998 0.797600
vt 0.833149 0.873153
vt 0.845970 0.861284
vt 0.762240 0.926042
vt 0.779988 0.914580
vt 0.684335 0.965124
vt 0.705951 0.955954
vt 0.602295 0.989777
vt 0.625989 0.984217
vt 0.542403 0.998554
vt 0.433996 0.995979
vt 0.457597 0.998554
vt 0.349513 0.977164
vt 0.374011 0.984217
vt 0.268288 0.943404
vt 0.294049 0.955954
vt 0.193305 0.895208
vt 0.220012 0.914580
vt 0.127461 0.833786
vt 0.154030 0.861284
vt 0.073354 0.760989
vt 0.098002 0.797600
vt 0.033128 0.679210
vt 0.053537 0.725360
vt 0.008358 0.591253
vt 0.021916 0.646642
vt 0.000000 0.500178
vt 0.004049 0.563710
vt 0.006253 0.421325
vt 0.000451 0.478950
vt 0.028768 0.332965
vt 0.011223 0.394801
vt 0.066746 0.250509
vt 0.036056 0.313684
vt 0.118600 0.176745
vt 0.074235 0.237930
vt 0.182186 0.114042
vt 0.124663 0.169724
vt 0.254935 0.064198
vt 0.185889 0.111022
vt 0.334029 0.028361
vt 0.256153 0.063516
vt 0.416616 0.007004
vt 0.415500 0.007194
vt 0.333430 0.028572
vt 0.978084 0.646642
vt 0.925765 0.237930
s 0
usemtl Shape
f 63/1/1 1/2/1 37/3/1
f 62/4/1 2/5/1 1/2/1
f 61/6/1 3/7/1 2/5/1
f 60/8/1 4/9/1 3/7/1
f 59/10/1 5/11/1 4/9/1
f 58/12/1 6/13/1 5/11/1
f 57/14/1 7/15/1 6/13/1
f 56/16/1 8/17/1 7/15/1
f 55/18/1 9/19/1 8/17/1
f 54/20/1 10/21/1 9/19/1
f 53/22/1 11/23/1 10/21/1
f 52/24/1 12/25/1 11/23/1
f 51/26/1 13/27/1 12/25/1
f 50/28/1 14/29/1 13/27/1
f 50/28/1 15/30/1 14/29/1
f 49/31/1 16/32/1 15/30/1
f 48/33/1 17/34/1 16/32/1
f 47/35/1 18/36/1 17/34/1
f 46/37/1 19/38/1 18/36/1
f 45/39/1 20/40/1 19/38/1
f 44/41/1 21/42/1 20/40/1
f 43/43/1 22/44/1 21/42/1
f 42/45/1 23/46/1 22/44/1
f 41/47/1 24/48/1 23/46/1
f 40/49/1 25/50/1 24/48/1
f 39/51/1 26/52/1 25/50/1
f 38/53/1 27/54/1 26/52/1
f 72/55/1 28/56/1 27/54/1
f 71/57/1 29/58/1 28/56/1
f 70/59/1 30/60/1 29/58/1
f 69/61/1 31/62/1 30/60/1
f 68/63/1 32/64/1 31/62/1
f 68/63/1 33/65/1 32/64/1
f 67/66/1 34/67/1 33/65/1
f 66/68/1 35/69/1 34/67/1
f 65/70/1 36/71/1 35/69/1
f 64/72/1 37/3/1 36/71/1
f 27/54/1 38/53/1 72/55/1
f 26/52/1 39/51/1 38/53/1
f 25/50/1 40/49/1 39/51/1
f 24/48/1 41/47/1 40/49/1
f 23/46/1 42/45/1 41/47/1
f 22/44/1 43/43/1 42/45/1
f 21/42/1 44/41/1 43/43/1
f 20/40/1 45/39/1 44/41/1
f 19/38/1 46/37/1 45/39/1
f 18/36/1 47/35/1 46/37/1
f 17/34/1 48/33/1 47/35/1
f 16/32/1 49/31/1 48/33/1
f 15/30/1 50/28/1 49/31/1
f 13/27/1 51/26/1 50/28/1
f 12/25/1 52/24/1 51/26/1
f 11/23/1 53/22/1 52/24/1
f 10/21/1 54/20/1 53/22/1
f 9/19/1 55/18/1 54/20/1
f 8/17/1 56/16/1 55/18/1
f 7/15/1 57/14/1 56/16/1
f 6/13/1 58/12/1 57/14/1
f 5/11/1 59/10/1 58/12/1
f 4/9/1 60/8/1 59/10/1
f 3/7/1 61/6/1 60/8/1
f 2/5/1 62/4/1 61/6/1
f 1/2/1 63/1/1 62/4/1
f 37/3/1 64/72/1 63/1/1
f 36/71/1 65/70/1 64/72/1
f 35/69/1 66/68/1 65/70/1
f 34/67/1 67/66/1 66/68/1
f 33/65/1 68/63/1 67/66/1
f 31/62/1 69/61/1 68/63/1
f 30/60/1 70/59/1 69/61/1
f 29/58/1 71/57/1 70/59/1
f 28/56/1 72/55/1 71/57/1
f 109/71/2 73/3/2 137/72/2
f 73/3/2 74/2/2 136/1/2
f 74/2/2 75/5/2 135/4/2
f 75/5/2 76/7/2 134/6/2
f 76/7/2 77/9/2 133/8/2
f 77/9/2 78/11/2 132/10/2
f 78/11/2 79/13/2 131/12/2
f 79/13/2 80/15/2 130/14/2
f 80/15/2 81/17/2 129/16/2
f 81/17/2 82/19/2 128/18/2
f 82/19/2 83/21/2 127/20/2
f 83/21/2 84/23/2 126/22/2
f 84/23/2 85/25/2 125/24/2
f 85/25/2 86/27/2 124/26/2
f 86/27/2 87/29/2 123/28/2
f 87/29/2 88/30/2 123/28/2
f 88/30/2 89/32/2 122/31/2
f 89/32/2 90/34/2 121/33/2
f 90/34/2 91/36/2 120/35/2
f 91/36/2 92/38/2 119/37/2
f 92/38/2 93/40/2 118/39/2
f 93/40/2 94/42/2 117/41/2
f 94/42/2 95/44/2 116/43/2
f 95/44/2 96/46/2 115/45/2
f 96/46/2 97/48/2 114/47/2
f 97/48/2 98/50/2 113/49/2
f 98/50/2 99/52/2 112/51/2
f 99/52/2 100/54/2 111/53/2
f 100/54/2 101/56/2 110/55/2
f 101/56/2 102/58/2 144/57/2
f 102/58/2 103/60/2 143/59/2
f 103/60/2 104/62/2 142/61/2
f 104/62/2 105/64/2 141/63/2
f 105/64/2 106/65/2 141/63/2
f 106/65/2 107/67/2 140/66/2
f 107/67/2 108/69/2 139/68/2
f 108/69/2 109/71/2 138/70/2
f 144/57/2 110/55/2 101/56/2
f 110/55/2 111/53/2 100/54/2
f 111/53/2 112/51/2 99/52/2
f 112/51/2 113/49/2 98/50/2
f 113/49/2 114/47/2 97/48/2
f 114/47/2 115/45/2 96/46/2
f 115/45/2 116/43/2 95/44/2
f 116/43/2 117/41/2 94/42/2
f 117/41/2 118/39/2 93/40/2
f 118/39/2 119/37/2 92/38/2
f 119/37/2 120/35/2 91/36/2
f 120/35/2 121/33/2 90/34/2
f 121/33/2 122/31/2 89/32/2
f 122/31/2 123/28/2 88/30/2
f 123/28/2 124/26/2 86/27/2
f 124/26/2 125/24/2 85/25/2
f 125/24/2 126/22/2 84/23/2
f 126/22/2 127/20/2 83/21/2
f 127/20/2 128/18/2 82/19/2
f 128/18/2 129/16/2 81/17/2
f 129/16/2 130/14/2 80/15/2
f 130/14/2 131/12/2 79/13/2
f 131/12/2 132/10/2 78/11/2
f 132/10/2 133/8/2 77/9/2
f 133/8/2 134/6/2 76/7/2
f 134/6/2 135/4/2 75/5/2
f 135/4/2 136/1/2 74/2/2
f 136/1/2 137/72/2 73/3/2
f 137/72/2 138/70/2 109/71/2
f 138/70/2 139/68/2 108/69/2
f 139/68/2 140/66/2 107/67/2
f 140/66/2 141/63/2 106/65/2
f 141/63/2 142/61/2 104/62/2
f 142/61/2 143/59/2 103/60/2
f 143/59/2 144/57/2 102/58/2
f 197/73/3 145/74/3 216/75/3
f 196/76/4 146/77/4 145/74/4
f 195/78/5 147/79/5 146/77/5
f 194/80/6 148/81/6 147/79/6
f 193/82/7 149/83/7 148/81/7
f 192/84/8 150/85/8 149/83/8
f 191/86/9 151/87/9 150/85/9
f 190/88/10 152/89/10 151/87/10
f 189/90/11 153/91/11 152/89/11
f 188/92/12 154/93/12 153/91/12
f 187/94/13 155/95/13 154/93/13
f 186/96/14 156/97/14 155/95/14
f 185/98/15 157/99/15 156/97/15
f 184/100/16 158/101/16 157/99/16
f 182/102/17 159/103/17 158/101/17
f 181/104/18 160/105/18 159/103/18
f 180/106/19 161/107/19 160/105/19
f 180/106/20 162/108/20 161/107/20
f 179/109/21 163/110/21 162/108/21
f 178/111/22 164/112/22 163/110/22
f 177/113/23 165/114/23 164/112/23
f 176/115/24 166/116/24 165/114/24
f 175/117/25 167/118/25 166/116/25
f 174/119/26 168/120/26 167/118/26
f 173/121/27 169/122/27 168/120/27
f 171/123/28 170/123/28 169/122/28
f 169/122/29 172/124/29 171/123/29
f 169/122/30 173/121/30 172/124/30
f 168/120/31 174/119/31 173/121/31
f 167/118/32 175/117/32 174/119/32
f 166/116/33 176/115/33 175/117/33
f 165/114/34 177/113/34 176/115/34
f 164/112/35 178/111/35 177/113/35
f 163/110/36 179/109/36 178/111/36
f 162/108/37 180/106/37 179/109/37
f 160/105/38 181/104/38 180/106/38
f 159/103/39 182/102/39 181/104/39
f 158/101/40 183/125/40 182/102/40
f 158/101/41 184/100/41 183/125/41
f 157/99/42 185/98/42 184/100/42
f 156/97/43 186/96/43 185/98/43
f 155/95/44 187/94/44 186/96/44
f 154/93/45 188/92/45 187/94/45
f 153/91/46 189/90/46 188/92/46
f 152/89/47 190/88/47 189/90/47
f 151/87/48 191/86/48 190/88/48
f 150/85/49 192/84/49 191/86/49
f 149/83/50 193/82/50 192/84/50
f 148/81/51 194/80/51 193/82/51
f 147/79/52 195/78/52 194/80/52
f 146/77/53 196/76/53 195/78/53
f 145/74/54 197/73/54 196/76/54
f 216/75/55 198/126/55 197/73/55
f 215/127/56 199/128/56 198/126/56
f 214/129/57 200/130/57 199/128/57
f 213/131/58 201/132/58 200/130/58
f 212/133/59 202/134/59 201/132/59
f 211/135/60 203/136/60 202/134/60
f 210/137/61 204/138/61 203/136/61
f 209/139/62 205/140/62 204/138/62
f 208/141/63 206/123/63 205/140/63
f 208/141/64 207/123/64 206/123/64
f 205/140/65 209/139/65 208/141/65
f 204/138/66 210/137/66 209/139/66
f 203/136/67 211/135/67 210/137/67
f 202/134/68 212/133/68 211/135/68
f 201/132/69 213/131/69 212/133/69
f 200/130/70 214/129/70 213/131/70
f 199/128/71 215/127/71 214/129/71
f 198/126/72 216/75/72 215/127/72
f 270/142/73 217/143/73 289/3/73
f 269/144/74 218/145/74 217/143/74
f 268/146/75 219/147/75 218/145/75
f 266/148/76 220/149/76 219/147/76
f 265/150/77 221/151/77 220/149/77
f 264/152/78 222/153/78 221/151/78
f 263/154/79 223/155/79 222/153/79
f 262/156/80 224/157/80 223/155/80
f 262/156/81 225/158/81 224/157/81
f 261/159/82 226/160/82 225/158/82
f 260/161/83 227/162/83 226/160/83
f 259/163/84 228/164/84 227/162/84
f 258/165/85 229/166/85 228/164/85
f 257/167/86 230/168/86 229/166/86
f 256/169/87 231/170/87 230/168/87
f 255/171/88 232/172/88 231/170/88
f 254/173/89 233/174/89 232/172/89
f 253/175/90 234/123/90 233/174/90
f 252/176/91 235/177/91 234/123/91
f 251/178/92 236/179/92 235/177/92
f 250/180/93 237/181/93 236/179/93
f 249/182/94 238/183/94 237/181/94
f 248/184/95 239/185/95 238/183/95
f 247/186/96 240/187/96 239/185/96
f 246/188/97 241/189/97 240/187/97
f 245/190/98 242/191/98 241/189/98
f 244/192/64 243/192/64 242/191/64
f 242/191/99 245/190/99 244/192/99
f 241/189/100 246/188/100 245/190/100
f 240/187/101 247/186/101 246/188/101
f 239/185/102 248/184/102 247/186/102
f 238/183/103 249/182/103 248/184/103
f 237/181/104 250/180/104 249/182/104
f 236/179/105 251/178/105 250/180/105
f 235/177/106 252/176/106 251/178/106
f 234/123/107 253/175/107 252/176/107
f 233/174/108 254/173/108 253/175/108
f 232/172/109 255/171/109 254/173/109
f 231/170/110 256/169/110 255/171/110
f 230/168/111 257/167/111 256/169/111
f 229/166/112 258/165/112 257/167/112
f 228/164/113 259/163/113 258/165/113
f 227/162/114 260/161/114 259/163/114
f 226/160/115 261/159/115 260/161/115
f 225/158/116 262/156/116 261/159/116
f 223/155/117 263/154/117 262/156/117
f 222/153/118 264/152/118 263/154/118
f 221/151/119 265/150/119 264/152/119
f 220/149/120 266/148/120 265/150/120
f 219/147/121 267/193/121 266/148/121
f 219/147/122 268/146/122 267/193/122
f 218/145/123 269/144/123 268/146/123
f 217/143/124 270/142/124 269/144/124
f 288/194/125 271/195/125 270/142/125
f 287/196/126 272/197/126 271/195/126
f 286/198/127 273/199/127 272/197/127
f 285/200/128 274/201/128 273/199/128
f 284/202/129 275/203/129 274/201/129
f 283/204/130 276/205/130 275/203/130
f 282/206/131 277/207/131 276/205/131
f 281/208/132 278/209/132 277/207/132
f 281/208/133 279/192/133 278/209/133
f 281/208/28 280/192/28 279/192/28
f 277/207/134 282/206/134 281/208/134
f 276/205/135 283/204/135 282/206/135
f 275/203/136 284/202/136 283/204/136
f 274/201/137 285/200/137 284/202/137
f 273/199/138 286/198/138 285/200/138
f 272/197/139 287/196/139 286/198/139
f 271/195/140 288/194/140 287/196/140
f 270/142/141 289/3/141 288/194/141
f 325/210/142 290/211/142 362/3/142
f 324/212/143 291/213/143 290/211/143
f 323/214/144 292/215/144 291/213/144
f 322/216/145 293/217/145 292/215/145
f 321/218/146 294/219/146 293/217/146
f 320/220/147 295/221/147 294/219/147
f 319/222/148 296/223/148 295/221/148
f 318/224/149 297/225/149 296/223/149
f 317/226/150 298/158/150 297/225/150
f 317/226/151 299/227/151 298/158/151
f 316/228/152 300/229/152 299/227/152
f 315/230/153 301/231/153 300/229/153
f 314/232/154 302/233/154 301/231/154
f 313/234/155 303/235/155 302/233/155
f 312/236/156 304/237/156 303/235/156
f 311/238/157 305/239/157 304/237/157
f 310/240/158 306/241/158 305/239/158
f 308/123/159 307/123/159 306/241/159
f 306/241/160 309/242/160 308/123/160
f 306/241/161 310/240/161 309/242/161
f 305/239/162 311/238/162 310/240/162
f 304/237/163 312/236/163 311/238/163
f 303/235/164 313/234/164 312/236/164
f 302/233/165 314/232/165 313/234/165
f 301/231/166 315/230/166 314/232/166
f 300/229/167 316/228/167 315/230/167
f 299/227/168 317/226/168 316/228/168
f 297/225/169 318/224/169 317/226/169
f 296/223/170 319/222/170 318/224/170
f 295/221/171 320/220/171 319/222/171
f 294/219/172 321/218/172 320/220/172
f 293/217/173 322/216/173 321/218/173
f 292/215/174 323/214/174 322/216/174
f 291/213/175 324/212/175 323/214/175
f 290/211/176 325/210/176 324/212/176
f 362/3/177 326/243/177 325/210/177
f 360/244/178 327/245/178 326/243/178
f 359/246/179 328/247/179 327/245/179
f 358/248/180 329/249/180 328/247/180
f 357/250/181 330/251/181 329/249/181
f 356/252/182 331/253/182 330/251/182
f 356/252/183 332/254/183 331/253/183
f 355/255/184 333/256/184 332/254/184
f 354/257/185 334/258/185 333/256/185
f 353/192/186 335/259/186 334/258/186
f 352/260/187 336/261/187 335/259/187
f 351/262/188 337/263/188 336/261/188
f 350/264/189 338/265/189 337/263/189
f 349/266/190 339/267/190 338/265/190
f 348/268/191 340/269/191 339/267/191
f 347/270/192 341/271/192 340/269/192
f 346/272/193 342/273/193 341/271/193
f 345/274/194 343/123/194 342/273/194
f 345/274/195 344/123/195 343/123/195
f 342/273/196 346/272/196 345/274/196
f 341/271/197 347/270/197 346/272/197
f 340/269/198 348/268/198 347/270/198
f 339/267/199 349/266/199 348/268/199
f 338/265/200 350/264/200 349/266/200
f 337/263/201 351/262/201 350/264/201
f 336/261/202 352/260/202 351/262/202
f 335/259/203 353/192/203 352/260/203
f 334/258/204 354/257/204 353/192/204
f 333/256/205 355/255/205 354/257/205
f 332/254/206 356/252/206 355/255/206
f 330/251/207 357/250/207 356/252/207
f 329/249/208 358/248/208 357/250/208
f 328/247/209 359/246/209 358/248/209
f 327/245/210 360/244/210 359/246/210
f 326/243/211 361/275/211 360/244/211
f 326/243/212 362/3/212 361/275/212
f 433/276/213 363/123/213 434/123/213
f 433/276/214 364/140/214 363/123/214
f 433/276/215 365/138/215 364/140/215
f 432/277/216 366/136/216 365/138/216
f 431/278/217 367/134/217 366/136/217
f 430/279/218 368/132/218 367/134/218
f 429/280/219 369/130/219 368/132/219
f 428/281/220 370/282/220 369/130/220
f 427/283/221 371/284/221 370/282/221
f 426/285/222 372/286/222 371/284/222
f 424/287/223 373/288/223 372/286/223
f 423/289/224 374/290/224 373/288/224
f 422/79/225 375/80/225 374/290/225
f 421/81/226 376/82/226 375/80/226
f 420/83/227 377/84/227 376/82/227
f 419/85/228 378/86/228 377/84/228
f 418/87/229 379/88/229 378/86/229
f 417/89/230 380/90/230 379/88/230
f 416/91/231 381/92/231 380/90/231
f 415/93/232 382/94/232 381/92/232
f 414/95/233 383/96/233 382/94/233
f 413/97/234 384/98/234 383/96/234
f 412/99/235 385/100/235 384/98/235
f 411/101/236 386/125/236 385/100/236
f 411/101/237 387/291/237 386/125/237
f 410/292/238 388/293/238 387/291/238
f 409/294/239 389/295/239 388/293/239
f 408/107/240 390/296/240 389/295/240
f 407/297/241 391/298/241 390/296/241
f 406/299/242 392/113/242 391/298/242
f 405/300/243 393/115/243 392/113/243
f 404/301/244 394/117/244 393/115/244
f 403/302/245 395/119/245 394/117/245
f 402/303/246 396/121/246 395/119/246
f 401/304/247 397/124/247 396/121/247
f 400/305/248 398/123/248 397/124/248
f 400/305/249 399/123/249 398/123/249
f 397/124/250 401/304/250 400/305/250
f 396/121/251 402/303/251 401/304/251
f 395/119/252 403/302/252 402/303/252
f 394/117/253 404/301/253 403/302/253
f 393/115/254 405/300/254 404/301/254
f 392/113/255 406/299/255 405/300/255
f 391/298/256 407/297/256 406/299/256
f 390/296/257 408/107/257 407/297/257
f 389/295/258 409/294/258 408/107/258
f 388/293/259 410/292/259 409/294/259
f 387/291/260 411/101/260 410/292/260
f 385/100/261 412/99/261 411/101/261
f 384/98/262 413/97/262 412/99/262
f 383/96/263 414/95/263 413/97/263
f 382/94/264 415/93/264 414/95/264
f 381/92/265 416/91/265 415/93/265
f 380/90/266 417/89/266 416/91/266
f 379/88/267 418/87/267 417/89/267
f 378/86/268 419/85/268 418/87/268
f 377/84/269 420/83/269 419/85/269
f 376/82/270 421/81/270 420/83/270
f 375/80/271 422/79/271 421/81/271
f 374/290/272 423/289/272 422/79/272
f 373/288/273 424/287/273 423/289/273
f 372/286/274 425/75/274 424/287/274
f 372/286/275 426/285/275 425/75/275
f 371/284/276 427/283/276 426/285/276
f 370/282/277 428/281/277 427/283/277
f 369/130/278 429/280/278 428/281/278
f 368/132/279 430/279/279 429/280/279
f 367/134/280 431/278/280 430/279/280
f 366/136/281 432/277/281 431/278/281
f 365/138/282 433/276/282 432/277/282
f 509/158/283 435/158/283 508/306/283
f 435/158/284 436/307/284 508/306/284
f 436/307/285 437/308/285 507/309/285
f 437/308/286 438/310/286 506/311/286
f 438/310/287 439/312/287 505/313/287
f 439/312/288 440/314/288 504/315/288
f 440/314/289 441/316/289 503/317/289
f 441/316/290 442/318/290 502/319/290
f 442/318/291 443/320/291 501/321/291
f 443/320/292 444/123/292 500/322/292
f 444/123/293 445/323/293 499/324/293
f 445/323/294 446/325/294 498/326/294
f 446/325/295 447/327/295 497/328/295
f 447/327/296 448/329/296 496/330/296
f 448/329/297 449/331/297 495/332/297
f 449/331/298 450/333/298 494/334/298
f 450/333/299 451/335/299 493/336/299
f 451/335/300 452/337/300 492/338/300
f 452/337/301 453/192/301 491/339/301
f 453/192/302 454/340/302 490/341/302
f 454/340/303 455/342/303 489/343/303
f 455/342/304 456/344/304 488/345/304
f 456/344/305 457/346/305 487/347/305
f 457/346/306 458/348/306 486/349/306
f 458/348/307 459/350/307 485/351/307
f 459/350/308 460/352/308 484/353/308
f 460/352/309 461/354/309 483/355/309
f 461/354/310 462/3/310 482/356/310
f 462/3/311 463/357/311 481/358/311
f 463/357/312 464/359/312 480/360/312
f 464/359/313 465/361/313 479/362/313
f 465/361/314 466/363/314 478/364/314
f 466/363/315 467/365/315 477/366/315
f 467/365/316 468/367/316 476/368/316
f 468/367/317 469/369/317 475/370/317
f 469/369/318 470/371/318 474/372/318
f 470/371/319 471/158/319 473/373/319
f 471/158/320 472/158/320 473/373/320
f 473/373/321 474/372/321 470/371/321
f 474/372/322 475/370/322 469/369/322
f 475/370/323 476/368/323 468/367/323
f 476/368/324 477/366/324 467/365/324
f 477/366/325 478/364/325 466/363/325
f 478/364/326 479/362/326 465/361/326
f 479/362/327 480/360/327 464/359/327
f 480/360/328 481/358/328 463/357/328
f 481/358/329 482/356/329 462/3/329
f 482/356/330 483/355/330 461/354/330
f 483/355/331 484/353/331 460/352/331
f 484/353/332 485/351/332 459/350/332
f 485/351/333 486/349/333 458/348/333
f 486/349/334 487/347/334 457/346/334
f 487/347/335 488/345/335 456/344/335
f 488/345/336 489/343/336 455/342/336
f 489/343/337 490/341/337 454/340/337
f 490/341/338 491/339/338 453/192/338
f 491/339/339 492/338/339 452/337/339
f 492/338/340 493/336/340 451/335/340
f 493/336/341 494/334/341 450/333/341
f 494/334/342 495/332/342 449/331/342
f 495/332/343 496/330/343 448/329/343
f 496/330/344 497/328/344 447/327/344
f 497/328/345 498/326/345 446/325/345
f 498/326/346 499/324/346 445/323/346
f 499/324/347 500/322/347 444/123/347
f 500/322/348 501/321/348 443/320/348
f 501/321/349 502/319/349 442/318/349
f 502/319/350 503/317/350 441/316/350
f 503/317/351 504/315/351 440/314/351
f 504/315/352 505/313/352 439/312/352
f 505/313/353 506/311/353 438/310/353
f 506/311/354 507/309/354 437/308/354
f 507/309/355 508/306/355 436/307/355
f 584/158/356 510/158/356 511/374/356
f 511/374/357 512/375/357 583/376/357
f 512/375/358 513/377/358 582/378/358
f 513/377/359 514/379/359 581/380/359
f 514/379/360 515/381/360 580/382/360
f 515/381/361 516/383/361 579/384/361
f 516/383/362 517/385/362 577/386/362
f 517/385/363 518/387/363 576/388/363
f 518/387/364 519/389/364 575/390/364
f 519/389/365 520/391/365 574/392/365
f 520/391/366 521/393/366 573/394/366
f 521/393/367 522/395/367 572/396/367
f 522/395/368 523/397/368 571/398/368
f 523/397/369 524/399/369 570/400/369
f 524/399/370 525/401/370 569/402/370
f 525/401/371 526/403/371 568/404/371
f 526/403/372 527/405/372 567/406/372
f 527/405/373 528/192/373 566/407/373
f 528/192/374 529/408/374 565/409/374
f 529/408/375 530/410/375 564/411/375
f 530/410/376 531/412/376 563/413/376
f 531/412/377 532/414/377 562/415/377
f 532/414/378 533/416/378 561/417/378
f 533/416/379 534/418/379 560/419/379
f 534/418/380 535/420/380 559/421/380
f 535/420/381 536/422/381 558/423/381
f 536/422/382 537/424/382 557/425/382
f 537/424/383 538/426/383 556/427/383
f 538/426/384 539/428/384 555/429/384
f 539/428/385 540/430/385 554/431/385
f 540/430/386 541/432/386 552/433/386
f 541/432/387 542/434/387 551/435/387
f 542/434/388 543/436/388 550/437/388
f 543/436/389 544/438/389 549/439/389
f 544/438/390 545/440/390 548/441/390
f 545/440/391 546/158/391 547/158/391
f 547/158/392 548/441/392 545/440/392
f 548/441/393 549/439/393 544/438/393
f 549/439/394 550/437/394 543/436/394
f 550/437/395 551/435/395 542/434/395
f 551/435/396 552/433/396 541/432/396
f 552/433/397 553/442/397 540/430/397
f 553/442/398 554/431/398 540/430/398
f 554/431/399 555/429/399 539/428/399
f 555/429/400 556/427/400 538/426/400
f 556/427/401 557/425/401 537/424/401
f 557/425/402 558/423/402 536/422/402
f 558/423/403 559/421/403 535/420/403
f 559/421/404 560/419/404 534/418/404
f 560/419/405 561/417/405 533/416/405
f 561/417/406 562/415/406 532/414/406
f 562/415/407 563/413/407 531/412/407
f 563/413/408 564/411/408 530/410/408
f 564/411/409 565/409/409 529/408/409
f 565/409/410 566/407/410 528/192/410
f 566/407/411 567/406/411 527/405/411
f 567/406/412 568/404/412 526/403/412
f 568/404/413 569/402/413 525/401/413
f 569/402/414 570/400/414 524/399/414
f 570/400/415 571/398/415 523/397/415
f 571/398/416 572/396/416 522/395/416
f 572/396/417 573/394/417 521/393/417
f 573/394/418 574/392/418 520/391/418
f 574/392/419 575/390/419 519/389/419
f 575/390/420 576/388/420 518/387/420
f 576/388/421 577/386/421 517/385/421
f 577/386/422 578/443/422 516/383/422
f 578/443/423 579/384/423 516/383/423
f 579/384/424 580/382/424 515/381/424
f 580/382/425 581/380/425 514/379/425
f 581/380/426 582/378/426 513/377/426
f 582/378/427 583/376/427 512/375/427
f 583/376/428 584/158/428 511/374/428
f 621/444/429 585/123/429 622/445/429
f 585/123/429 586/446/429 622/445/429
f 586/446/429 587/447/429 656/448/429
f 587/447/429 588/449/429 655/450/429
f 588/449/429 589/451/429 654/452/429
f 589/451/429 590/453/429 653/454/429
f 590/453/429 591/455/429 652/456/429
f 591/455/429 592/457/429 651/458/429
f 592/457/429 593/459/429 650/460/429
f 593/459/429 594/461/429 649/462/429
f 594/461/429 595/463/429 648/464/429
f 595/463/429 596/465/429 647/466/429
f 596/465/429 597/467/429 646/468/429
f 597/467/429 598/469/429 645/470/429
f 598/469/429 599/471/429 644/472/429
f 599/471/429 600/473/429 643/474/429
f 600/473/429 601/475/429 642/476/429
f 601/475/429 602/477/429 641/478/429
f 602/477/429 603/479/429 640/480/429
f 603/479/429 604/481/429 640/480/429
f 604/481/429 605/482/429 639/483/429
f 605/482/429 606/484/429 638/485/429
f 606/484/429 607/486/429 637/487/429
f 607/486/429 608/488/429 636/489/429
f 608/488/429 609/490/429 635/491/429
f 609/490/429 610/492/429 634/493/429
f 610/492/429 611/494/429 633/495/429
f 611/494/429 612/496/429 632/497/429
f 612/496/429 613/498/429 631/499/429
f 613/498/429 614/500/429 630/501/429
f 614/500/429 615/502/429 629/503/429
f 615/502/429 616/504/429 628/505/429
f 616/504/429 617/506/429 627/507/429
f 617/506/429 618/508/429 626/509/429
f 618/508/429 619/510/429 625/511/429
f 619/510/429 620/512/429 624/513/429
f 620/512/429 621/444/429 623/514/429
f 656/448/429 622/445/429 586/446/429
f 622/445/429 623/514/429 621/444/429
f 623/514/429 624/513/429 620/512/429
f 624/513/429 625/511/429 619/510/429
f 625/511/429 626/509/429 618/508/429
f 626/509/429 627/507/429 617/506/429
f 627/507/429 628/505/429 616/504/429
f 628/505/429 629/503/429 615/502/429
f 629/503/429 630/501/429 614/500/429
f 630/501/429 631/499/429 613/498/429
f 631/499/429 632/497/429 612/496/429
f 632/497/429 633/495/429 611/494/429
f 633/495/429 634/493/429 610/492/429
f 634/493/429 635/491/429 609/490/429
f 635/491/429 636/489/429 608/488/429
f 636/489/429 637/487/429 607/486/429
f 637/487/429 638/485/429 606/484/429
f 638/485/429 639/483/429 605/482/429
f 639/483/429 640/480/429 604/481/429
f 640/480/429 641/478/429 602/477/429
f 641/478/429 642/476/429 601/475/429
f 642/476/429 643/474/429 600/473/429
f 643/474/429 644/472/429 599/471/429
f 644/472/429 645/470/429 598/469/429
f 645/470/429 646/468/429 597/467/429
f 646/468/429 647/466/429 596/465/429
f 647/466/429 648/464/429 595/463/429
f 648/464/429 649/462/429 594/461/429
f 649/462/429 650/460/429 593/459/429
f 650/460/429 651/458/429 592/457/429
f 651/458/429 652/456/429 591/455/429
f 652/456/429 653/454/429 590/453/429
f 653/454/429 654/452/429 589/451/429
f 654/452/429 655/450/429 588/449/429
f 655/450/429 656/448/429 587/447/429
f 728/445/430 657/446/430 693/123/430
f 727/448/430 658/447/430 657/446/430
f 726/450/430 659/449/430 658/447/430
f 725/452/430 660/451/430 659/449/430
f 724/454/430 661/453/430 660/451/430
f 723/456/430 662/455/430 661/453/430
f 722/458/430 663/457/430 662/455/430
f 721/460/430 664/459/430 663/457/430
f 720/462/430 665/461/430 664/459/430
f 719/464/430 666/463/430 665/461/430
f 718/466/430 667/465/430 666/463/430
f 717/468/430 668/467/430 667/465/430
f 716/470/430 669/469/430 668/467/430
f 715/472/430 670/471/430 669/469/430
f 714/474/430 671/473/430 670/471/430
f 713/476/430 672/475/430 671/473/430
f 712/478/430 673/477/430 672/475/430
f 711/480/430 674/479/430 673/477/430
f 711/480/430 675/481/430 674/479/430
f 710/483/430 676/482/430 675/481/430
f 709/485/430 677/484/430 676/482/430
f 708/487/430 678/486/430 677/484/430
f 707/489/430 679/488/430 678/486/430
f 706/491/430 680/490/430 679/488/430
f 705/493/430 681/492/430 680/490/430
f 704/495/430 682/494/430 681/492/430
f 703/497/430 683/496/430 682/494/430
f 702/499/430 684/498/430 683/496/430
f 701/501/430 685/500/430 684/498/430
f 700/503/430 686/502/430 685/500/430
f 699/505/430 687/504/430 686/502/430
f 698/507/430 688/506/430 687/504/430
f 697/509/430 689/508/430 688/506/430
f 696/511/430 690/510/430 689/508/430
f 695/513/430 691/512/430 690/510/430
f 694/514/430 692/444/430 691/512/430
f 728/445/430 693/123/430 692/444/430
f 692/444/430 694/514/430 728/445/430
f 691/512/430 695/513/430 694/514/430
f 690/510/430 696/511/430 695/513/430
f 689/508/430 697/509/430 696/511/430
f 688/506/430 698/507/430 697/509/430
f 687/504/430 699/505/430 698/507/430
f 686/502/430 700/503/430 699/505/430
f 685/500/430 701/501/430 700/503/430
f 684/498/430 702/499/430 701/501/430
f 683/496/430 703/497/430 702/499/430
f 682/494/430 704/495/430 703/497/430
f 681/492/430 705/493/430 704/495/430
f 680/490/430 706/491/430 705/493/430
f 679/488/430 707/489/430 706/491/430
f 678/486/430 708/487/430 707/489/430
f 677/484/430 709/485/430 708/487/430
f 676/482/430 710/483/430 709/485/430
f 675/481/430 711/480/430 710/483/430
f 673/477/430 712/478/430 711/480/430
f 672/475/430 713/476/430 712/478/430
f 671/473/430 714/474/430 713/476/430
f 670/471/430 715/472/430 714/474/430
f 669/469/430 716/470/430 715/472/430
f 668/467/430 717/468/430 716/470/430
f 667/465/430 718/466/430 717/468/430
f 666/463/430 719/464/430 718/466/430
f 665/461/430 720/462/430 719/464/430
f 664/459/430 721/460/430 720/462/430
f 663/457/430 722/458/430 721/460/430
f 662/455/430 723/456/430 722/458/430
f 661/453/430 724/454/430 723/456/430
f 660/451/430 725/452/430 724/454/430
f 659/449/430 726/450/430 725/452/430
f 658/447/430 727/448/430 726/450/430
f 657/446/430 728/445/430 727/448/430
f 803/123/431 729/123/431 730/515/431
f 730/515/432 731/516/432 802/517/432
f 731/516/433 732/518/433 801/519/433
f 732/518/434 733/520/434 800/521/434
f 733/520/435 734/522/435 799/523/435
f 734/522/436 735/524/436 798/525/436
f 735/524/437 736/526/437 796/527/437
f 736/526/438 737/528/438 795/529/438
f 737/528/439 738/530/439 794/531/439
f 738/530/440 739/532/440 793/533/440
f 739/532/441 740/534/441 793/533/441
f 740/534/442 741/535/442 791/536/442
f 741/535/443 742/537/443 790/538/443
f 742/537/444 743/539/444 789/540/444
f 743/539/445 744/541/445 788/542/445
f 744/541/446 745/543/446 787/544/446
f 745/543/447 746/545/447 786/546/447
f 746/545/448 747/389/448 785/547/448
f 747/389/449 748/548/449 784/549/449
f 748/548/450 749/550/450 783/551/450
f 749/550/451 750/552/451 782/553/451
f 750/552/452 751/554/452 781/555/452
f 751/554/453 752/556/453 780/557/453
f 752/556/454 753/558/454 779/559/454
f 753/558/455 754/560/455 778/561/455
f 754/560/456 755/562/456 777/563/456
f 755/562/457 756/564/457 776/565/457
f 756/564/458 757/566/458 775/567/458
f 757/566/459 758/568/459 774/569/459
f 758/568/460 759/570/460 773/571/460
f 759/570/461 760/572/461 772/573/461
f 760/572/462 761/574/462 771/575/462
f 761/574/463 762/576/463 770/577/463
f 762/576/464 763/578/464 769/579/464
f 763/578/465 764/580/465 767/581/465
f 764/580/466 765/123/466 766/123/466
f 766/123/467 767/581/467 764/580/467
f 767/581/468 768/582/468 763/578/468
f 768/582/469 769/579/469 763/578/469
f 769/579/470 770/577/470 762/576/470
f 770/577/471 771/575/471 761/574/471
f 771/575/472 772/573/472 760/572/472
f 772/573/473 773/571/473 759/570/473
f 773/571/474 774/569/474 758/568/474
f 774/569/475 775/567/475 757/566/475
f 775/567/476 776/565/476 756/564/476
f 776/565/477 777/563/477 755/562/477
f 777/563/478 778/561/478 754/560/478
f 778/561/479 779/559/479 753/558/479
f 779/559/480 780/557/480 752/556/480
f 780/557/481 781/555/481 751/554/481
f 781/555/482 782/553/482 750/552/482
f 782/553/483 783/551/483 749/550/483
f 783/551/484 784/549/484 748/548/484
f 784/549/485 785/547/485 747/389/485
f 785/547/486 786/546/486 746/545/486
f 786/546/487 787/544/487 745/543/487
f 787/544/488 788/542/488 744/541/488
f 788/542/489 789/540/489 743/539/489
f 789/540/490 790/538/490 742/537/490
f 790/538/491 791/536/491 741/535/491
f 791/536/492 792/583/492 740/534/492
f 792/583/493 793/533/493 740/534/493
f 793/533/494 794/531/494 738/530/494
f 794/531/495 795/529/495 737/528/495
f 795/529/496 796/527/496 736/526/496
f 796/527/497 797/584/497 735/524/497
f 797/584/498 798/525/498 735/524/498
f 798/525/499 799/523/499 734/522/499
f 799/523/500 800/521/500 733/520/500
f 800/521/501 801/519/501 732/518/501
f 801/519/502 802/517/502 731/516/502
f 802/517/503 803/123/503 730/515/503
f 878/566/504 804/564/504 860/567/504
f 804/564/505 805/562/505 859/565/505
f 805/562/506 806/560/506 858/563/506
f 806/560/507 807/558/507 857/561/507
f 807/558/508 808/556/508 856/559/508
f 808/556/509 809/554/509 855/557/509
f 809/554/510 810/552/510 854/555/510
f 810/552/511 811/550/511 853/553/511
f 811/550/512 812/548/512 852/551/512
f 812/548/513 813/389/513 851/549/513
f 813/389/514 814/545/514 850/547/514
f 814/545/515 815/543/515 849/546/515
f 815/543/516 816/541/516 848/544/516
f 816/541/517 817/539/517 847/542/517
f 817/539/518 818/537/518 846/540/518
f 818/537/519 819/535/519 845/538/519
f 819/535/520 820/534/520 844/536/520
f 820/534/521 821/532/521 842/533/521
f 821/532/522 822/530/522 842/533/522
f 822/530/523 823/528/523 841/531/523
f 823/528/524 824/526/524 840/529/524
f 824/526/525 825/524/525 839/527/525
f 825/524/526 826/522/526 837/525/526
f 826/522/527 827/520/527 836/523/527
f 827/520/528 828/518/528 835/521/528
f 828/518/529 829/516/529 834/519/529
f 829/516/530 830/515/530 833/517/530
f 830/515/431 831/123/431 832/123/431
f 832/123/531 833/517/531 830/515/531
f 833/517/532 834/519/532 829/516/532
f 834/519/533 835/521/533 828/518/533
f 835/521/534 836/523/534 827/520/534
f 836/523/535 837/525/535 826/522/535
f 837/525/536 838/584/536 825/524/536
f 838/584/537 839/527/537 825/524/537
f 839/527/538 840/529/538 824/526/538
f 840/529/539 841/531/539 823/528/539
f 841/531/540 842/533/540 822/530/540
f 842/533/541 843/583/541 820/534/541
f 843/583/542 844/536/542 820/534/542
f 844/536/543 845/538/543 819/535/543
f 845/538/544 846/540/544 818/537/544
f 846/540/545 847/542/545 817/539/545
f 847/542/546 848/544/546 816/541/546
f 848/544/547 849/546/547 815/543/547
f 849/546/548 850/547/548 814/545/548
f 850/547/549 851/549/549 813/389/549
f 851/549/550 852/551/550 812/548/550
f 852/551/551 853/553/551 811/550/551
f 853/553/552 854/555/552 810/552/552
f 854/555/553 855/557/553 809/554/553
f 855/557/554 856/559/554 808/556/554
f 856/559/555 857/561/555 807/558/555
f 857/561/556 858/563/556 806/560/556
f 858/563/557 859/565/557 805/562/557
f 859/565/558 860/567/558 804/564/558
f 860/567/559 861/569/559 878/566/559
f 861/569/560 862/571/560 877/568/560
f 862/571/561 863/573/561 876/570/561
f 863/573/562 864/575/562 875/572/562
f 864/575/563 865/577/563 874/574/563
f 865/577/564 866/579/564 873/576/564
f 866/579/565 867/582/565 872/578/565
f 867/582/566 868/581/566 872/578/566
f 868/581/567 869/123/567 871/580/567
f 869/123/466 870/123/466 871/580/466
f 871/580/568 872/578/568 868/581/568
f 872/578/569 873/576/569 866/579/569
f 873/576/570 874/574/570 865/577/570
f 874/574/571 875/572/571 864/575/571
f 875/572/572 876/570/572 863/573/572
f 876/570/573 877/568/573 862/571/573
f 877/568/574 878/566/574 861/569/574
