# Blender 4.0.2
# www.blender.org
mtllib pipe57х3u5l700.mtl
o Shape_IndexedFaceSet.003
v 0.000000 0.028090 0.004817
v 0.000000 0.026872 0.009494
v 0.000000 0.024881 0.013899
v 0.000000 0.022174 0.017904
v 0.000000 0.018829 0.021394
v 0.000000 0.014943 0.024269
v 0.000000 0.010626 0.026445
v 0.000000 0.006004 0.027860
v 0.000000 0.001210 0.028474
v 0.000000 -0.003620 0.028269
v 0.000000 -0.008345 0.027251
v 0.000000 -0.012831 0.025448
v 0.000000 -0.016947 0.022914
v 0.000000 -0.020576 0.019720
v 0.000000 -0.023613 0.015959
v 0.000000 -0.025970 0.011739
v 0.000000 -0.027580 0.007181
v 0.000000 -0.028397 0.002417
v -0.000000 -0.028397 -0.002417
v -0.000000 -0.027580 -0.007181
v -0.000000 -0.025970 -0.011739
v -0.000000 -0.023612 -0.015959
v -0.000000 -0.020576 -0.019720
v -0.000000 -0.016947 -0.022914
v -0.000000 -0.012831 -0.025448
v -0.000000 -0.008345 -0.027251
v -0.000000 -0.003620 -0.028269
v -0.000000 0.001210 -0.028474
v -0.000000 0.006004 -0.027860
v -0.000000 0.010626 -0.026445
v -0.000000 0.014943 -0.024269
v -0.000000 0.018829 -0.021394
v -0.000000 0.022174 -0.017904
v -0.000000 0.024881 -0.013899
v -0.000000 0.026872 -0.009494
v -0.000000 0.028090 -0.004817
v 0.000000 0.028500 0.000000
v -0.000000 0.024598 -0.004464
v -0.000000 0.023406 -0.008784
v -0.000000 0.021461 -0.012822
v -0.000000 0.018827 -0.016448
v -0.000000 0.015587 -0.019546
v -0.000000 0.011847 -0.022015
v -0.000000 0.007725 -0.023776
v -0.000000 0.003356 -0.024774
v -0.000000 -0.001122 -0.024975
v -0.000000 -0.005563 -0.024373
v -0.000000 -0.009826 -0.022988
v -0.000000 -0.013772 -0.020864
v -0.000000 -0.017277 -0.018070
v -0.000000 -0.020225 -0.014695
v -0.000000 -0.022524 -0.010847
v -0.000000 -0.024099 -0.006651
v -0.000000 -0.024899 -0.002241
v 0.000000 -0.024899 0.002241
v 0.000000 -0.024099 0.006651
v 0.000000 -0.022524 0.010847
v 0.000000 -0.020225 0.014695
v 0.000000 -0.017277 0.018070
v 0.000000 -0.013772 0.020864
v 0.000000 -0.009826 0.022988
v 0.000000 -0.005563 0.024373
v 0.000000 -0.001122 0.024975
v 0.000000 0.003356 0.024774
v 0.000000 0.007725 0.023776
v 0.000000 0.011847 0.022015
v 0.000000 0.015587 0.019546
v 0.000000 0.018827 0.016449
v 0.000000 0.021461 0.012823
v 0.000000 0.023406 0.008784
v 0.000000 0.024598 0.004464
v 0.000000 0.025000 0.000000
v 0.000000 0.028500 0.000000
v 0.000000 0.028090 0.004817
v 0.000000 0.026872 0.009494
v 0.000000 0.024881 0.013899
v 0.000000 0.022174 0.017904
v 0.000000 0.018829 0.021394
v 0.000000 0.014943 0.024269
v 0.000000 0.010626 0.026445
v 0.000000 0.006004 0.027860
v 0.000000 0.001210 0.028474
v 0.000000 -0.003620 0.028269
v 0.000000 -0.008345 0.027251
v 0.000000 -0.012831 0.025448
v 0.000000 -0.016947 0.022914
v 0.000000 -0.020576 0.019720
v 0.000000 -0.023613 0.015959
v 0.000000 -0.025970 0.011739
v 0.000000 -0.027580 0.007181
v 0.000000 -0.028397 0.002417
v -0.000000 -0.028397 -0.002417
v -0.000000 -0.027580 -0.007181
v -0.000000 -0.025970 -0.011739
v -0.000000 -0.023612 -0.015959
v -0.000000 -0.020576 -0.019720
v -0.000000 -0.016947 -0.022914
v -0.000000 -0.012831 -0.025448
v -0.000000 -0.008345 -0.027251
v -0.000000 -0.003620 -0.028269
v -0.000000 0.001210 -0.028474
v -0.000000 0.006004 -0.027860
v -0.000000 0.010626 -0.026445
v -0.000000 0.014943 -0.024269
v -0.000000 0.018829 -0.021394
v -0.000000 0.022174 -0.017904
v -0.000000 0.024881 -0.013899
v -0.000000 0.026872 -0.009494
v -0.000000 0.028090 -0.004817
v 0.000000 0.028500 0.000000
v 0.700000 0.028500 -0.000000
v 0.700000 0.028090 0.004816
v 0.700000 0.026872 0.009494
v 0.700000 0.024881 0.013899
v 0.700000 0.022174 0.017904
v 0.700000 0.018829 0.021394
v 0.700000 0.014943 0.024269
v 0.700000 0.010626 0.026445
v 0.700000 0.006004 0.027860
v 0.700000 0.001210 0.028474
v 0.700000 -0.003620 0.028269
v 0.700000 -0.008345 0.027251
v 0.700000 -0.012831 0.025448
v 0.700000 -0.016947 0.022914
v 0.700000 -0.020576 0.019720
v 0.700000 -0.023613 0.015959
v 0.700000 -0.025970 0.011739
v 0.700000 -0.027580 0.007181
v 0.700000 -0.028397 0.002417
v 0.700000 -0.028397 -0.002417
v 0.700000 -0.027580 -0.007181
v 0.700000 -0.025970 -0.011739
v 0.700000 -0.023612 -0.015959
v 0.700000 -0.020576 -0.019720
v 0.700000 -0.016947 -0.022914
v 0.700000 -0.012831 -0.025448
v 0.700000 -0.008345 -0.027251
v 0.700000 -0.003620 -0.028269
v 0.700000 0.001210 -0.028474
v 0.700000 0.006004 -0.027860
v 0.700000 0.010626 -0.026445
v 0.700000 0.014943 -0.024269
v 0.700000 0.018829 -0.021394
v 0.700000 0.022174 -0.017904
v 0.700000 0.024881 -0.013899
v 0.700000 0.026872 -0.009495
v 0.700000 0.028090 -0.004817
v 0.700000 0.028500 -0.000000
v 0.000000 0.025000 0.000000
v -0.000000 0.024598 -0.004464
v -0.000000 0.023406 -0.008784
v -0.000000 0.021461 -0.012822
v -0.000000 0.018827 -0.016448
v -0.000000 0.015587 -0.019546
v -0.000000 0.011847 -0.022015
v -0.000000 0.007725 -0.023776
v -0.000000 0.003356 -0.024774
v -0.000000 -0.001122 -0.024975
v -0.000000 -0.005563 -0.024373
v -0.000000 -0.009826 -0.022988
v -0.000000 -0.013772 -0.020864
v -0.000000 -0.017277 -0.018070
v -0.000000 -0.020225 -0.014695
v -0.000000 -0.022524 -0.010847
v -0.000000 -0.024099 -0.006651
v -0.000000 -0.024899 -0.002241
v 0.000000 -0.024899 0.002241
v 0.000000 -0.024099 0.006651
v 0.000000 -0.022524 0.010847
v 0.000000 -0.020225 0.014695
v 0.000000 -0.017277 0.018070
v 0.000000 -0.013772 0.020864
v 0.000000 -0.009826 0.022988
v 0.000000 -0.005563 0.024373
v 0.000000 -0.001122 0.024975
v 0.000000 0.003356 0.024774
v 0.000000 0.007725 0.023776
v 0.000000 0.011847 0.022015
v 0.000000 0.015587 0.019546
v 0.000000 0.018827 0.016449
v 0.000000 0.021461 0.012823
v 0.000000 0.023406 0.008784
v 0.000000 0.024598 0.004464
v 0.000000 0.025000 0.000000
v 0.700000 0.025000 -0.000000
v 0.700000 0.024598 -0.004464
v 0.700000 0.023406 -0.008784
v 0.700000 0.021461 -0.012823
v 0.700000 0.018827 -0.016449
v 0.700000 0.015587 -0.019546
v 0.700000 0.011847 -0.022015
v 0.700000 0.007725 -0.023776
v 0.700000 0.003356 -0.024774
v 0.700000 -0.001122 -0.024975
v 0.700000 -0.005563 -0.024373
v 0.700000 -0.009826 -0.022988
v 0.700000 -0.013772 -0.020864
v 0.700000 -0.017277 -0.018070
v 0.700000 -0.020225 -0.014695
v 0.700000 -0.022524 -0.010847
v 0.700000 -0.024099 -0.006651
v 0.700000 -0.024899 -0.002241
v 0.700000 -0.024899 0.002241
v 0.700000 -0.024099 0.006651
v 0.700000 -0.022524 0.010847
v 0.700000 -0.020225 0.014695
v 0.700000 -0.017277 0.018070
v 0.700000 -0.013772 0.020864
v 0.700000 -0.009826 0.022988
v 0.700000 -0.005563 0.024373
v 0.700000 -0.001122 0.024975
v 0.700000 0.003356 0.024774
v 0.700000 0.007725 0.023776
v 0.700000 0.011847 0.022015
v 0.700000 0.015587 0.019546
v 0.700000 0.018827 0.016448
v 0.700000 0.021461 0.012822
v 0.700000 0.023406 0.008784
v 0.700000 0.024598 0.004464
v 0.700000 0.025000 -0.000000
v 0.700000 0.028500 -0.000000
v 0.700000 0.028090 0.004816
v 0.700000 0.026872 0.009494
v 0.700000 0.024881 0.013899
v 0.700000 0.022174 0.017904
v 0.700000 0.018829 0.021394
v 0.700000 0.014943 0.024269
v 0.700000 0.010626 0.026445
v 0.700000 0.006004 0.027860
v 0.700000 0.001210 0.028474
v 0.700000 -0.003620 0.028269
v 0.700000 -0.008345 0.027251
v 0.700000 -0.012831 0.025448
v 0.700000 -0.016947 0.022914
v 0.700000 -0.020576 0.019720
v 0.700000 -0.023613 0.015959
v 0.700000 -0.025970 0.011739
v 0.700000 -0.027580 0.007181
v 0.700000 -0.028397 0.002417
v 0.700000 -0.028397 -0.002417
v 0.700000 -0.027580 -0.007181
v 0.700000 -0.025970 -0.011739
v 0.700000 -0.023612 -0.015959
v 0.700000 -0.020576 -0.019720
v 0.700000 -0.016947 -0.022914
v 0.700000 -0.012831 -0.025448
v 0.700000 -0.008345 -0.027251
v 0.700000 -0.003620 -0.028269
v 0.700000 0.001210 -0.028474
v 0.700000 0.006004 -0.027860
v 0.700000 0.010626 -0.026445
v 0.700000 0.014943 -0.024269
v 0.700000 0.018829 -0.021394
v 0.700000 0.022174 -0.017904
v 0.700000 0.024881 -0.013899
v 0.700000 0.026872 -0.009495
v 0.700000 0.028090 -0.004817
v 0.700000 0.025000 -0.000000
v 0.700000 0.024598 -0.004464
v 0.700000 0.023406 -0.008784
v 0.700000 0.021461 -0.012823
v 0.700000 0.018827 -0.016449
v 0.700000 0.015587 -0.019546
v 0.700000 0.011847 -0.022015
v 0.700000 0.007725 -0.023776
v 0.700000 0.003356 -0.024774
v 0.700000 -0.001122 -0.024975
v 0.700000 -0.005563 -0.024373
v 0.700000 -0.009826 -0.022988
v 0.700000 -0.013772 -0.020864
v 0.700000 -0.017277 -0.018070
v 0.700000 -0.020225 -0.014695
v 0.700000 -0.022524 -0.010847
v 0.700000 -0.024099 -0.006651
v 0.700000 -0.024899 -0.002241
v 0.700000 -0.024899 0.002241
v 0.700000 -0.024099 0.006651
v 0.700000 -0.022524 0.010847
v 0.700000 -0.020225 0.014695
v 0.700000 -0.017277 0.018070
v 0.700000 -0.013772 0.020864
v 0.700000 -0.009826 0.022988
v 0.700000 -0.005563 0.024373
v 0.700000 -0.001122 0.024975
v 0.700000 0.003356 0.024774
v 0.700000 0.007725 0.023776
v 0.700000 0.011847 0.022015
v 0.700000 0.015587 0.019546
v 0.700000 0.018827 0.016448
v 0.700000 0.021461 0.012822
v 0.700000 0.023406 0.008784
v 0.700000 0.024598 0.004464
vn -1.0000 -0.0000 -0.0000
vn -0.0000 0.9964 0.0848
vn -0.0000 0.9677 0.2520
vn -0.0000 0.9112 0.4119
vn -0.0000 0.8285 0.5600
vn -0.0000 0.7220 0.6919
vn -0.0000 0.5946 0.8040
vn -0.0000 0.4502 0.8929
vn -0.0000 0.2928 0.9562
vn -0.0000 0.1270 0.9919
vn -0.0000 -0.0424 0.9991
vn -0.0000 -0.2107 0.9776
vn -0.0000 -0.3729 0.9279
vn -0.0000 -0.5243 0.8515
vn -0.0000 -0.6607 0.7507
vn -0.0000 -0.7780 0.6282
vn -0.0000 -0.8730 0.4877
vn -0.0000 -0.9429 0.3331
vn -0.0000 -0.9856 0.1690
vn -0.0000 -1.0000 -0.0000
vn -0.0000 -0.9856 -0.1690
vn -0.0000 -0.9429 -0.3331
vn -0.0000 -0.8730 -0.4877
vn -0.0000 -0.7780 -0.6282
vn -0.0000 -0.6607 -0.7507
vn -0.0000 -0.5243 -0.8515
vn -0.0000 -0.3729 -0.9279
vn -0.0000 -0.2107 -0.9776
vn -0.0000 -0.0424 -0.9991
vn -0.0000 0.1270 -0.9919
vn -0.0000 0.2928 -0.9562
vn -0.0000 0.4502 -0.8929
vn -0.0000 0.5946 -0.8040
vn -0.0000 0.7220 -0.6919
vn -0.0000 0.8285 -0.5600
vn -0.0000 0.9112 -0.4119
vn -0.0000 0.9677 -0.2520
vn -0.0000 0.9964 -0.0848
vn -0.0000 -0.9960 0.0896
vn -0.0000 -0.9640 0.2660
vn -0.0000 -0.9010 0.4339
vn -0.0000 -0.8090 0.5878
vn -0.0000 -0.6911 0.7228
vn -0.0000 -0.5509 0.8346
vn -0.0000 -0.3930 0.9195
vn -0.0000 -0.2225 0.9749
vn -0.0000 -0.0449 0.9990
vn -0.0000 0.1342 0.9910
vn -0.0000 0.3090 0.9511
vn -0.0000 0.4739 0.8806
vn -0.0000 0.6235 0.7818
vn -0.0000 0.7531 0.6579
vn -0.0000 0.8584 0.5129
vn -0.0000 0.9362 0.3514
vn -0.0000 0.9839 0.1786
vn -0.0000 1.0000 -0.0000
vn -0.0000 0.9839 -0.1786
vn -0.0000 0.9362 -0.3514
vn -0.0000 0.8584 -0.5129
vn -0.0000 0.7531 -0.6579
vn -0.0000 0.6235 -0.7818
vn -0.0000 0.4739 -0.8806
vn -0.0000 0.3090 -0.9511
vn -0.0000 0.1342 -0.9910
vn -0.0000 -0.0449 -0.9990
vn -0.0000 -0.2225 -0.9749
vn -0.0000 -0.3930 -0.9195
vn -0.0000 -0.5509 -0.8346
vn -0.0000 -0.6911 -0.7228
vn -0.0000 -0.8090 -0.5878
vn -0.0000 -0.9010 -0.4339
vn -0.0000 -0.9640 -0.2660
vn -0.0000 -0.9960 -0.0896
vn 1.0000 -0.0000 -0.0000
vt 0.500000 0.938486
vt 0.415423 0.992796
vt 0.500000 1.000000
vt 0.421615 0.931424
vt 0.333280 0.971387
vt 0.345749 0.910469
vt 0.255933 0.936392
vt 0.274841 0.876289
vt 0.185606 0.888817
vt 0.211169 0.829988
vt 0.124324 0.830031
vt 0.156782 0.773051
vt 0.073851 0.761725
vt 0.113425 0.707309
vt 0.035637 0.685862
vt 0.082494 0.634876
vt 0.010782 0.604627
vt 0.064981 0.558078
vt 0.000000 0.520356
vt 0.061450 0.479384
vt 0.003601 0.435474
vt 0.072014 0.401324
vt 0.021484 0.352422
vt 0.096334 0.326407
vt 0.053134 0.273589
vt 0.133629 0.257040
vt 0.097639 0.201245
vt 0.182698 0.195452
vt 0.153718 0.137469
vt 0.241967 0.143625
vt 0.219760 0.084095
vt 0.309528 0.103223
vt 0.293863 0.042661
vt 0.383212 0.075543
vt 0.373897 0.014357
vt 0.460649 0.061477
vt 0.457559 0.000000
vt 0.542441 0.000000
vt 0.539351 0.061477
vt 0.626103 0.014357
vt 0.616788 0.075543
vt 0.706137 0.042661
vt 0.690472 0.103223
vt 0.780240 0.084095
vt 0.758033 0.143625
vt 0.846282 0.137469
vt 0.817302 0.195452
vt 0.902361 0.201245
vt 0.866371 0.257040
vt 0.946866 0.273589
vt 0.903666 0.326407
vt 0.978516 0.352422
vt 0.927986 0.401324
vt 0.996399 0.435474
vt 0.938550 0.479384
vt 1.000000 0.520356
vt 0.935019 0.558078
vt 0.989218 0.604627
vt 0.917506 0.634876
vt 0.964363 0.685862
vt 0.886575 0.707309
vt 0.926149 0.761725
vt 0.843218 0.773051
vt 0.875676 0.830031
vt 0.788831 0.829988
vt 0.814394 0.888817
vt 0.725159 0.876289
vt 0.744067 0.936392
vt 0.654251 0.910469
vt 0.666720 0.971387
vt 0.578385 0.931424
vt 0.584577 0.992796
vt 1.000000 0.500000
vt 1.000000 0.415423
vt 0.000000 0.415423
vt 0.000000 0.500000
vt 1.000000 0.333280
vt 0.000000 0.333280
vt 1.000000 0.255933
vt 0.000000 0.255933
vt 1.000000 0.185606
vt 0.000000 0.185606
vt 1.000000 0.124324
vt 0.000000 0.124324
vt 1.000000 0.073851
vt 0.000000 0.073851
vt 1.000000 0.035637
vt 0.000000 0.035637
vt 1.000000 0.010782
vt 0.000000 0.010782
vt 1.000000 0.000000
vt 0.000000 0.000000
vt 1.000000 0.003601
vt 0.000000 0.003601
vt 1.000000 0.021484
vt 0.000000 0.021484
vt 1.000000 0.053134
vt 0.000000 0.053134
vt 1.000000 0.097639
vt 0.000000 0.097639
vt 1.000000 0.153718
vt 0.000000 0.153718
vt 1.000000 0.219760
vt 0.000000 0.219760
vt 1.000000 0.293863
vt 0.000000 0.293863
vt 1.000000 0.373897
vt 0.000000 0.373897
vt 1.000000 0.457559
vt 0.000000 0.457559
vt 1.000000 0.542441
vt 0.000000 0.542441
vt 1.000000 0.626103
vt 0.000000 0.626103
vt 1.000000 0.706137
vt 0.000000 0.706137
vt 1.000000 0.780240
vt 0.000000 0.780240
vt 1.000000 0.846282
vt 0.000000 0.846282
vt 1.000000 0.902361
vt 0.000000 0.902361
vt 1.000000 0.946866
vt 0.000000 0.946866
vt 1.000000 0.978516
vt 0.000000 0.978516
vt 1.000000 0.996399
vt 0.000000 0.996399
vt 1.000000 1.000000
vt 0.000000 1.000000
vt 1.000000 0.989218
vt 0.000000 0.989218
vt 1.000000 0.964363
vt 0.000000 0.964363
vt 1.000000 0.926149
vt 0.000000 0.926149
vt 1.000000 0.875676
vt 0.000000 0.875676
vt 1.000000 0.814394
vt 0.000000 0.814394
vt 1.000000 0.744067
vt 0.000000 0.744067
vt 1.000000 0.666720
vt 0.000000 0.666720
vt 1.000000 0.584577
vt 0.000000 0.584577
vt 1.000000 0.589368
vt 0.000000 0.589368
vt 1.000000 0.675865
vt 0.000000 0.675865
vt 1.000000 0.756709
vt 0.000000 0.756709
vt 1.000000 0.829302
vt 0.000000 0.829302
vt 1.000000 0.891310
vt 0.000000 0.891310
vt 1.000000 0.940742
vt 0.000000 0.940742
vt 1.000000 0.976008
vt 0.000000 0.976008
vt 1.000000 0.995974
vt 0.000000 0.995974
vt 1.000000 0.987956
vt 0.000000 0.987956
vt 1.000000 0.960228
vt 0.000000 0.960228
vt 1.000000 0.917707
vt 0.000000 0.917707
vt 1.000000 0.861763
vt 0.000000 0.861763
vt 1.000000 0.794189
vt 0.000000 0.794189
vt 1.000000 0.717161
vt 0.000000 0.717161
vt 1.000000 0.633153
vt 0.000000 0.633153
vt 1.000000 0.544865
vt 0.000000 0.544865
vt 1.000000 0.455135
vt 0.000000 0.455135
vt 1.000000 0.366847
vt 0.000000 0.366847
vt 1.000000 0.282839
vt 0.000000 0.282839
vt 1.000000 0.205811
vt 0.000000 0.205811
vt 1.000000 0.138237
vt 0.000000 0.138237
vt 1.000000 0.082293
vt 0.000000 0.082293
vt 1.000000 0.039772
vt 0.000000 0.039772
vt 1.000000 0.012044
vt 0.000000 0.012044
vt 1.000000 0.004026
vt 0.000000 0.004026
vt 1.000000 0.023992
vt 0.000000 0.023992
vt 1.000000 0.059258
vt 0.000000 0.059258
vt 1.000000 0.108690
vt 0.000000 0.108690
vt 1.000000 0.170698
vt 0.000000 0.170698
vt 1.000000 0.243291
vt 0.000000 0.243291
vt 1.000000 0.324135
vt 0.000000 0.324135
vt 1.000000 0.410632
vt 0.000000 0.410632
s 0
usemtl Shape
f 72/1/1 1/2/1 37/3/1
f 71/4/1 2/5/1 1/2/1
f 70/6/1 3/7/1 2/5/1
f 69/8/1 4/9/1 3/7/1
f 68/10/1 5/11/1 4/9/1
f 67/12/1 6/13/1 5/11/1
f 66/14/1 7/15/1 6/13/1
f 65/16/1 8/17/1 7/15/1
f 64/18/1 9/19/1 8/17/1
f 63/20/1 10/21/1 9/19/1
f 62/22/1 11/23/1 10/21/1
f 61/24/1 12/25/1 11/23/1
f 60/26/1 13/27/1 12/25/1
f 59/28/1 14/29/1 13/27/1
f 58/30/1 15/31/1 14/29/1
f 57/32/1 16/33/1 15/31/1
f 56/34/1 17/35/1 16/33/1
f 55/36/1 18/37/1 17/35/1
f 55/36/1 19/38/1 18/37/1
f 54/39/1 20/40/1 19/38/1
f 53/41/1 21/42/1 20/40/1
f 52/43/1 22/44/1 21/42/1
f 51/45/1 23/46/1 22/44/1
f 50/47/1 24/48/1 23/46/1
f 49/49/1 25/50/1 24/48/1
f 48/51/1 26/52/1 25/50/1
f 47/53/1 27/54/1 26/52/1
f 46/55/1 28/56/1 27/54/1
f 45/57/1 29/58/1 28/56/1
f 44/59/1 30/60/1 29/58/1
f 43/61/1 31/62/1 30/60/1
f 42/63/1 32/64/1 31/62/1
f 41/65/1 33/66/1 32/64/1
f 40/67/1 34/68/1 33/66/1
f 39/69/1 35/70/1 34/68/1
f 38/71/1 36/72/1 35/70/1
f 72/1/1 37/3/1 36/72/1
f 36/72/1 38/71/1 72/1/1
f 35/70/1 39/69/1 38/71/1
f 34/68/1 40/67/1 39/69/1
f 33/66/1 41/65/1 40/67/1
f 32/64/1 42/63/1 41/65/1
f 31/62/1 43/61/1 42/63/1
f 30/60/1 44/59/1 43/61/1
f 29/58/1 45/57/1 44/59/1
f 28/56/1 46/55/1 45/57/1
f 27/54/1 47/53/1 46/55/1
f 26/52/1 48/51/1 47/53/1
f 25/50/1 49/49/1 48/51/1
f 24/48/1 50/47/1 49/49/1
f 23/46/1 51/45/1 50/47/1
f 22/44/1 52/43/1 51/45/1
f 21/42/1 53/41/1 52/43/1
f 20/40/1 54/39/1 53/41/1
f 19/38/1 55/36/1 54/39/1
f 17/35/1 56/34/1 55/36/1
f 16/33/1 57/32/1 56/34/1
f 15/31/1 58/30/1 57/32/1
f 14/29/1 59/28/1 58/30/1
f 13/27/1 60/26/1 59/28/1
f 12/25/1 61/24/1 60/26/1
f 11/23/1 62/22/1 61/24/1
f 10/21/1 63/20/1 62/22/1
f 9/19/1 64/18/1 63/20/1
f 8/17/1 65/16/1 64/18/1
f 7/15/1 66/14/1 65/16/1
f 6/13/1 67/12/1 66/14/1
f 5/11/1 68/10/1 67/12/1
f 4/9/1 69/8/1 68/10/1
f 3/7/1 70/6/1 69/8/1
f 2/5/1 71/4/1 70/6/1
f 1/2/1 72/1/1 71/4/1
f 73/73/2 74/74/2 112/75/2
f 73/73/2 112/75/2 111/76/2
f 74/74/3 75/77/3 113/78/3
f 74/74/3 113/78/3 112/75/3
f 75/77/4 76/79/4 114/80/4
f 75/77/4 114/80/4 113/78/4
f 76/79/5 77/81/5 115/82/5
f 76/79/5 115/82/5 114/80/5
f 77/81/6 78/83/6 116/84/6
f 77/81/6 116/84/6 115/82/6
f 78/83/7 79/85/7 117/86/7
f 78/83/7 117/86/7 116/84/7
f 79/85/8 80/87/8 118/88/8
f 79/85/8 118/88/8 117/86/8
f 80/87/9 81/89/9 119/90/9
f 80/87/9 119/90/9 118/88/9
f 81/89/10 82/91/10 120/92/10
f 81/89/10 120/92/10 119/90/10
f 82/91/11 83/93/11 121/94/11
f 82/91/11 121/94/11 120/92/11
f 83/93/12 84/95/12 122/96/12
f 83/93/12 122/96/12 121/94/12
f 84/95/13 85/97/13 123/98/13
f 84/95/13 123/98/13 122/96/13
f 85/97/14 86/99/14 124/100/14
f 85/97/14 124/100/14 123/98/14
f 86/99/15 87/101/15 125/102/15
f 86/99/15 125/102/15 124/100/15
f 87/101/16 88/103/16 126/104/16
f 87/101/16 126/104/16 125/102/16
f 88/103/17 89/105/17 127/106/17
f 88/103/17 127/106/17 126/104/17
f 89/105/18 90/107/18 128/108/18
f 89/105/18 128/108/18 127/106/18
f 90/107/19 91/109/19 129/110/19
f 90/107/19 129/110/19 128/108/19
f 91/109/20 92/111/20 130/112/20
f 91/109/20 130/112/20 129/110/20
f 92/111/21 93/113/21 131/114/21
f 92/111/21 131/114/21 130/112/21
f 93/113/22 94/115/22 132/116/22
f 93/113/22 132/116/22 131/114/22
f 94/115/23 95/117/23 133/118/23
f 94/115/23 133/118/23 132/116/23
f 95/117/24 96/119/24 134/120/24
f 95/117/24 134/120/24 133/118/24
f 96/119/25 97/121/25 135/122/25
f 96/119/25 135/122/25 134/120/25
f 97/121/26 98/123/26 136/124/26
f 97/121/26 136/124/26 135/122/26
f 98/123/27 99/125/27 137/126/27
f 98/123/27 137/126/27 136/124/27
f 99/125/28 100/127/28 138/128/28
f 99/125/28 138/128/28 137/126/28
f 100/127/29 101/129/29 139/130/29
f 100/127/29 139/130/29 138/128/29
f 101/129/30 102/131/30 140/132/30
f 101/129/30 140/132/30 139/130/30
f 102/131/31 103/133/31 141/134/31
f 102/131/31 141/134/31 140/132/31
f 103/133/32 104/135/32 142/136/32
f 103/133/32 142/136/32 141/134/32
f 104/135/33 105/137/33 143/138/33
f 104/135/33 143/138/33 142/136/33
f 105/137/34 106/139/34 144/140/34
f 105/137/34 144/140/34 143/138/34
f 106/139/35 107/141/35 145/142/35
f 106/139/35 145/142/35 144/140/35
f 107/141/36 108/143/36 146/144/36
f 107/141/36 146/144/36 145/142/36
f 108/143/37 109/145/37 147/146/37
f 108/143/37 147/146/37 146/144/37
f 109/145/38 110/73/38 148/76/38
f 109/145/38 148/76/38 147/146/38
f 149/73/39 150/147/39 186/148/39
f 149/73/39 186/148/39 185/76/39
f 150/147/40 151/149/40 187/150/40
f 150/147/40 187/150/40 186/148/40
f 151/149/41 152/151/41 188/152/41
f 151/149/41 188/152/41 187/150/41
f 152/151/42 153/153/42 189/154/42
f 152/151/42 189/154/42 188/152/42
f 153/153/43 154/155/43 190/156/43
f 153/153/43 190/156/43 189/154/43
f 154/155/44 155/157/44 191/158/44
f 154/155/44 191/158/44 190/156/44
f 155/157/45 156/159/45 192/160/45
f 155/157/45 192/160/45 191/158/45
f 156/159/46 157/161/46 193/162/46
f 156/159/46 193/162/46 192/160/46
f 157/161/47 158/129/47 194/130/47
f 157/161/47 194/130/47 193/162/47
f 158/129/48 159/163/48 195/164/48
f 158/129/48 195/164/48 194/130/48
f 159/163/49 160/165/49 196/166/49
f 159/163/49 196/166/49 195/164/49
f 160/165/50 161/167/50 197/168/50
f 160/165/50 197/168/50 196/166/50
f 161/167/51 162/169/51 198/170/51
f 161/167/51 198/170/51 197/168/51
f 162/169/52 163/171/52 199/172/52
f 162/169/52 199/172/52 198/170/52
f 163/171/53 164/173/53 200/174/53
f 163/171/53 200/174/53 199/172/53
f 164/173/54 165/175/54 201/176/54
f 164/173/54 201/176/54 200/174/54
f 165/175/55 166/177/55 202/178/55
f 165/175/55 202/178/55 201/176/55
f 166/177/56 167/179/56 203/180/56
f 166/177/56 203/180/56 202/178/56
f 167/179/57 168/181/57 204/182/57
f 167/179/57 204/182/57 203/180/57
f 168/181/58 169/183/58 205/184/58
f 168/181/58 205/184/58 204/182/58
f 169/183/59 170/185/59 206/186/59
f 169/183/59 206/186/59 205/184/59
f 170/185/60 171/187/60 207/188/60
f 170/185/60 207/188/60 206/186/60
f 171/187/61 172/189/61 208/190/61
f 171/187/61 208/190/61 207/188/61
f 172/189/62 173/191/62 209/192/62
f 172/189/62 209/192/62 208/190/62
f 173/191/63 174/193/63 210/194/63
f 173/191/63 210/194/63 209/192/63
f 174/193/64 175/91/64 211/92/64
f 174/193/64 211/92/64 210/194/64
f 175/91/65 176/195/65 212/196/65
f 175/91/65 212/196/65 211/92/65
f 176/195/66 177/197/66 213/198/66
f 176/195/66 213/198/66 212/196/66
f 177/197/67 178/199/67 214/200/67
f 177/197/67 214/200/67 213/198/67
f 178/199/68 179/201/68 215/202/68
f 178/199/68 215/202/68 214/200/68
f 179/201/69 180/203/69 216/204/69
f 179/201/69 216/204/69 215/202/69
f 180/203/70 181/205/70 217/206/70
f 180/203/70 217/206/70 216/204/70
f 181/205/71 182/207/71 218/208/71
f 181/205/71 218/208/71 217/206/71
f 182/207/72 183/209/72 219/210/72
f 182/207/72 219/210/72 218/208/72
f 183/209/73 184/73/73 220/76/73
f 183/209/73 220/76/73 219/210/73
f 257/72/74 221/3/74 258/1/74
f 221/3/74 222/2/74 258/1/74
f 222/2/74 223/5/74 292/4/74
f 223/5/74 224/7/74 291/6/74
f 224/7/74 225/9/74 290/8/74
f 225/9/74 226/11/74 289/10/74
f 226/11/74 227/13/74 288/12/74
f 227/13/74 228/15/74 287/14/74
f 228/15/74 229/17/74 286/16/74
f 229/17/74 230/19/74 285/18/74
f 230/19/74 231/21/74 284/20/74
f 231/21/74 232/23/74 283/22/74
f 232/23/74 233/25/74 282/24/74
f 233/25/74 234/27/74 281/26/74
f 234/27/74 235/29/74 280/28/74
f 235/29/74 236/31/74 279/30/74
f 236/31/74 237/33/74 278/32/74
f 237/33/74 238/35/74 277/34/74
f 238/35/74 239/37/74 276/36/74
f 239/37/74 240/38/74 276/36/74
f 240/38/74 241/40/74 275/39/74
f 241/40/74 242/42/74 274/41/74
f 242/42/74 243/44/74 273/43/74
f 243/44/74 244/46/74 272/45/74
f 244/46/74 245/48/74 271/47/74
f 245/48/74 246/50/74 270/49/74
f 246/50/74 247/52/74 269/51/74
f 247/52/74 248/54/74 268/53/74
f 248/54/74 249/56/74 267/55/74
f 249/56/74 250/58/74 266/57/74
f 250/58/74 251/60/74 265/59/74
f 251/60/74 252/62/74 264/61/74
f 252/62/74 253/64/74 263/63/74
f 253/64/74 254/66/74 262/65/74
f 254/66/74 255/68/74 261/67/74
f 255/68/74 256/70/74 260/69/74
f 256/70/74 257/72/74 259/71/74
f 292/4/74 258/1/74 222/2/74
f 258/1/74 259/71/74 257/72/74
f 259/71/74 260/69/74 256/70/74
f 260/69/74 261/67/74 255/68/74
f 261/67/74 262/65/74 254/66/74
f 262/65/74 263/63/74 253/64/74
f 263/63/74 264/61/74 252/62/74
f 264/61/74 265/59/74 251/60/74
f 265/59/74 266/57/74 250/58/74
f 266/57/74 267/55/74 249/56/74
f 267/55/74 268/53/74 248/54/74
f 268/53/74 269/51/74 247/52/74
f 269/51/74 270/49/74 246/50/74
f 270/49/74 271/47/74 245/48/74
f 271/47/74 272/45/74 244/46/74
f 272/45/74 273/43/74 243/44/74
f 273/43/74 274/41/74 242/42/74
f 274/41/74 275/39/74 241/40/74
f 275/39/74 276/36/74 240/38/74
f 276/36/74 277/34/74 238/35/74
f 277/34/74 278/32/74 237/33/74
f 278/32/74 279/30/74 236/31/74
f 279/30/74 280/28/74 235/29/74
f 280/28/74 281/26/74 234/27/74
f 281/26/74 282/24/74 233/25/74
f 282/24/74 283/22/74 232/23/74
f 283/22/74 284/20/74 231/21/74
f 284/20/74 285/18/74 230/19/74
f 285/18/74 286/16/74 229/17/74
f 286/16/74 287/14/74 228/15/74
f 287/14/74 288/12/74 227/13/74
f 288/12/74 289/10/74 226/11/74
f 289/10/74 290/8/74 225/9/74
f 290/8/74 291/6/74 224/7/74
f 291/6/74 292/4/74 223/5/74
