# Blender 4.0.2
# www.blender.org
mtllib untitled.mtl
o welding_gun
v -0.085620 0.038100 0.075286
v -0.085620 0.000000 0.075286
v -0.085150 0.038100 0.078385
v -0.085150 0.000000 0.078385
v -0.085454 0.038100 0.081505
v -0.085454 0.000000 0.081505
v -0.086512 0.038100 0.084456
v -0.086512 0.000000 0.084456
v -0.088261 0.038100 0.087057
v -0.088261 0.000000 0.087057
v -0.090594 0.038100 0.089151
v -0.090594 0.000000 0.089151
v -0.110035 0.038100 -0.011505
v -0.110035 0.000000 -0.011505
v -0.094079 0.000000 0.091575
v -0.096325 0.000000 0.092821
v -0.094079 0.038100 0.091575
v -0.096325 0.038100 0.092821
v -0.098776 0.000000 0.093589
v -0.098776 0.038100 0.093589
v -0.101331 0.000000 0.093849
v -0.101331 0.038100 0.093849
v -0.133493 0.000000 0.093849
v -0.133493 0.038100 0.093849
v -0.145643 0.038100 0.084847
v -0.144317 0.038100 0.087793
v -0.145643 0.000000 0.084847
v -0.144317 0.000000 0.087793
v -0.142290 0.038100 0.090309
v -0.142290 0.000000 0.090309
v -0.139695 0.038100 0.092232
v -0.139695 0.000000 0.092232
v -0.136698 0.038100 0.093438
v -0.136698 0.000000 0.093438
v -0.179209 0.038100 -0.081760
v -0.182145 0.038100 -0.081416
v -0.179209 0.000000 -0.081760
v -0.182145 0.000000 -0.081416
v -0.184922 0.038100 -0.080403
v -0.184922 0.000000 -0.080403
v -0.187389 0.038100 -0.078775
v -0.187389 0.000000 -0.078775
v -0.189413 0.000000 -0.076621
v -0.189413 0.038100 -0.076621
v -0.190885 0.000000 -0.074057
v -0.190885 0.038100 -0.074057
v -0.191723 0.038100 -0.071223
v -0.191723 0.000000 -0.071223
v -0.191884 0.038100 -0.068271
v -0.191884 0.000000 -0.068271
v -0.191359 0.038100 -0.065362
v -0.191359 0.000000 -0.065362
v -0.259120 0.000000 -0.012963
v -0.627034 0.000000 -0.012963
v -0.609059 0.000000 -0.023643
v -0.261758 0.000000 -0.023643
v -0.246034 0.000000 -0.050016
v -0.263814 0.000000 -0.031970
v -0.263814 0.000000 -0.050016
v -0.612248 0.000000 -0.026958
v -0.627034 0.000000 -0.026958
v -0.246034 0.000000 -0.113504
v -0.079646 0.000000 -0.123117
v -0.263814 0.000000 -0.123117
v -0.263814 0.000000 -0.113504
v -0.133581 0.000000 -0.081760
v -0.073465 0.000000 -0.111028
v -0.085827 0.000000 -0.081760
v -0.131479 0.000000 -0.075314
v -0.130204 0.000000 -0.068654
v -0.129777 0.000000 -0.061887
v -0.130204 0.000000 -0.055121
v -0.123470 0.000000 -0.036381
v -0.119228 0.000000 -0.032417
v -0.115681 0.000000 -0.027821
v -0.112922 0.000000 -0.022713
v -0.111023 0.000000 -0.017226
v -0.044823 0.000000 0.084305
v -0.061670 0.000000 0.109575
v -0.085259 0.000000 0.116755
v -0.176244 0.000000 0.116755
v -0.208542 0.000000 0.036635
v -0.254427 0.000000 0.006045
v -0.131479 0.000000 -0.048461
v -0.128297 0.000000 -0.039609
v -0.133581 0.000000 -0.042015
v -0.484045 0.215900 -0.081528
v -0.484045 0.127000 -0.081528
v -0.483579 0.215900 -0.085666
v -0.485420 0.127000 -0.077599
v -0.485420 0.215900 -0.077599
v -0.487636 0.127000 -0.074073
v -0.486613 0.055536 -0.075486
v -0.488894 0.054934 -0.072651
v -0.484884 0.055955 -0.078823
v -0.483861 0.056065 -0.082443
v -0.483579 0.127000 -0.085666
v -0.483584 0.055819 -0.086077
v -0.484018 0.055214 -0.089682
v -0.484045 0.127000 -0.089803
v -0.485156 0.054273 -0.093158
v -0.485420 0.127000 -0.093733
v -0.485420 0.215900 -0.093733
v -0.487636 0.215900 -0.097258
v -0.484045 0.215900 -0.089803
v -0.487636 0.215900 -0.074073
v -0.490579 0.127000 -0.071129
v -0.491664 0.054262 -0.070327
v -0.490579 0.215900 -0.071129
v -0.494105 0.127000 -0.068914
v -0.494939 0.053630 -0.068538
v -0.494105 0.215900 -0.068914
v -0.498034 0.127000 -0.067539
v -0.498522 0.053188 -0.067435
v -0.498034 0.215900 -0.067539
v -0.502172 0.127000 -0.067073
v -0.502172 0.053034 -0.067073
v -0.502172 0.215900 -0.067073
v -0.506309 0.127000 -0.067539
v -0.505821 0.053188 -0.067435
v -0.509405 0.053630 -0.068538
v -0.506309 0.215900 -0.067539
v -0.510239 0.127000 -0.068914
v -0.512679 0.054262 -0.070327
v -0.510239 0.215900 -0.068914
v -0.513764 0.127000 -0.071129
v -0.515449 0.054934 -0.072651
v -0.513764 0.215900 -0.071129
v -0.516708 0.127000 -0.074073
v -0.517730 0.055536 -0.075486
v -0.516708 0.215900 -0.074073
v -0.518923 0.127000 -0.077599
v -0.519459 0.055955 -0.078823
v -0.518923 0.215900 -0.077599
v -0.520298 0.127000 -0.081528
v -0.520483 0.056065 -0.082443
v -0.520298 0.215900 -0.081528
v -0.520764 0.127000 -0.085666
v -0.520760 0.055819 -0.086077
v -0.520764 0.215900 -0.085666
v -0.520298 0.127000 -0.089803
v -0.520325 0.055214 -0.089682
v -0.520298 0.215900 -0.089803
v -0.518923 0.127000 -0.093733
v -0.519188 0.054273 -0.093158
v -0.517424 0.053098 -0.096298
v -0.518923 0.215900 -0.093733
v -0.516708 0.127000 -0.097258
v -0.515188 0.051843 -0.098942
v -0.516708 0.215900 -0.097258
v -0.513764 0.127000 -0.100202
v -0.512490 0.050599 -0.101132
v -0.513764 0.215900 -0.100202
v -0.510239 0.127000 -0.102417
v -0.509304 0.049487 -0.102835
v -0.510239 0.215900 -0.102417
v -0.506309 0.127000 -0.103792
v -0.505792 0.048721 -0.103902
v -0.506309 0.215900 -0.103792
v -0.502172 0.127000 -0.104258
v -0.502172 0.048452 -0.104258
v -0.502172 0.215900 -0.104258
v -0.498034 0.127000 -0.103792
v -0.498551 0.048721 -0.103902
v -0.495039 0.049487 -0.102835
v -0.498034 0.215900 -0.103792
v -0.494105 0.127000 -0.102417
v -0.491853 0.050599 -0.101132
v -0.494105 0.215900 -0.102417
v -0.490579 0.127000 -0.100202
v -0.489156 0.051843 -0.098942
v -0.490579 0.215900 -0.100202
v -0.487636 0.127000 -0.097258
v -0.486919 0.053098 -0.096298
v -0.131475 0.006350 -0.075299
v -0.140221 0.006350 -0.070889
v -0.133581 0.006350 -0.081760
v -0.139634 0.006350 -0.065189
v -0.130201 0.006350 -0.068624
v -0.129777 0.006350 -0.061842
v -0.139856 0.006350 -0.059463
v -0.130212 0.006350 -0.055061
v -0.131498 0.006350 -0.048388
v -0.140882 0.006350 -0.053825
v -0.142693 0.006350 -0.048388
v -0.141606 0.006350 -0.076450
v -0.143761 0.006350 -0.081760
v -0.131498 0.031750 -0.048388
v -0.142693 0.031750 -0.048388
v -0.140882 0.031750 -0.053825
v -0.139856 0.031750 -0.059463
v -0.139634 0.031750 -0.065189
v -0.140221 0.031750 -0.070889
v -0.141606 0.031750 -0.076450
v -0.143761 0.031750 -0.081760
v -0.130212 0.031750 -0.055061
v -0.129777 0.031750 -0.061842
v -0.130201 0.031750 -0.068624
v -0.131475 0.031750 -0.075299
v -0.133581 0.031750 -0.081760
v -0.133581 0.038100 -0.081760
v -0.131479 0.038100 -0.075314
v -0.130204 0.038100 -0.068654
v -0.129777 0.038100 -0.061887
v -0.130204 0.038100 -0.055121
v -0.131479 0.038100 -0.048461
v -0.133581 0.038100 -0.042015
v -0.644814 0.017780 -0.044738
v -0.629349 0.017780 -0.044738
v -0.644728 0.016037 -0.044653
v -0.629267 0.016037 -0.044653
v -0.644472 0.014311 -0.044397
v -0.629021 0.014311 -0.044397
v -0.643460 0.010976 -0.043385
v -0.628048 0.010976 -0.043385
v -0.641817 0.007902 -0.041742
v -0.626467 0.007902 -0.041742
v -0.639606 0.005208 -0.039531
v -0.624341 0.005208 -0.039531
v -0.636912 0.002996 -0.036836
v -0.621749 0.002996 -0.036836
v -0.633838 0.001353 -0.033762
v -0.618793 0.001353 -0.033762
v -0.630502 0.000342 -0.030427
v -0.615584 0.000342 -0.030427
v -0.630990 0.000446 -0.012963
v -0.634748 0.001761 -0.012963
v -0.638119 0.003879 -0.012963
v -0.640935 0.006694 -0.012963
v -0.643053 0.010066 -0.012963
v -0.644368 0.013824 -0.012963
v -0.644814 0.017780 -0.012963
v -0.615584 0.037758 -0.030427
v -0.618793 0.036747 -0.033762
v -0.621749 0.035104 -0.036836
v -0.624341 0.032892 -0.039531
v -0.626467 0.030198 -0.041742
v -0.628048 0.027124 -0.043385
v -0.629021 0.023789 -0.044397
v -0.629349 0.019050 -0.044738
v -0.629349 0.020320 -0.044738
v -0.629267 0.022063 -0.044653
v -0.612248 0.038100 -0.026958
v -0.609059 0.038100 -0.023643
v -0.627034 0.038100 -0.026958
v -0.630502 0.037758 -0.030427
v -0.633838 0.036747 -0.033762
v -0.636912 0.035104 -0.036836
v -0.639606 0.032892 -0.039531
v -0.641817 0.030198 -0.041742
v -0.643460 0.027124 -0.043385
v -0.644472 0.023789 -0.044397
v -0.644728 0.022063 -0.044653
v -0.644814 0.020320 -0.044738
v -0.644814 0.020320 -0.012963
v -0.644368 0.024276 -0.012963
v -0.643053 0.028034 -0.012963
v -0.640935 0.031406 -0.012963
v -0.638119 0.034221 -0.012963
v -0.634748 0.036339 -0.012963
v -0.630990 0.037654 -0.012963
v -0.627034 0.038100 -0.012963
v -0.644814 0.019050 -0.044738
v -0.261758 0.038100 -0.023643
v -0.259120 0.038100 -0.012963
v -0.079646 0.038100 -0.123117
v -0.073465 0.038100 -0.111028
v -0.085827 0.038100 -0.081760
v -0.123470 0.038100 -0.036381
v -0.119228 0.038100 -0.032417
v -0.115681 0.038100 -0.027821
v -0.112922 0.038100 -0.022713
v -0.111023 0.038100 -0.017226
v -0.044823 0.038100 0.084305
v -0.061670 0.038100 0.109575
v -0.085259 0.038100 0.116755
v -0.176244 0.038100 0.116755
v -0.208542 0.038100 0.036635
v -0.202252 0.038100 -0.012555
v -0.204270 0.038100 -0.009925
v -0.206900 0.038100 -0.007906
v -0.209963 0.038100 -0.006638
v -0.213250 0.038100 -0.006205
v -0.254427 0.038100 0.006045
v -0.216537 0.038100 -0.006638
v -0.219600 0.038100 -0.007906
v -0.222230 0.038100 -0.009925
v -0.224249 0.038100 -0.012555
v -0.225517 0.038100 -0.015618
v -0.225950 0.038100 -0.018905
v -0.225517 0.038100 -0.022192
v -0.224249 0.038100 -0.025255
v -0.263814 0.038100 -0.031970
v -0.222230 0.038100 -0.027885
v -0.219600 0.038100 -0.029903
v -0.246034 0.038100 -0.050016
v -0.216537 0.038100 -0.031172
v -0.214722 0.038100 -0.046607
v -0.217352 0.038100 -0.048625
v -0.219371 0.038100 -0.051255
v -0.220639 0.038100 -0.054318
v -0.221072 0.038100 -0.057605
v -0.220639 0.038100 -0.060892
v -0.219371 0.038100 -0.063955
v -0.217352 0.038100 -0.066586
v -0.246034 0.038100 -0.113504
v -0.214722 0.038100 -0.068604
v -0.211659 0.038100 -0.069873
v -0.208372 0.038100 -0.070305
v -0.128297 0.038100 -0.039609
v -0.200550 0.038100 -0.018905
v -0.196105 0.038100 -0.054318
v -0.195672 0.038100 -0.057605
v -0.196105 0.038100 -0.060892
v -0.197373 0.038100 -0.063955
v -0.199392 0.038100 -0.066586
v -0.202022 0.038100 -0.068604
v -0.205085 0.038100 -0.069873
v -0.263814 0.038100 -0.123117
v -0.263814 0.038100 -0.113504
v -0.263814 0.038100 -0.050016
v -0.200983 0.038100 -0.022192
v -0.197373 0.038100 -0.051255
v -0.202252 0.038100 -0.025255
v -0.199392 0.038100 -0.048625
v -0.204270 0.038100 -0.027885
v -0.202022 0.038100 -0.046607
v -0.206900 0.038100 -0.029903
v -0.205085 0.038100 -0.045338
v -0.209963 0.038100 -0.031172
v -0.208372 0.038100 -0.044905
v -0.213250 0.038100 -0.031605
v -0.211659 0.038100 -0.045338
v -0.200983 0.038100 -0.015618
v -0.695614 0.022058 -0.092986
v -0.695614 0.019050 -0.093382
v -0.695614 0.019050 -0.087794
v -0.695614 0.020612 -0.087588
v -0.695614 0.024861 -0.091825
v -0.695614 0.022067 -0.086985
v -0.695614 0.027268 -0.089978
v -0.695614 0.023317 -0.086027
v -0.695614 0.029115 -0.087571
v -0.695614 0.024275 -0.084777
v -0.695614 0.030276 -0.084768
v -0.695614 0.024878 -0.083322
v -0.695614 0.030672 -0.081760
v -0.695614 0.025084 -0.081760
v -0.695614 0.030276 -0.078752
v -0.695614 0.024878 -0.080198
v -0.695614 0.024275 -0.078743
v -0.695614 0.029115 -0.075949
v -0.695614 0.023317 -0.077493
v -0.695614 0.027268 -0.073542
v -0.695614 0.022067 -0.076535
v -0.695614 0.024861 -0.071695
v -0.695614 0.020612 -0.075932
v -0.695614 0.022058 -0.070534
v -0.695614 0.019050 -0.075726
v -0.695614 0.019050 -0.070138
v -0.695614 0.016042 -0.070534
v -0.695614 0.013239 -0.091825
v -0.695614 0.017488 -0.087588
v -0.695614 0.016042 -0.092986
v -0.695614 0.016033 -0.086985
v -0.695614 0.010832 -0.089978
v -0.695614 0.014783 -0.086027
v -0.695614 0.008985 -0.087571
v -0.695614 0.013825 -0.084777
v -0.695614 0.007824 -0.084768
v -0.695614 0.013222 -0.083322
v -0.695614 0.007428 -0.081760
v -0.695614 0.013016 -0.081760
v -0.695614 0.013222 -0.080198
v -0.695614 0.007824 -0.078752
v -0.695614 0.013825 -0.078743
v -0.695614 0.008985 -0.075949
v -0.695614 0.014783 -0.077493
v -0.695614 0.010832 -0.073542
v -0.695614 0.016033 -0.076535
v -0.695614 0.013239 -0.071695
v -0.695614 0.017488 -0.075932
v -0.644814 0.022058 -0.092986
v -0.644814 0.024861 -0.091825
v -0.644814 0.027268 -0.089978
v -0.644814 0.029115 -0.087571
v -0.644814 0.030276 -0.084768
v -0.644814 0.030672 -0.081760
v -0.644814 0.030276 -0.078752
v -0.644814 0.029115 -0.075949
v -0.644814 0.027268 -0.073542
v -0.644814 0.024861 -0.071695
v -0.644814 0.022058 -0.070534
v -0.644814 0.019050 -0.070138
v -0.644814 0.016042 -0.070534
v -0.644814 0.013239 -0.071695
v -0.644814 0.010832 -0.073542
v -0.644814 0.008985 -0.075949
v -0.644814 0.007824 -0.078752
v -0.644814 0.007428 -0.081760
v -0.644814 0.007824 -0.084768
v -0.644814 0.008985 -0.087571
v -0.644814 0.010832 -0.089978
v -0.644814 0.013239 -0.091825
v -0.644814 0.016042 -0.092986
v -0.644814 0.019050 -0.093382
v -0.724987 0.019050 -0.087794
v -0.724987 0.017488 -0.087588
v -0.724987 0.020612 -0.087588
v -0.724987 0.022067 -0.086985
v -0.724987 0.016033 -0.086985
v -0.724987 0.023317 -0.086027
v -0.724987 0.014783 -0.086027
v -0.724987 0.024275 -0.084777
v -0.724987 0.013825 -0.084777
v -0.724987 0.024878 -0.083322
v -0.724987 0.013222 -0.083322
v -0.724987 0.025084 -0.081760
v -0.724987 0.013016 -0.081760
v -0.724987 0.024878 -0.080198
v -0.724987 0.013222 -0.080198
v -0.724987 0.024275 -0.078743
v -0.724987 0.013825 -0.078743
v -0.724987 0.023317 -0.077493
v -0.724987 0.014783 -0.077493
v -0.724987 0.022067 -0.076535
v -0.724987 0.016033 -0.076535
v -0.724987 0.020612 -0.075932
v -0.724987 0.017488 -0.075932
v -0.724987 0.019050 -0.075726
v -0.200983 0.060960 -0.015618
v -0.200550 0.060960 -0.018905
v -0.202252 0.060960 -0.012555
v -0.204270 0.060960 -0.009925
v -0.206900 0.060960 -0.007906
v -0.209963 0.060960 -0.006638
v -0.213250 0.060960 -0.006205
v -0.216537 0.060960 -0.006638
v -0.219600 0.060960 -0.007906
v -0.222230 0.060960 -0.009925
v -0.224249 0.060960 -0.012555
v -0.225517 0.060960 -0.015618
v -0.225950 0.060960 -0.018905
v -0.225517 0.060960 -0.022192
v -0.224249 0.060960 -0.025255
v -0.222230 0.060960 -0.027885
v -0.219600 0.060960 -0.029903
v -0.216537 0.060960 -0.031172
v -0.213250 0.060960 -0.031605
v -0.209963 0.060960 -0.031172
v -0.206900 0.060960 -0.029903
v -0.204270 0.060960 -0.027885
v -0.202252 0.060960 -0.025255
v -0.200983 0.060960 -0.022192
v -0.196105 0.060960 -0.054318
v -0.195672 0.060960 -0.057605
v -0.197373 0.060960 -0.051255
v -0.199392 0.060960 -0.048625
v -0.202022 0.060960 -0.046607
v -0.205085 0.060960 -0.045338
v -0.208372 0.060960 -0.044905
v -0.211659 0.060960 -0.045338
v -0.214722 0.060960 -0.046607
v -0.217352 0.060960 -0.048625
v -0.219371 0.060960 -0.051255
v -0.220639 0.060960 -0.054318
v -0.221072 0.060960 -0.057605
v -0.220639 0.060960 -0.060892
v -0.219371 0.060960 -0.063955
v -0.217352 0.060960 -0.066586
v -0.214722 0.060960 -0.068604
v -0.211659 0.060960 -0.069873
v -0.208372 0.060960 -0.070305
v -0.205085 0.060960 -0.069873
v -0.202022 0.060960 -0.068604
v -0.199392 0.060960 -0.066586
v -0.197373 0.060960 -0.063955
v -0.196105 0.060960 -0.060892
v -0.263814 -0.017780 -0.077996
v -0.263814 -0.017780 -0.085524
v -0.263787 -0.016817 -0.072585
v -0.263787 -0.016817 -0.090936
v -0.263605 -0.015066 -0.067383
v -0.263605 -0.015066 -0.096137
v -0.263049 -0.012623 -0.100929
v -0.263049 -0.012623 -0.062592
v -0.262547 -0.011190 -0.060402
v -0.262547 -0.011190 -0.103118
v -0.261847 -0.009652 -0.105144
v -0.261847 -0.009652 -0.058376
v -0.260910 -0.008042 -0.056529
v -0.260910 -0.008042 -0.106991
v -0.259694 -0.006399 -0.108648
v -0.259694 -0.006399 -0.054872
v -0.258149 -0.004767 -0.053416
v -0.258149 -0.004767 -0.110104
v -0.256227 -0.003212 -0.111340
v -0.256227 -0.003212 -0.052180
v -0.253963 -0.001866 -0.051213
v -0.253963 -0.001866 -0.112307
v -0.251438 -0.000841 -0.112984
v -0.251438 -0.000841 -0.050536
v -0.248752 -0.000209 -0.113378
v -0.248752 -0.000209 -0.050142
v -0.263814 -0.017950 -0.083016
v -0.263814 -0.017950 -0.080504
v -0.263814 0.055880 -0.085524
v -0.263814 0.055880 -0.077996
v -0.263787 0.054917 -0.090936
v -0.263787 0.054917 -0.072585
v -0.263605 0.053166 -0.096137
v -0.263605 0.053166 -0.067383
v -0.263049 0.050723 -0.062592
v -0.263049 0.050723 -0.100929
v -0.262547 0.049290 -0.103118
v -0.262547 0.049290 -0.060402
v -0.261847 0.047752 -0.058376
v -0.261847 0.047752 -0.105144
v -0.260910 0.046142 -0.106991
v -0.260910 0.046142 -0.056529
v -0.259694 0.044499 -0.054872
v -0.259694 0.044499 -0.108648
v -0.258149 0.042867 -0.110104
v -0.258149 0.042867 -0.053416
v -0.256227 0.041312 -0.052180
v -0.256227 0.041312 -0.111340
v -0.253963 0.039966 -0.112307
v -0.253963 0.039966 -0.051213
v -0.251438 0.038941 -0.050536
v -0.251438 0.038941 -0.112984
v -0.248752 0.038309 -0.050142
v -0.248752 0.038309 -0.113378
v -0.263814 0.056050 -0.083016
v -0.263814 0.056050 -0.080504
v -0.445424 0.048647 -0.104001
v -0.445424 0.051841 -0.098946
v -0.445424 0.054167 -0.093484
v -0.445424 0.055592 -0.087699
v -0.445424 0.056072 -0.081760
v -0.445424 0.055592 -0.075821
v -0.445424 0.054167 -0.070036
v -0.445424 0.051831 -0.064555
v -0.345729 0.051831 -0.064555
v -0.345729 0.048647 -0.059519
v -0.345729 0.054167 -0.070036
v -0.345729 0.051836 -0.098957
v -0.345729 0.054167 -0.093484
v -0.345729 0.048647 -0.104001
v -0.445424 0.044696 -0.108460
v -0.545119 0.044696 -0.108460
v -0.545119 0.048647 -0.104001
v -0.644814 0.047727 -0.105174
v -0.644814 0.051112 -0.100271
v -0.545119 0.051840 -0.098947
v -0.644814 0.053666 -0.094888
v -0.345729 0.055592 -0.087699
v -0.345729 0.056072 -0.081760
v -0.345729 0.055592 -0.075821
v -0.545119 0.051831 -0.064555
v -0.445424 0.048647 -0.059519
v -0.545119 0.048647 -0.059519
v -0.445424 0.044696 -0.055060
v -0.545119 0.044696 -0.055060
v -0.445424 0.040081 -0.051292
v -0.545119 0.040081 -0.051292
v -0.445424 0.034921 -0.048313
v -0.545119 0.034921 -0.048313
v -0.445424 0.029350 -0.046200
v -0.545119 0.029350 -0.046200
v -0.445424 0.023512 -0.045008
v -0.545119 0.023512 -0.045008
v -0.445424 0.017559 -0.044768
v -0.545119 0.017559 -0.044768
v -0.445424 0.011645 -0.045486
v -0.545119 0.011645 -0.045486
v -0.445424 0.005922 -0.047144
v -0.545119 0.005922 -0.047144
v -0.445424 0.000539 -0.049698
v -0.545119 0.000539 -0.049698
v -0.445424 -0.004364 -0.053083
v -0.545119 -0.004364 -0.053083
v -0.445424 -0.008661 -0.057210
v -0.545119 -0.008661 -0.057210
v -0.445424 -0.012240 -0.061973
v -0.545119 -0.012240 -0.061973
v -0.445424 -0.015009 -0.067249
v -0.545119 -0.015009 -0.067249
v -0.445424 -0.016896 -0.072900
v -0.545119 -0.016896 -0.072900
v -0.445424 -0.017852 -0.078781
v -0.545119 -0.017852 -0.078781
v -0.445424 -0.017852 -0.084739
v -0.545119 -0.017852 -0.084739
v -0.445424 -0.016896 -0.090620
v -0.545119 -0.016896 -0.090620
v -0.445424 -0.015009 -0.096271
v -0.545119 -0.015009 -0.096271
v -0.445424 -0.012240 -0.101547
v -0.545119 -0.012240 -0.101547
v -0.445424 -0.008661 -0.106310
v -0.545119 -0.008661 -0.106310
v -0.445424 -0.004364 -0.110437
v -0.545119 -0.004364 -0.110437
v -0.445424 0.000539 -0.113822
v -0.545119 0.000539 -0.113822
v -0.445424 0.005922 -0.116376
v -0.545119 0.005922 -0.116376
v -0.445424 0.011645 -0.118034
v -0.545119 0.011645 -0.118034
v -0.445424 0.017559 -0.118752
v -0.545119 0.017559 -0.118752
v -0.445424 0.023512 -0.118512
v -0.545119 0.023512 -0.118512
v -0.445424 0.029350 -0.117320
v -0.545119 0.029350 -0.117320
v -0.445424 0.034921 -0.115207
v -0.545119 0.034921 -0.115207
v -0.445424 0.040081 -0.112228
v -0.545119 0.040081 -0.112228
v -0.345729 0.044696 -0.108460
v -0.345729 0.040081 -0.112228
v -0.545119 0.054167 -0.070036
v -0.644814 0.052497 -0.065889
v -0.644814 0.054610 -0.071460
v -0.644814 0.049518 -0.060729
v -0.644814 0.045750 -0.056114
v -0.644814 0.041291 -0.052163
v -0.644814 0.036255 -0.048979
v -0.644814 0.030774 -0.046643
v -0.644814 0.024989 -0.045218
v -0.644814 0.013111 -0.045218
v -0.644814 0.007326 -0.046643
v -0.644814 0.001845 -0.048979
v -0.644814 -0.003191 -0.052163
v -0.644814 -0.007650 -0.056114
v -0.644814 -0.011418 -0.060729
v -0.644814 -0.014397 -0.065889
v -0.644814 -0.016510 -0.071460
v -0.644814 -0.017702 -0.077298
v -0.644814 -0.017942 -0.083251
v -0.644814 -0.017224 -0.089165
v -0.644814 -0.015566 -0.094888
v -0.644814 -0.013012 -0.100271
v -0.644814 -0.009627 -0.105174
v -0.644814 -0.005500 -0.109471
v -0.644814 -0.000737 -0.113050
v -0.644814 0.004539 -0.115819
v -0.644814 0.010190 -0.117706
v -0.644814 0.016071 -0.118662
v -0.644814 0.022029 -0.118662
v -0.644814 0.027910 -0.117706
v -0.644814 0.033561 -0.115819
v -0.644814 0.038837 -0.113050
v -0.644814 0.043600 -0.109471
v -0.545119 0.055592 -0.075821
v -0.545119 0.056072 -0.081760
v -0.545119 0.055592 -0.087699
v -0.545119 0.054167 -0.093484
v -0.644814 0.055324 -0.089165
v -0.644814 0.056042 -0.083251
v -0.644814 0.055802 -0.077298
v -0.263814 0.032991 -0.116057
v -0.345729 0.034921 -0.115207
v -0.345729 0.029350 -0.117320
v -0.263814 0.027549 -0.117793
v -0.345729 0.023512 -0.118512
v -0.263814 0.021906 -0.118671
v -0.345729 0.017559 -0.118752
v -0.263814 0.016194 -0.118671
v -0.345729 0.011645 -0.118034
v -0.263814 0.010551 -0.117793
v -0.345729 0.005922 -0.116376
v -0.263814 0.005109 -0.116057
v -0.345729 0.000539 -0.113822
v -0.345729 -0.004364 -0.110437
v -0.345729 -0.008661 -0.106310
v -0.345729 -0.012240 -0.101547
v -0.345729 -0.015009 -0.096271
v -0.345729 -0.016896 -0.090620
v -0.345729 -0.017852 -0.084739
v -0.345729 -0.017852 -0.078781
v -0.345729 -0.016896 -0.072900
v -0.345729 -0.015009 -0.067249
v -0.345729 -0.012240 -0.061973
v -0.345729 -0.008661 -0.057210
v -0.345729 -0.004364 -0.053083
v -0.345729 0.000539 -0.049698
v -0.263814 0.005109 -0.047463
v -0.345729 0.005922 -0.047144
v -0.263814 0.010551 -0.045727
v -0.345729 0.011645 -0.045486
v -0.263814 0.016194 -0.044849
v -0.345729 0.017559 -0.044768
v -0.263814 0.021906 -0.044849
v -0.345729 0.023512 -0.045008
v -0.263814 0.027549 -0.045727
v -0.345729 0.029350 -0.046200
v -0.263814 0.032991 -0.047463
v -0.345729 0.034921 -0.048313
v -0.345729 0.040081 -0.051292
v -0.345729 0.044696 -0.055060
vn -0.9887 -0.0000 0.1499
vn -0.9953 -0.0000 -0.0968
vn -0.9413 -0.0000 -0.3377
vn -0.8299 -0.0000 -0.5579
vn -0.6680 -0.0000 -0.7442
vn -0.9626 -0.0000 0.2708
vn -0.4851 -0.0000 -0.8745
vn -0.2992 -0.0000 -0.9542
vn -0.1011 -0.0000 -0.9949
vn -0.0000 -0.0000 -1.0000
vn 0.9119 -0.0000 -0.4105
vn 0.7788 -0.0000 -0.6273
vn 0.5953 -0.0000 -0.8035
vn 0.3733 -0.0000 -0.9277
vn 0.1272 -0.0000 -0.9919
vn 0.1164 -0.0000 0.9932
vn 0.3428 -0.0000 0.9394
vn 0.5507 -0.0000 0.8347
vn 0.7287 -0.0000 0.6848
vn 0.8673 -0.0000 0.4978
vn 0.9589 -0.0000 0.2838
vn 0.9985 -0.0000 0.0544
vn 0.9841 -0.0000 -0.1778
vn 0.9567 -0.0000 -0.2912
vn -0.0000 -1.0000 -0.0000
vn 0.9937 -0.0000 0.1120
vn 0.9439 -0.0000 0.3303
vn 0.8467 -0.0000 0.5320
vn 0.7794 -0.0012 0.6266
vn 0.8467 0.0016 0.5320
vn 0.8879 -0.0012 0.4600
vn 0.9439 0.0014 0.3303
vn 0.9623 -0.0010 0.2721
vn 0.9971 -0.0005 0.0760
vn 0.9928 0.0006 -0.1197
vn 0.9937 0.0002 -0.1120
vn 0.9504 -0.0002 -0.3110
vn 0.9439 0.0008 -0.3303
vn 0.8467 -0.0000 -0.5320
vn 0.9439 -0.0000 -0.3303
vn 0.9937 -0.0000 -0.1120
vn 0.9937 0.0011 0.1120
vn 0.7071 -0.0000 0.7071
vn 0.6428 -0.0011 0.7660
vn 0.7071 0.0016 0.7071
vn 0.5320 -0.0000 0.8467
vn 0.4796 -0.0009 0.8775
vn 0.5320 0.0014 0.8467
vn 0.3303 -0.0000 0.9439
vn 0.2942 -0.0006 0.9557
vn 0.3303 0.0011 0.9439
vn 0.1120 -0.0000 0.9937
vn 0.0986 -0.0000 0.9951
vn 0.1120 0.0007 0.9937
vn -0.1120 -0.0000 0.9937
vn -0.2942 -0.0006 0.9557
vn -0.1120 0.0007 0.9937
vn -0.0986 -0.0000 0.9951
vn -0.3303 -0.0000 0.9439
vn -0.4796 -0.0009 0.8775
vn -0.3303 0.0011 0.9439
vn -0.5320 -0.0000 0.8467
vn -0.6428 -0.0011 0.7660
vn -0.5320 0.0014 0.8467
vn -0.7071 -0.0000 0.7071
vn -0.7794 -0.0012 0.6266
vn -0.7071 0.0016 0.7071
vn -0.8467 -0.0000 0.5320
vn -0.8879 -0.0012 0.4600
vn -0.8467 0.0016 0.5320
vn -0.9439 -0.0000 0.3303
vn -0.9623 -0.0010 0.2721
vn -0.9439 0.0014 0.3303
vn -0.9937 -0.0000 0.1119
vn -0.9971 -0.0005 0.0760
vn -0.9937 0.0011 0.1119
vn -0.9937 -0.0000 0.1120
vn -0.9937 -0.0000 -0.1120
vn -0.9928 0.0002 -0.1197
vn -0.9937 0.0006 -0.1120
vn -0.9937 -0.0000 -0.1119
vn -0.9439 -0.0000 -0.3303
vn -0.8720 -0.0007 -0.4895
vn -0.9439 0.0008 -0.3303
vn -0.9504 -0.0002 -0.3110
vn -0.8467 -0.0000 -0.5320
vn -0.7637 -0.0010 -0.6455
vn -0.8467 0.0013 -0.5320
vn -0.7071 -0.0000 -0.7071
vn -0.6306 -0.0011 -0.7761
vn -0.7071 0.0015 -0.7071
vn -0.5320 -0.0000 -0.8467
vn -0.4718 -0.0009 -0.8817
vn -0.5320 0.0014 -0.8467
vn -0.3303 -0.0000 -0.9439
vn -0.2907 -0.0006 -0.9568
vn -0.3303 0.0011 -0.9439
vn -0.1120 -0.0000 -0.9937
vn -0.0978 -0.0000 -0.9952
vn -0.1120 0.0007 -0.9937
vn 0.1120 -0.0000 -0.9937
vn 0.2907 -0.0006 -0.9568
vn 0.1120 0.0007 -0.9937
vn 0.0978 -0.0000 -0.9952
vn 0.3303 -0.0000 -0.9439
vn 0.4718 -0.0009 -0.8817
vn 0.3303 0.0011 -0.9439
vn 0.5320 -0.0000 -0.8467
vn 0.6306 -0.0011 -0.7761
vn 0.5320 0.0014 -0.8467
vn 0.7071 -0.0000 -0.7071
vn 0.7638 -0.0010 -0.6455
vn 0.7071 0.0015 -0.7071
vn 0.8720 -0.0007 -0.4895
vn 0.8467 0.0013 -0.5320
vn -0.0000 1.0000 -0.0000
vn -0.0000 -0.0000 1.0000
vn -0.9488 -0.0000 -0.3160
vn -0.9838 -0.0000 -0.1791
vn -0.9993 -0.0000 -0.0387
vn -0.9947 -0.0000 0.1025
vn -0.9704 -0.0000 0.2417
vn -0.9266 -0.0000 0.3760
vn -0.9507 -0.0000 0.3100
vn -0.9508 0.0002 0.3098
vn -0.9823 0.0003 0.1876
vn -0.9981 0.0004 0.0623
vn -0.9980 0.0006 -0.0640
vn -0.9819 0.0007 -0.1892
vn -0.9505 -0.0000 -0.3106
vn -0.9507 -0.0007 -0.3100
vn -0.9822 -0.0001 0.1880
vn -0.9980 -0.0003 0.0630
vn -0.9980 -0.0004 -0.0630
vn -0.9822 -0.0006 -0.1880
vn -0.9507 0.0007 -0.3100
vn -0.9819 -0.0007 -0.1892
vn -0.9980 -0.0006 -0.0640
vn -0.9981 -0.0004 0.0623
vn -0.9823 -0.0003 0.1876
vn -0.9508 -0.0002 0.3098
vn -0.9822 0.0006 -0.1880
vn -0.9980 0.0004 -0.0630
vn -0.9980 0.0003 0.0630
vn -0.9822 0.0001 0.1880
vn -0.0000 -0.0491 -0.9988
vn -0.0000 -0.1467 -0.9892
vn -0.0000 -0.2903 -0.9569
vn -0.0000 -0.4714 -0.8819
vn -0.0000 -0.6344 -0.7730
vn -0.0000 -0.7730 -0.6344
vn -0.0000 -0.8819 -0.4714
vn -0.0000 -0.9569 -0.2903
vn -0.0000 -0.9952 -0.0980
vn -0.0980 -0.9952 -0.0000
vn -0.1120 -0.9937 0.0028
vn -0.3303 -0.9439 0.0040
vn -0.5320 -0.8467 0.0044
vn -0.7071 -0.7071 0.0042
vn -0.8467 -0.5320 0.0036
vn -0.9439 -0.3303 0.0028
vn -0.9892 -0.1466 0.0010
vn -0.9568 -0.2907 -0.0013
vn -0.2881 -0.9576 -0.0023
vn -0.4689 -0.8833 -0.0032
vn -0.6324 -0.7746 -0.0034
vn -0.7718 -0.6359 -0.0030
vn -0.8814 -0.4724 -0.0023
vn -0.9937 -0.1120 0.0035
vn -0.9988 -0.0491 -0.0000
vn 0.7207 -0.0000 -0.6932
vn 0.7208 -0.0000 -0.6932
vn 0.7208 -0.0000 -0.6931
vn 0.7205 -0.0000 -0.6935
vn 0.7209 -0.0000 -0.6931
vn 0.7207 -0.0000 -0.6933
vn -0.0000 0.9952 -0.0980
vn -0.0000 0.9569 -0.2903
vn -0.0000 0.8819 -0.4714
vn -0.0000 0.7730 -0.6344
vn -0.0000 0.6344 -0.7730
vn -0.0000 0.4714 -0.8819
vn -0.0000 0.2903 -0.9569
vn -0.0000 0.1467 -0.9892
vn -0.0000 0.0491 -0.9988
vn -0.9988 0.0491 -0.0000
vn -0.9937 0.1120 0.0035
vn -0.9568 0.2907 -0.0013
vn -0.9892 0.1466 0.0010
vn -0.9439 0.3303 0.0028
vn -0.8814 0.4724 -0.0023
vn -0.8467 0.5320 0.0036
vn -0.7071 0.7071 0.0042
vn -0.5320 0.8467 0.0044
vn -0.3303 0.9439 0.0040
vn -0.1120 0.9937 0.0028
vn -0.0980 0.9952 -0.0000
vn -0.7718 0.6359 -0.0030
vn -0.6324 0.7746 -0.0034
vn -0.4689 0.8833 -0.0032
vn -0.2881 0.9576 -0.0023
vn -1.0000 -0.0000 -0.0000
vn -0.9708 -0.0000 0.2397
vn -1.0000 -0.0000 -0.0001
vn -1.0000 -0.0000 0.0001
vn -0.0000 0.1305 -0.9914
vn -0.0000 0.3827 -0.9239
vn -0.0000 0.6088 -0.7934
vn -0.0000 0.7934 -0.6088
vn -0.0000 0.9239 -0.3827
vn -0.0000 0.9914 -0.1305
vn -0.0000 0.9914 0.1305
vn -0.0000 0.9239 0.3827
vn -0.0000 0.7934 0.6088
vn -0.0000 0.6088 0.7934
vn -0.0000 0.3827 0.9239
vn -0.0000 0.1305 0.9914
vn -0.0000 -0.1305 0.9914
vn -0.0000 -0.3827 0.9239
vn -0.0000 -0.6088 0.7934
vn -0.0000 -0.7934 0.6088
vn -0.0000 -0.9239 0.3827
vn -0.0000 -0.9914 0.1305
vn -0.0000 -0.9914 -0.1305
vn -0.0000 -0.9239 -0.3827
vn -0.0000 -0.7934 -0.6088
vn -0.0000 -0.6088 -0.7934
vn -0.0000 -0.3827 -0.9239
vn -0.0000 -0.1305 -0.9914
vn 0.9914 -0.0000 0.1305
vn 0.9239 -0.0000 0.3827
vn 0.7934 -0.0000 0.6088
vn 0.7933 -0.0000 0.6088
vn 0.6088 -0.0000 0.7934
vn 0.3827 -0.0000 0.9239
vn 0.1305 -0.0000 0.9914
vn -0.1305 -0.0000 0.9914
vn -0.3827 -0.0000 0.9239
vn -0.6088 -0.0000 0.7934
vn -0.7934 -0.0000 0.6088
vn -0.9239 -0.0000 0.3827
vn -0.9914 -0.0000 0.1305
vn -0.9914 -0.0000 -0.1305
vn -0.9239 -0.0000 -0.3827
vn -0.7934 -0.0000 -0.6088
vn -0.6088 -0.0000 -0.7933
vn -0.3827 -0.0000 -0.9239
vn -0.1305 -0.0000 -0.9914
vn 0.1305 -0.0000 -0.9914
vn 0.3827 -0.0000 -0.9239
vn 0.6088 -0.0000 -0.7934
vn 0.7934 -0.0000 -0.6088
vn 0.9239 -0.0000 -0.3827
vn 0.9914 -0.0000 -0.1305
vn -0.6088 -0.0000 0.7933
vn -0.6088 -0.0000 -0.7934
vn 0.7933 -0.0000 -0.6088
vn -0.7933 -0.0000 0.6088
vn 0.6088 -0.0000 -0.7933
vn 0.6088 -0.0000 0.7933
vn -0.7933 -0.0000 -0.6088
vn 0.9996 -0.0271 -0.0000
vn 0.9946 -0.1035 -0.0000
vn 0.9751 -0.2219 -0.0000
vn 0.9438 -0.3306 -0.0000
vn 0.9101 -0.4144 -0.0000
vn 0.8642 -0.5031 -0.0000
vn 0.8038 -0.5949 -0.0000
vn 0.7263 -0.6874 -0.0000
vn 0.6289 -0.7775 -0.0000
vn 0.5110 -0.8596 -0.0000
vn 0.3761 -0.9266 -0.0000
vn 0.2291 -0.9734 -0.0000
vn 0.0767 -0.9971 -0.0000
vn 1.0000 -0.0000 -0.0000
vn 0.9996 0.0271 -0.0000
vn 0.9946 0.1035 -0.0000
vn 0.9751 0.2219 -0.0000
vn 0.9438 0.3306 -0.0000
vn 0.9101 0.4144 -0.0000
vn 0.8642 0.5031 -0.0000
vn 0.8038 0.5949 -0.0000
vn 0.7263 0.6874 -0.0000
vn 0.6289 0.7775 -0.0000
vn 0.5110 0.8596 -0.0000
vn 0.3761 0.9266 -0.0000
vn 0.2291 0.9734 -0.0000
vn 0.0767 0.9971 -0.0000
vn -0.0000 0.7979 -0.6028
vn -0.0000 0.8118 -0.5839
vn 0.0013 0.8364 -0.5482
vn -0.0000 0.8695 -0.4940
vn -0.0000 0.9034 -0.4287
vn 0.0029 0.9201 -0.3917
vn -0.0003 0.9366 -0.3505
vn 0.0005 0.9652 -0.2614
vn -0.0012 0.9862 -0.1654
vn 0.0010 0.9977 -0.0675
vn -0.0007 0.9995 0.0303
vn 0.0030 0.9968 0.0805
vn -0.0003 0.9922 0.1244
vn 0.0004 0.9781 0.2082
vn 0.0002 0.9606 0.2778
vn -0.0001 0.9430 0.3329
vn 0.0013 0.9267 0.3758
vn 0.0023 0.9200 0.3920
vn -0.0000 0.8452 0.5345
vn -0.0007 0.8366 0.5478
vn -0.0014 0.8452 0.5345
vn 0.0012 0.8909 0.4541
vn -0.0015 0.9200 0.3920
vn -0.0000 0.9709 0.2393
vn 0.0027 0.9709 0.2393
vn 0.0025 0.8453 -0.5342
vn -0.0000 0.9200 -0.3918
vn 0.0012 0.9478 -0.3189
vn -0.0015 0.9200 -0.3918
vn 0.0012 0.8909 -0.4541
vn -0.0014 0.8453 -0.5344
vn -0.0000 0.7485 -0.6631
vn -0.0000 0.7456 -0.6664
vn 0.0009 0.7485 -0.6631
vn -0.0009 0.8230 -0.5681
vn 0.0009 0.8453 -0.5342
vn -0.0009 0.9035 -0.4287
vn -0.0006 0.9060 -0.4233
vn -0.0036 0.8453 -0.5342
vn -0.0018 0.8360 -0.5488
vn -0.0001 0.8118 -0.5839
vn -0.0006 0.7485 -0.6631
vn 0.0028 0.9709 -0.2393
vn -0.0000 0.9968 -0.0805
vn -0.0008 0.9977 -0.0678
vn -0.0014 0.9968 -0.0805
vn 0.0012 0.9845 -0.1752
vn -0.0014 0.9709 -0.2393
vn -0.0000 0.9201 -0.3917
vn -0.0000 0.9709 -0.2393
vn 0.0025 0.9968 -0.0805
vn -0.0000 0.9968 0.0805
vn 0.0012 0.9845 0.1752
vn -0.0014 0.9968 0.0805
vn -0.0008 0.9977 0.0678
vn 0.0003 1.0000 -0.0000
vn 0.0015 0.9147 0.4042
vn -0.0000 0.9023 0.4310
vn -0.0000 0.7485 0.6631
vn -0.0000 0.6324 0.7746
vn -0.0000 0.5000 0.8660
vn -0.0000 0.3546 0.9350
vn -0.0000 0.2000 0.9798
vn -0.0000 0.0403 0.9992
vn -0.0000 -0.1205 0.9927
vn -0.0000 -0.2782 0.9605
vn -0.0000 -0.4287 0.9035
vn -0.0000 -0.5681 0.8230
vn -0.0000 -0.6927 0.7212
vn -0.0000 -0.7994 0.6007
vn -0.0000 -0.8855 0.4647
vn -0.0000 -0.9485 0.3167
vn -0.0000 -0.9871 0.1604
vn -0.0000 -0.9871 -0.1604
vn -0.0000 -0.9485 -0.3167
vn -0.0000 -0.8855 -0.4647
vn -0.0000 -0.7994 -0.6007
vn -0.0000 -0.6927 -0.7212
vn -0.0000 -0.5681 -0.8230
vn -0.0000 -0.4287 -0.9035
vn -0.0000 -0.2782 -0.9605
vn -0.0000 -0.1205 -0.9927
vn -0.0000 0.0403 -0.9992
vn -0.0000 0.2000 -0.9798
vn -0.0000 0.3546 -0.9350
vn -0.0000 0.5000 -0.8660
vn -0.0000 0.6324 -0.7746
vn -0.0013 0.7485 -0.6631
vn 0.0001 0.7100 -0.7042
vn -0.0001 0.6656 -0.7463
vn -0.0013 0.6324 -0.7746
vn -0.0017 0.9136 0.4067
vn -0.0030 0.9200 0.3920
vn -0.0009 0.9350 0.3546
vn 0.0009 0.9200 0.3920
vn -0.0009 0.8660 0.5000
vn 0.0009 0.8452 0.5345
vn -0.0009 0.7746 0.6324
vn -0.0009 0.6631 0.7485
vn -0.0009 0.5345 0.8452
vn -0.0009 0.3920 0.9200
vn -0.0009 0.2393 0.9709
vn -0.0009 0.0780 0.9970
vn -0.0000 -0.0201 0.9998
vn -0.0009 -0.0805 0.9968
vn 0.0009 -0.1205 0.9927
vn -0.0009 -0.2393 0.9709
vn 0.0009 -0.2782 0.9605
vn -0.0009 -0.3920 0.9200
vn -0.0009 -0.5345 0.8452
vn -0.0009 -0.6631 0.7485
vn -0.0009 -0.7746 0.6324
vn -0.0009 -0.8660 0.5000
vn -0.0009 -0.9350 0.3546
vn -0.0009 -0.9798 0.2000
vn -0.0009 -0.9992 0.0403
vn -0.0009 -0.9927 -0.1205
vn -0.0009 -0.9605 -0.2782
vn -0.0009 -0.9035 -0.4287
vn -0.0009 -0.8230 -0.5681
vn -0.0009 -0.7212 -0.6927
vn -0.0009 -0.6007 -0.7994
vn -0.0009 -0.4647 -0.8855
vn -0.0009 -0.3167 -0.9485
vn -0.0009 -0.1604 -0.9871
vn -0.0009 -0.0000 -1.0000
vn -0.0009 0.1604 -0.9870
vn -0.0009 0.3167 -0.9485
vn -0.0009 0.4647 -0.8855
vn -0.0009 0.6007 -0.7994
vn -0.0009 0.7212 -0.6927
vn 0.0009 0.6324 -0.7746
vn -0.0019 0.9260 0.3775
vn 0.0002 0.9430 0.3328
vn -0.0003 0.9606 0.2780
vn -0.0040 0.9709 0.2393
vn -0.0005 0.9781 0.2083
vn 0.0005 0.9922 0.1243
vn 0.0011 0.9995 0.0302
vn -0.0016 0.9977 -0.0675
vn -0.0039 0.9967 -0.0805
vn 0.0018 0.9862 -0.1653
vn -0.0043 0.9709 -0.2393
vn -0.0009 0.9605 -0.2782
vn 0.0009 0.9709 -0.2393
vn -0.0009 0.9927 -0.1205
vn 0.0009 0.9968 -0.0805
vn -0.0009 0.9992 0.0403
vn -0.0009 0.9798 0.2000
vn 0.0009 0.9709 0.2393
vn -0.0047 0.9967 0.0805
vn 0.0009 0.9968 0.0805
vn -0.0007 0.9652 -0.2614
vn 0.0005 0.9366 -0.3504
vn 0.0003 0.9358 -0.3526
vn 0.0009 -0.4287 0.9034
vn 0.0009 -0.5681 0.8230
vn 0.0009 -0.6927 0.7212
vn 0.0009 -0.7994 0.6007
vn 0.0009 -0.8855 0.4647
vn 0.0009 -0.9485 0.3167
vn 0.0009 -0.9870 0.1604
vn 0.0009 -1.0000 -0.0000
vn 0.0009 -0.9870 -0.1604
vn 0.0009 -0.9485 -0.3167
vn 0.0009 -0.8855 -0.4647
vn 0.0009 -0.7994 -0.6007
vn 0.0009 -0.6927 -0.7212
vn 0.0009 -0.5681 -0.8230
vn 0.0009 -0.4287 -0.9035
vn 0.0009 -0.2782 -0.9605
vn 0.0009 -0.1205 -0.9927
vn 0.0009 0.0403 -0.9992
vn 0.0009 0.2000 -0.9798
vn 0.0009 0.3546 -0.9350
vn 0.0009 0.5000 -0.8660
vn 0.0009 0.7485 0.6631
vn 0.0009 0.6324 0.7746
vn 0.0009 0.5000 0.8660
vn 0.0009 0.3546 0.9350
vn -0.0000 0.0805 0.9968
vn 0.0011 0.0403 0.9992
vn 0.0013 0.4469 -0.8946
vn -0.0013 0.3546 -0.9350
vn 0.0012 0.3040 -0.9527
vn -0.0013 0.2000 -0.9798
vn 0.0011 0.1538 -0.9881
vn -0.0012 0.0403 -0.9992
vn 0.0010 -0.0000 -1.0000
vn -0.0010 -0.1205 -0.9927
vn 0.0008 -0.1538 -0.9881
vn -0.0009 -0.2782 -0.9605
vn 0.0007 -0.3040 -0.9527
vn -0.0007 -0.4287 -0.9035
vn 0.0005 -0.4469 -0.8946
vn -0.0002 -0.5263 -0.8503
vn -0.0002 -0.5282 -0.8491
vn -0.0006 -0.5501 -0.8351
vn -0.0013 -0.5681 -0.8230
vn -0.0000 -0.5174 -0.8557
vn -0.0007 -0.5825 -0.8128
vn 0.0001 -0.6226 -0.7825
vn -0.0002 -0.6655 -0.7464
vn -0.0014 -0.6927 -0.7212
vn -0.0005 -0.7098 -0.7044
vn 0.0002 -0.7540 -0.6569
vn -0.0010 -0.7963 -0.6048
vn -0.0012 -0.7994 -0.6007
vn 0.0002 -0.8367 -0.5476
vn -0.0006 -0.8855 -0.4647
vn 0.0001 -0.8909 -0.4542
vn -0.0001 -0.9478 -0.3190
vn 0.0003 -0.9845 -0.1752
vn 0.0002 -0.9977 -0.0678
vn -0.0012 -1.0000 -0.0000
vn 0.0002 -0.9977 0.0678
vn -0.0007 -0.9871 0.1604
vn -0.0003 -0.9485 -0.3167
vn -0.0007 -0.9871 -0.1604
vn 0.0003 -0.9845 0.1752
vn -0.0003 -0.9485 0.3167
vn -0.0001 -0.9478 0.3190
vn 0.0001 -0.8909 0.4542
vn 0.0002 -0.8367 0.5476
vn -0.0010 -0.7963 0.6048
vn 0.0002 -0.7540 0.6569
vn -0.0005 -0.7098 0.7044
vn -0.0014 -0.6927 0.7212
vn -0.0006 -0.8855 0.4647
vn -0.0012 -0.7994 0.6007
vn -0.0002 -0.6655 0.7464
vn 0.0001 -0.6226 0.7825
vn -0.0007 -0.5825 0.8128
vn -0.0013 -0.5681 0.8230
vn -0.0003 -0.5411 0.8409
vn -0.0021 -0.5477 0.8367
vn -0.0002 -0.5281 0.8492
vn -0.0000 -0.5174 0.8557
vn 0.0005 -0.4469 0.8946
vn -0.0007 -0.4287 0.9034
vn 0.0007 -0.3040 0.9527
vn -0.0009 -0.2782 0.9605
vn 0.0008 -0.1538 0.9881
vn -0.0010 -0.1205 0.9927
vn 0.0010 -0.0000 1.0000
vn -0.0012 0.0403 0.9992
vn 0.0011 0.1538 0.9881
vn -0.0013 0.2000 0.9798
vn 0.0012 0.3040 0.9527
vn -0.0013 0.3546 0.9350
vn 0.0013 0.4469 0.8946
vn -0.0014 0.5000 0.8660
vn -0.0000 0.5174 0.8557
vn -0.0002 0.5281 0.8492
vn -0.0000 0.5512 0.8344
vn -0.0000 0.5833 0.8122
vn -0.0008 0.6219 0.7831
vn -0.0013 0.6324 0.7746
vn -0.0004 0.5301 0.8479
vn -0.0001 0.6656 0.7463
vn 0.0001 0.7100 0.7042
vn -0.0009 0.7537 0.6572
vn 0.0003 0.7966 0.6046
vn -0.0013 0.7485 0.6631
vn 0.0012 0.9478 0.3189
vn -0.0014 0.9709 0.2393
vn -0.0007 0.8366 -0.5478
vn 0.0003 0.7966 -0.6046
vn -0.0009 0.7537 -0.6572
vn -0.0008 0.6219 -0.7831
vn -0.0000 0.5833 -0.8122
vn -0.0000 0.5512 -0.8344
vn -0.0004 0.5301 -0.8479
vn -0.0002 0.5281 -0.8492
vn -0.0000 0.5174 -0.8557
vn 0.0009 0.2000 0.9798
vn 0.0004 0.7485 -0.6631
vn -0.0000 0.8453 -0.5344
vn -0.0000 0.8453 -0.5342
vn -0.0000 0.9200 0.3920
vn -0.0014 0.5000 -0.8660
vn -0.4144 -0.0000 0.9101
vn -0.5559 -0.0000 0.8313
vn -0.6827 -0.0000 0.7307
vn -0.7917 -0.0000 0.6110
vn -0.8799 -0.0000 0.4752
vn -0.9450 -0.0000 0.3270
vn -0.9854 -0.0000 0.1702
vn -0.5710 -0.0000 -0.8209
vn -0.9275 -0.0000 0.3739
vn -0.5547 -0.0000 0.8321
vn 0.8904 -0.0000 -0.4552
vn 0.9212 -0.0000 0.3891
vn 0.9708 -0.0000 -0.2397
vn 0.8321 -0.0000 0.5547
vn 0.2912 -0.0000 0.9567
s 0
f 1//1 2//1 3//1
f 3//1 2//1 4//1
f 5//2 4//2 6//2
f 7//3 6//3 8//3
f 9//4 8//4 10//4
f 11//5 10//5 12//5
f 11//5 9//5 10//5
f 3//2 4//2 5//2
f 5//3 6//3 7//3
f 7//4 8//4 9//4
f 1//6 13//6 2//6
f 2//6 13//6 14//6
f 15//7 16//7 17//7
f 17//7 16//7 18//7
f 18//8 16//8 19//8
f 20//9 19//9 21//9
f 22//9 20//9 21//9
f 18//8 19//8 20//8
f 21//10 23//10 22//10
f 22//10 23//10 24//10
f 25//11 26//11 27//11
f 27//11 26//11 28//11
f 28//12 26//12 29//12
f 30//13 29//13 31//13
f 32//14 31//14 33//14
f 34//15 33//15 24//15
f 23//15 34//15 24//15
f 28//12 29//12 30//12
f 30//13 31//13 32//13
f 32//14 33//14 34//14
f 35//16 36//16 37//16
f 37//16 36//16 38//16
f 38//17 36//17 39//17
f 40//18 39//18 41//18
f 42//19 41//19 43//19
f 42//18 40//18 41//18
f 38//17 39//17 40//17
f 41//19 44//19 43//19
f 43//20 44//20 45//20
f 45//20 44//20 46//20
f 47//21 45//21 46//21
f 47//21 48//21 45//21
f 47//22 49//22 48//22
f 48//22 49//22 50//22
f 50//23 49//23 51//23
f 52//23 50//23 51//23
f 27//24 52//24 25//24
f 25//24 52//24 51//24
f 53//25 54//25 55//25
f 56//25 53//25 55//25
f 56//25 52//25 53//25
f 56//25 57//25 52//25
f 56//25 58//25 57//25
f 57//25 58//25 59//25
f 60//25 55//25 61//25
f 61//25 55//25 54//25
f 62//25 45//25 57//25
f 62//25 43//25 45//25
f 62//25 42//25 43//25
f 62//25 40//25 42//25
f 62//25 38//25 40//25
f 62//25 37//25 38//25
f 62//25 63//25 37//25
f 62//25 64//25 63//25
f 62//25 65//25 64//25
f 37//25 63//25 66//25
f 66//25 63//25 67//25
f 68//25 66//25 67//25
f 68//25 69//25 66//25
f 68//25 70//25 69//25
f 68//25 71//25 70//25
f 68//25 72//25 71//25
f 68//25 73//25 72//25
f 68//25 74//25 73//25
f 68//25 75//25 74//25
f 68//25 76//25 75//25
f 68//25 77//25 76//25
f 68//25 14//25 77//25
f 68//25 78//25 14//25
f 14//25 78//25 2//25
f 2//25 78//25 4//25
f 4//25 78//25 6//25
f 6//25 78//25 8//25
f 8//25 78//25 10//25
f 10//25 78//25 12//25
f 12//25 78//25 79//25
f 15//25 79//25 16//25
f 15//25 12//25 79//25
f 16//25 79//25 19//25
f 19//25 79//25 80//25
f 21//25 80//25 23//25
f 21//25 19//25 80//25
f 80//25 81//25 23//25
f 23//25 81//25 34//25
f 34//25 81//25 32//25
f 32//25 81//25 30//25
f 30//25 81//25 28//25
f 28//25 81//25 27//25
f 27//25 81//25 82//25
f 52//25 82//25 53//25
f 52//25 27//25 82//25
f 82//25 83//25 53//25
f 72//25 73//25 84//25
f 84//25 73//25 85//25
f 86//25 84//25 85//25
f 45//25 48//25 57//25
f 57//25 48//25 50//25
f 52//25 57//25 50//25
f 87//26 88//26 89//26
f 87//27 90//27 88//27
f 87//27 91//27 90//27
f 90//28 91//28 92//28
f 93//29 92//29 94//29
f 93//30 90//30 92//30
f 93//31 95//31 90//31
f 90//32 95//32 88//32
f 88//33 95//33 96//33
f 97//34 96//34 98//34
f 99//35 97//35 98//35
f 99//36 100//36 97//36
f 99//37 101//37 100//37
f 100//38 101//38 102//38
f 103//39 102//39 104//39
f 103//40 100//40 102//40
f 103//40 105//40 100//40
f 100//41 105//41 97//41
f 97//41 105//41 89//41
f 88//26 97//26 89//26
f 88//42 96//42 97//42
f 91//28 106//28 92//28
f 92//43 106//43 107//43
f 94//44 107//44 108//44
f 94//45 92//45 107//45
f 106//43 109//43 107//43
f 107//46 109//46 110//46
f 108//47 110//47 111//47
f 108//48 107//48 110//48
f 109//46 112//46 110//46
f 110//49 112//49 113//49
f 111//50 113//50 114//50
f 111//51 110//51 113//51
f 112//49 115//49 113//49
f 113//52 115//52 116//52
f 114//53 116//53 117//53
f 114//54 113//54 116//54
f 115//52 118//52 116//52
f 116//55 118//55 119//55
f 120//56 119//56 121//56
f 120//57 116//57 119//57
f 120//58 117//58 116//58
f 118//55 122//55 119//55
f 119//59 122//59 123//59
f 121//60 123//60 124//60
f 121//61 119//61 123//61
f 122//59 125//59 123//59
f 123//62 125//62 126//62
f 124//63 126//63 127//63
f 124//64 123//64 126//64
f 125//62 128//62 126//62
f 126//65 128//65 129//65
f 127//66 129//66 130//66
f 127//67 126//67 129//67
f 128//65 131//65 129//65
f 129//68 131//68 132//68
f 130//69 132//69 133//69
f 130//70 129//70 132//70
f 131//68 134//68 132//68
f 132//71 134//71 135//71
f 133//72 135//72 136//72
f 133//73 132//73 135//73
f 134//71 137//71 135//71
f 135//74 137//74 138//74
f 136//75 138//75 139//75
f 136//76 135//76 138//76
f 137//77 140//77 138//77
f 138//78 140//78 141//78
f 139//79 141//79 142//79
f 139//80 138//80 141//80
f 140//81 143//81 141//81
f 141//82 143//82 144//82
f 145//83 144//83 146//83
f 145//84 141//84 144//84
f 145//85 142//85 141//85
f 143//82 147//82 144//82
f 144//86 147//86 148//86
f 146//87 148//87 149//87
f 146//88 144//88 148//88
f 147//86 150//86 148//86
f 148//89 150//89 151//89
f 149//90 151//90 152//90
f 149//91 148//91 151//91
f 150//89 153//89 151//89
f 151//92 153//92 154//92
f 152//93 154//93 155//93
f 152//94 151//94 154//94
f 153//92 156//92 154//92
f 154//95 156//95 157//95
f 155//96 157//96 158//96
f 155//97 154//97 157//97
f 156//95 159//95 157//95
f 157//98 159//98 160//98
f 158//99 160//99 161//99
f 158//100 157//100 160//100
f 159//98 162//98 160//98
f 160//101 162//101 163//101
f 164//102 163//102 165//102
f 164//103 160//103 163//103
f 164//104 161//104 160//104
f 162//101 166//101 163//101
f 163//105 166//105 167//105
f 165//106 167//106 168//106
f 165//107 163//107 167//107
f 166//105 169//105 167//105
f 167//108 169//108 170//108
f 168//109 170//109 171//109
f 168//110 167//110 170//110
f 169//108 172//108 170//108
f 170//111 172//111 173//111
f 171//112 173//112 174//112
f 171//113 170//113 173//113
f 172//111 104//111 173//111
f 173//39 104//39 102//39
f 174//114 102//114 101//114
f 174//115 173//115 102//115
f 105//116 143//116 89//116
f 105//116 147//116 143//116
f 105//116 103//116 147//116
f 147//116 103//116 150//116
f 150//116 103//116 104//116
f 153//116 104//116 172//116
f 156//116 172//116 169//116
f 159//116 169//116 166//116
f 162//116 159//116 166//116
f 150//116 104//116 153//116
f 153//116 172//116 156//116
f 156//116 169//116 159//116
f 143//116 140//116 89//116
f 89//116 140//116 87//116
f 87//116 140//116 137//116
f 91//116 137//116 134//116
f 106//116 134//116 131//116
f 109//116 131//116 128//116
f 112//116 128//116 125//116
f 115//116 125//116 122//116
f 118//116 115//116 122//116
f 87//116 137//116 91//116
f 91//116 134//116 106//116
f 106//116 131//116 109//116
f 109//116 128//116 112//116
f 112//116 125//116 115//116
f 175//25 176//25 177//25
f 175//25 178//25 176//25
f 175//25 179//25 178//25
f 178//25 179//25 180//25
f 181//25 180//25 182//25
f 183//25 181//25 182//25
f 183//25 184//25 181//25
f 183//25 185//25 184//25
f 178//25 180//25 181//25
f 176//25 186//25 177//25
f 177//25 186//25 187//25
f 188//117 189//117 183//117
f 183//117 189//117 185//117
f 185//118 189//118 184//118
f 184//118 189//118 190//118
f 191//119 184//119 190//119
f 191//119 181//119 184//119
f 191//120 192//120 181//120
f 181//120 192//120 178//120
f 178//121 192//121 193//121
f 176//122 193//122 194//122
f 186//123 194//123 195//123
f 187//123 186//123 195//123
f 178//121 193//121 176//121
f 176//122 194//122 186//122
f 196//116 191//116 188//116
f 196//116 197//116 191//116
f 191//116 197//116 192//116
f 192//116 197//116 198//116
f 199//116 192//116 198//116
f 199//116 193//116 192//116
f 199//116 200//116 193//116
f 193//116 200//116 194//116
f 194//116 200//116 195//116
f 191//116 190//116 188//116
f 188//116 190//116 189//116
f 201//124 200//124 202//124
f 202//125 200//125 199//125
f 203//126 199//126 198//126
f 204//127 198//127 197//127
f 205//128 197//128 196//128
f 206//129 196//129 188//129
f 207//130 188//130 86//130
f 207//131 206//131 188//131
f 202//132 199//132 203//132
f 203//133 198//133 204//133
f 204//134 197//134 205//134
f 205//135 196//135 206//135
f 188//130 183//130 86//130
f 86//136 183//136 84//136
f 84//137 183//137 182//137
f 72//138 182//138 180//138
f 71//139 180//139 179//139
f 70//140 179//140 175//140
f 69//141 175//141 177//141
f 66//124 69//124 177//124
f 84//142 182//142 72//142
f 72//143 180//143 71//143
f 71//144 179//144 70//144
f 70//145 175//145 69//145
f 208//146 209//146 210//146
f 210//146 209//146 211//146
f 212//147 211//147 213//147
f 214//148 213//148 215//148
f 216//149 215//149 217//149
f 218//150 217//150 219//150
f 220//151 219//151 221//151
f 222//152 221//152 223//152
f 224//153 223//153 225//153
f 61//154 225//154 60//154
f 61//154 224//154 225//154
f 210//147 211//147 212//147
f 212//148 213//148 214//148
f 214//149 215//149 216//149
f 216//150 217//150 218//150
f 218//151 219//151 220//151
f 220//152 221//152 222//152
f 222//153 223//153 224//153
f 61//155 54//155 224//155
f 224//156 54//156 226//156
f 222//157 226//157 227//157
f 220//158 227//158 228//158
f 218//159 228//159 229//159
f 216//160 229//160 230//160
f 214//161 230//161 231//161
f 212//162 231//162 210//162
f 212//163 214//163 231//163
f 224//164 226//164 222//164
f 222//165 227//165 220//165
f 220//166 228//166 218//166
f 218//167 229//167 216//167
f 216//168 230//168 214//168
f 231//169 232//169 210//169
f 210//170 232//170 208//170
f 225//171 233//171 60//171
f 225//171 234//171 233//171
f 225//171 223//171 234//171
f 234//171 223//171 235//171
f 235//171 223//171 221//171
f 236//171 221//171 219//171
f 237//171 219//171 217//171
f 238//171 217//171 239//171
f 238//171 237//171 217//171
f 235//171 221//171 236//171
f 236//171 219//171 237//171
f 239//172 217//172 240//172
f 241//173 239//173 240//173
f 241//172 242//172 239//172
f 213//174 211//174 215//174
f 215//175 211//175 209//175
f 240//176 215//176 209//176
f 240//171 217//171 215//171
f 233//171 243//171 60//171
f 60//171 243//171 244//171
f 55//171 60//171 244//171
f 243//177 233//177 245//177
f 245//177 233//177 246//177
f 246//178 233//178 234//178
f 247//179 234//179 235//179
f 248//180 235//180 236//180
f 249//181 236//181 237//181
f 250//182 237//182 238//182
f 251//183 238//183 239//183
f 252//184 239//184 242//184
f 253//185 242//185 241//185
f 254//185 253//185 241//185
f 246//178 234//178 247//178
f 247//179 235//179 248//179
f 248//180 236//180 249//180
f 249//181 237//181 250//181
f 250//182 238//182 251//182
f 251//183 239//183 252//183
f 252//184 242//184 253//184
f 254//186 255//186 253//186
f 253//187 255//187 256//187
f 252//188 256//188 251//188
f 252//189 253//189 256//189
f 256//190 257//190 251//190
f 251//191 257//191 250//191
f 250//192 257//192 258//192
f 249//193 258//193 259//193
f 248//194 259//194 260//194
f 247//195 260//195 261//195
f 246//196 261//196 262//196
f 245//197 246//197 262//197
f 250//198 258//198 249//198
f 249//199 259//199 248//199
f 248//200 260//200 247//200
f 247//201 261//201 246//201
f 208//202 232//202 263//202
f 263//202 232//202 255//202
f 254//202 263//202 255//202
f 254//10 241//10 263//10
f 263//10 241//10 240//10
f 209//10 208//10 240//10
f 240//10 208//10 263//10
f 56//10 55//10 264//10
f 264//10 55//10 244//10
f 231//117 53//117 232//117
f 231//117 230//117 53//117
f 53//117 230//117 229//117
f 228//117 53//117 229//117
f 228//117 54//117 53//117
f 228//117 227//117 54//117
f 54//117 227//117 226//117
f 53//117 265//117 232//117
f 232//117 265//117 255//117
f 255//117 265//117 256//117
f 256//117 265//117 257//117
f 257//117 265//117 258//117
f 258//117 265//117 259//117
f 259//117 265//117 262//117
f 260//117 262//117 261//117
f 260//117 259//117 262//117
f 201//116 266//116 35//116
f 201//116 267//116 266//116
f 201//116 268//116 267//116
f 201//116 202//116 268//116
f 268//116 202//116 203//116
f 204//116 268//116 203//116
f 204//116 205//116 268//116
f 268//116 205//116 269//116
f 270//116 268//116 269//116
f 270//116 271//116 268//116
f 268//116 271//116 272//116
f 273//116 268//116 272//116
f 273//116 13//116 268//116
f 268//116 13//116 274//116
f 274//116 13//116 1//116
f 3//116 274//116 1//116
f 3//116 5//116 274//116
f 274//116 5//116 7//116
f 9//116 274//116 7//116
f 9//116 11//116 274//116
f 274//116 11//116 275//116
f 275//116 11//116 17//116
f 18//116 275//116 17//116
f 18//116 20//116 275//116
f 275//116 20//116 276//116
f 276//116 20//116 22//116
f 24//116 276//116 22//116
f 24//116 277//116 276//116
f 24//116 33//116 277//116
f 277//116 33//116 31//116
f 29//116 277//116 31//116
f 29//116 26//116 277//116
f 277//116 26//116 25//116
f 278//116 25//116 279//116
f 280//116 278//116 279//116
f 280//116 281//116 278//116
f 278//116 281//116 282//116
f 283//116 278//116 282//116
f 283//116 284//116 278//116
f 283//116 285//116 284//116
f 284//116 285//116 286//116
f 287//116 284//116 286//116
f 287//116 265//116 284//116
f 287//116 288//116 265//116
f 265//116 288//116 289//116
f 290//116 265//116 289//116
f 290//116 264//116 265//116
f 290//116 291//116 264//116
f 264//116 291//116 292//116
f 293//116 292//116 294//116
f 295//116 293//116 294//116
f 295//116 296//116 293//116
f 295//116 297//116 296//116
f 296//116 297//116 298//116
f 299//116 296//116 298//116
f 299//116 300//116 296//116
f 296//116 300//116 301//116
f 302//116 296//116 301//116
f 302//116 303//116 296//116
f 296//116 303//116 304//116
f 305//116 296//116 304//116
f 305//116 306//116 296//116
f 305//116 307//116 306//116
f 306//116 307//116 308//116
f 41//116 308//116 309//116
f 44//116 309//116 46//116
f 44//116 41//116 309//116
f 205//116 206//116 269//116
f 269//116 206//116 310//116
f 310//116 206//116 207//116
f 51//116 311//116 25//116
f 51//116 312//116 311//116
f 51//116 313//116 312//116
f 51//116 314//116 313//116
f 51//116 315//116 314//116
f 51//116 316//116 315//116
f 51//116 49//116 316//116
f 316//116 49//116 317//116
f 317//116 49//116 47//116
f 318//116 47//116 46//116
f 309//116 318//116 46//116
f 317//116 47//116 318//116
f 308//116 41//116 306//116
f 306//116 41//116 39//116
f 36//116 306//116 39//116
f 36//116 35//116 306//116
f 306//116 35//116 266//116
f 319//116 306//116 266//116
f 319//116 320//116 306//116
f 243//116 245//116 244//116
f 244//116 245//116 262//116
f 265//116 244//116 262//116
f 265//116 264//116 244//116
f 278//116 277//116 25//116
f 296//116 321//116 293//116
f 293//116 264//116 292//116
f 311//116 312//116 322//116
f 322//116 312//116 323//116
f 324//116 323//116 325//116
f 326//116 325//116 327//116
f 328//116 327//116 329//116
f 330//116 329//116 331//116
f 332//116 331//116 333//116
f 297//116 333//116 298//116
f 297//116 332//116 333//116
f 322//116 323//116 324//116
f 324//116 325//116 326//116
f 326//116 327//116 328//116
f 328//116 329//116 330//116
f 330//116 331//116 332//116
f 311//116 334//116 25//116
f 25//116 334//116 279//116
f 53//203 83//203 265//203
f 265//203 83//203 284//203
f 335//202 336//202 337//202
f 338//202 335//202 337//202
f 338//202 339//202 335//202
f 338//202 340//202 339//202
f 339//202 340//202 341//202
f 341//202 340//202 342//202
f 343//202 342//202 344//202
f 345//202 344//202 346//202
f 347//202 346//202 348//202
f 349//202 348//202 350//202
f 351//202 349//202 350//202
f 351//202 352//202 349//202
f 351//204 353//204 352//204
f 352//202 353//202 354//202
f 354//202 353//202 355//202
f 356//202 355//202 357//202
f 358//202 357//202 359//202
f 360//202 359//202 361//202
f 360//202 358//202 359//202
f 362//202 363//202 364//202
f 362//202 365//202 363//202
f 362//202 366//202 365//202
f 365//204 366//204 367//204
f 367//202 366//202 368//202
f 369//202 368//202 370//202
f 371//202 370//202 372//202
f 373//202 372//202 374//202
f 373//202 371//202 372//202
f 367//204 368//204 369//204
f 369//202 370//202 371//202
f 372//202 375//202 374//202
f 374//202 375//202 376//202
f 376//202 375//202 377//202
f 378//202 377//202 379//202
f 380//202 379//202 381//202
f 382//202 381//202 361//202
f 359//202 382//202 361//202
f 376//202 377//202 378//202
f 378//205 379//205 380//205
f 380//202 381//202 382//202
f 358//202 356//202 357//202
f 356//202 354//202 355//202
f 349//202 347//202 348//202
f 347//202 345//202 346//202
f 345//202 343//202 344//202
f 343//202 341//202 342//202
f 363//202 337//202 364//202
f 364//202 337//202 336//202
f 335//206 383//206 336//206
f 335//207 384//207 383//207
f 335//207 339//207 384//207
f 384//208 339//208 385//208
f 385//208 339//208 341//208
f 386//209 341//209 343//209
f 387//210 343//210 345//210
f 388//211 345//211 347//211
f 389//212 347//212 349//212
f 390//213 349//213 352//213
f 391//214 352//214 354//214
f 392//215 354//215 356//215
f 393//216 356//216 358//216
f 394//217 358//217 360//217
f 395//218 360//218 361//218
f 396//219 361//219 381//219
f 397//220 381//220 379//220
f 398//221 379//221 377//221
f 399//222 377//222 375//222
f 400//223 375//223 372//223
f 401//224 372//224 370//224
f 402//225 370//225 368//225
f 403//226 368//226 366//226
f 404//227 366//227 362//227
f 405//228 362//228 364//228
f 406//229 364//229 336//229
f 383//206 406//206 336//206
f 385//209 341//209 386//209
f 386//210 343//210 387//210
f 387//211 345//211 388//211
f 388//212 347//212 389//212
f 389//213 349//213 390//213
f 390//214 352//214 391//214
f 391//215 354//215 392//215
f 392//216 356//216 393//216
f 393//217 358//217 394//217
f 394//218 360//218 395//218
f 395//219 361//219 396//219
f 396//220 381//220 397//220
f 397//221 379//221 398//221
f 398//222 377//222 399//222
f 399//223 375//223 400//223
f 400//224 372//224 401//224
f 401//225 370//225 402//225
f 402//226 368//226 403//226
f 403//227 366//227 404//227
f 404//228 362//228 405//228
f 405//229 364//229 406//229
f 407//202 408//202 409//202
f 409//202 408//202 410//202
f 410//202 408//202 411//202
f 412//204 411//204 413//204
f 414//202 413//202 415//202
f 416//202 415//202 417//202
f 418//202 417//202 419//202
f 420//202 419//202 421//202
f 422//202 421//202 423//202
f 424//204 423//204 425//204
f 426//205 425//205 427//205
f 428//204 427//204 429//204
f 430//202 428//202 429//202
f 410//202 411//202 412//202
f 412//205 413//205 414//205
f 414//205 415//205 416//205
f 416//202 417//202 418//202
f 418//205 419//205 420//205
f 420//202 421//202 422//202
f 422//205 423//205 424//205
f 424//202 425//202 426//202
f 426//202 427//202 428//202
f 409//206 338//206 407//206
f 409//207 340//207 338//207
f 409//207 410//207 340//207
f 340//208 410//208 342//208
f 342//208 410//208 412//208
f 344//209 412//209 414//209
f 346//210 414//210 416//210
f 348//211 416//211 418//211
f 350//212 418//212 420//212
f 351//213 420//213 422//213
f 353//214 422//214 424//214
f 355//215 424//215 426//215
f 357//216 426//216 428//216
f 359//217 428//217 430//217
f 382//218 430//218 429//218
f 380//219 429//219 427//219
f 378//220 427//220 425//220
f 376//221 425//221 423//221
f 374//222 423//222 421//222
f 373//223 421//223 419//223
f 371//224 419//224 417//224
f 369//225 417//225 415//225
f 367//226 415//226 413//226
f 365//227 413//227 411//227
f 363//228 411//228 408//228
f 337//229 408//229 407//229
f 338//206 337//206 407//206
f 342//209 412//209 344//209
f 344//210 414//210 346//210
f 346//211 416//211 348//211
f 348//212 418//212 350//212
f 350//213 420//213 351//213
f 351//214 422//214 353//214
f 353//215 424//215 355//215
f 355//216 426//216 357//216
f 357//217 428//217 359//217
f 359//218 430//218 382//218
f 382//219 429//219 380//219
f 380//220 427//220 378//220
f 378//221 425//221 376//221
f 376//222 423//222 374//222
f 374//223 421//223 373//223
f 373//224 419//224 371//224
f 371//225 417//225 369//225
f 369//226 415//226 367//226
f 367//227 413//227 365//227
f 365//228 411//228 363//228
f 363//229 408//229 337//229
f 431//230 334//230 432//230
f 431//231 279//231 334//231
f 431//231 433//231 279//231
f 279//232 433//232 280//232
f 280//233 433//233 434//233
f 281//234 434//234 435//234
f 282//235 435//235 436//235
f 283//236 436//236 437//236
f 285//237 437//237 438//237
f 286//238 438//238 439//238
f 287//239 439//239 440//239
f 288//240 440//240 441//240
f 289//241 441//241 442//241
f 290//242 442//242 443//242
f 291//243 443//243 444//243
f 292//244 444//244 445//244
f 294//245 445//245 446//245
f 295//246 446//246 447//246
f 297//247 447//247 448//247
f 332//248 448//248 449//248
f 330//249 449//249 450//249
f 328//250 450//250 451//250
f 326//251 451//251 452//251
f 324//252 452//252 453//252
f 322//253 453//253 454//253
f 311//254 454//254 432//254
f 334//230 311//230 432//230
f 280//234 434//234 281//234
f 281//235 435//235 282//235
f 282//236 436//236 283//236
f 283//237 437//237 285//237
f 285//238 438//238 286//238
f 286//255 439//255 287//255
f 287//240 440//240 288//240
f 288//241 441//241 289//241
f 289//242 442//242 290//242
f 290//243 443//243 291//243
f 291//244 444//244 292//244
f 292//245 445//245 294//245
f 294//256 446//256 295//256
f 295//247 447//247 297//247
f 297//248 448//248 332//248
f 332//249 449//249 330//249
f 330//250 450//250 328//250
f 328//251 451//251 326//251
f 326//257 452//257 324//257
f 324//253 453//253 322//253
f 322//254 454//254 311//254
f 454//116 444//116 432//116
f 454//116 445//116 444//116
f 454//116 453//116 445//116
f 445//116 453//116 446//116
f 446//116 453//116 452//116
f 447//116 452//116 451//116
f 448//116 451//116 450//116
f 449//116 448//116 450//116
f 446//116 452//116 447//116
f 447//116 451//116 448//116
f 444//116 443//116 432//116
f 432//116 443//116 431//116
f 431//116 443//116 442//116
f 433//116 442//116 441//116
f 434//116 441//116 440//116
f 435//116 440//116 439//116
f 436//116 439//116 438//116
f 437//116 436//116 438//116
f 431//116 442//116 433//116
f 433//116 441//116 434//116
f 434//116 440//116 435//116
f 435//116 439//116 436//116
f 455//230 312//230 456//230
f 455//231 323//231 312//231
f 455//231 457//231 323//231
f 323//233 457//233 325//233
f 325//232 457//232 458//232
f 327//234 458//234 459//234
f 329//235 459//235 460//235
f 331//236 460//236 461//236
f 333//237 461//237 462//237
f 298//238 462//238 463//238
f 299//239 463//239 464//239
f 300//258 464//258 465//258
f 301//241 465//241 466//241
f 302//242 466//242 467//242
f 303//243 467//243 468//243
f 304//244 468//244 469//244
f 305//245 469//245 470//245
f 307//256 470//256 471//256
f 308//247 471//247 472//247
f 309//248 472//248 473//248
f 318//249 473//249 474//249
f 317//250 474//250 475//250
f 316//259 475//259 476//259
f 315//257 476//257 477//257
f 314//253 477//253 478//253
f 313//254 478//254 456//254
f 312//230 313//230 456//230
f 325//260 458//260 327//260
f 327//235 459//235 329//235
f 329//236 460//236 331//236
f 331//237 461//237 333//237
f 333//238 462//238 298//238
f 298//239 463//239 299//239
f 299//240 464//240 300//240
f 300//241 465//241 301//241
f 301//242 466//242 302//242
f 302//243 467//243 303//243
f 303//244 468//244 304//244
f 304//261 469//261 305//261
f 305//256 470//256 307//256
f 307//247 471//247 308//247
f 308//248 472//248 309//248
f 309//249 473//249 318//249
f 318//250 474//250 317//250
f 317//251 475//251 316//251
f 316//252 476//252 315//252
f 315//253 477//253 314//253
f 314//254 478//254 313//254
f 478//116 468//116 456//116
f 478//116 469//116 468//116
f 478//116 477//116 469//116
f 469//116 477//116 470//116
f 470//116 477//116 476//116
f 471//116 476//116 475//116
f 472//116 475//116 474//116
f 473//116 472//116 474//116
f 470//116 476//116 471//116
f 471//116 475//116 472//116
f 468//116 467//116 456//116
f 456//116 467//116 455//116
f 455//116 467//116 466//116
f 457//116 466//116 465//116
f 458//116 465//116 464//116
f 459//116 464//116 463//116
f 460//116 463//116 462//116
f 461//116 460//116 462//116
f 455//116 466//116 457//116
f 457//116 465//116 458//116
f 458//116 464//116 459//116
f 459//116 463//116 460//116
f 479//262 480//262 481//262
f 481//262 480//262 482//262
f 483//263 482//263 484//263
f 485//264 483//264 484//264
f 485//264 486//264 483//264
f 485//265 487//265 486//265
f 485//265 488//265 487//265
f 487//266 488//266 489//266
f 490//267 489//267 491//267
f 490//266 487//266 489//266
f 481//263 482//263 483//263
f 489//267 492//267 491//267
f 491//268 492//268 493//268
f 494//269 493//269 495//269
f 494//268 491//268 493//268
f 493//269 496//269 495//269
f 495//270 496//270 497//270
f 498//271 497//271 499//271
f 498//270 495//270 497//270
f 497//271 500//271 499//271
f 499//272 500//272 501//272
f 502//273 501//273 503//273
f 504//274 503//274 57//274
f 504//273 502//273 503//273
f 499//272 501//272 502//272
f 503//274 62//274 57//274
f 480//275 479//275 505//275
f 505//275 479//275 506//275
f 507//276 508//276 509//276
f 509//276 508//276 510//276
f 511//277 510//277 512//277
f 513//278 511//278 512//278
f 513//278 514//278 511//278
f 513//279 515//279 514//279
f 513//279 516//279 515//279
f 515//280 516//280 517//280
f 518//281 517//281 519//281
f 518//280 515//280 517//280
f 509//277 510//277 511//277
f 517//281 520//281 519//281
f 519//282 520//282 521//282
f 522//283 521//283 523//283
f 522//282 519//282 521//282
f 521//283 524//283 523//283
f 523//284 524//284 525//284
f 526//285 525//285 527//285
f 526//284 523//284 525//284
f 525//285 528//285 527//285
f 527//286 528//286 529//286
f 530//287 529//287 531//287
f 532//288 531//288 306//288
f 532//287 530//287 531//287
f 527//286 529//286 530//286
f 531//288 296//288 306//288
f 507//275 533//275 508//275
f 508//275 533//275 534//275
f 164//289 535//289 161//289
f 164//290 165//290 535//290
f 535//291 165//291 168//291
f 536//292 168//292 171//292
f 174//293 536//293 171//293
f 174//294 537//294 536//294
f 174//295 101//295 537//295
f 537//296 101//296 99//296
f 538//297 99//297 98//297
f 539//298 98//298 96//298
f 95//299 539//299 96//299
f 95//300 540//300 539//300
f 95//301 93//301 540//301
f 540//302 93//302 94//302
f 541//303 94//303 108//303
f 111//304 541//304 108//304
f 111//305 114//305 541//305
f 541//306 114//306 542//306
f 543//307 542//307 544//307
f 513//308 544//308 516//308
f 513//309 543//309 544//309
f 513//310 512//310 543//310
f 543//311 512//311 545//311
f 541//312 545//312 540//312
f 94//313 541//313 540//313
f 535//314 168//314 536//314
f 546//315 536//315 547//315
f 511//316 547//316 509//316
f 511//317 546//317 547//317
f 511//318 514//318 546//318
f 546//319 514//319 548//319
f 535//320 548//320 549//320
f 161//321 549//321 550//321
f 551//322 550//322 552//322
f 553//323 551//323 552//323
f 553//324 554//324 551//324
f 553//325 555//325 554//325
f 554//326 555//326 146//326
f 149//293 554//293 146//293
f 149//292 152//292 554//292
f 554//327 152//327 551//327
f 551//328 152//328 155//328
f 158//329 551//329 155//329
f 158//289 161//289 551//289
f 551//330 161//330 550//330
f 537//331 99//331 538//331
f 556//332 538//332 557//332
f 507//333 557//333 533//333
f 507//334 556//334 557//334
f 507//335 509//335 556//335
f 556//336 509//336 547//336
f 537//337 547//337 536//337
f 537//338 556//338 547//338
f 537//338 538//338 556//338
f 538//339 98//339 539//339
f 557//340 539//340 558//340
f 508//341 558//341 510//341
f 508//342 557//342 558//342
f 508//343 534//343 557//343
f 557//344 534//344 533//344
f 114//345 117//345 542//345
f 542//346 117//346 559//346
f 560//307 559//307 561//307
f 562//347 561//347 563//347
f 564//348 563//348 565//348
f 566//349 565//349 567//349
f 568//350 567//350 569//350
f 570//351 569//351 571//351
f 572//352 571//352 573//352
f 574//353 573//353 575//353
f 576//354 575//354 577//354
f 578//355 577//355 579//355
f 580//356 579//356 581//356
f 582//357 581//357 583//357
f 584//358 583//358 585//358
f 586//359 585//359 587//359
f 588//360 587//360 589//360
f 590//361 589//361 591//361
f 592//25 591//25 593//25
f 594//362 593//362 595//362
f 596//363 595//363 597//363
f 598//364 597//364 599//364
f 600//365 599//365 601//365
f 602//366 601//366 603//366
f 604//367 603//367 605//367
f 606//368 605//368 607//368
f 608//369 607//369 609//369
f 610//370 609//370 611//370
f 612//371 611//371 613//371
f 614//372 613//372 615//372
f 616//373 615//373 617//373
f 618//374 617//374 619//374
f 549//375 619//375 550//375
f 549//375 618//375 619//375
f 549//375 620//375 618//375
f 549//320 548//320 620//320
f 620//376 548//376 519//376
f 522//377 620//377 519//377
f 522//378 523//378 620//378
f 620//379 523//379 621//379
f 618//374 621//374 616//374
f 617//374 618//374 616//374
f 117//380 120//380 559//380
f 559//381 120//381 622//381
f 623//382 622//382 624//382
f 623//383 559//383 622//383
f 623//384 625//384 559//384
f 559//385 625//385 561//385
f 561//386 625//386 626//386
f 563//387 626//387 627//387
f 565//388 627//388 628//388
f 567//389 628//389 629//389
f 569//390 629//390 630//390
f 571//391 630//391 240//391
f 573//392 240//392 263//392
f 631//393 573//393 263//393
f 631//394 575//394 573//394
f 631//395 632//395 575//395
f 575//396 632//396 577//396
f 577//397 632//397 633//397
f 579//398 633//398 634//398
f 581//399 634//399 635//399
f 583//400 635//400 636//400
f 585//401 636//401 637//401
f 587//402 637//402 638//402
f 589//403 638//403 639//403
f 591//404 639//404 640//404
f 593//405 640//405 641//405
f 595//406 641//406 642//406
f 597//407 642//407 643//407
f 599//408 643//408 644//408
f 601//409 644//409 645//409
f 603//410 645//410 646//410
f 605//411 646//411 647//411
f 607//412 647//412 648//412
f 609//413 648//413 649//413
f 611//414 649//414 650//414
f 613//415 650//415 651//415
f 615//416 651//416 652//416
f 617//417 652//417 653//417
f 619//418 653//418 654//418
f 550//419 654//419 552//419
f 550//420 619//420 654//420
f 120//421 121//421 622//421
f 622//422 121//422 124//422
f 127//423 622//423 124//423
f 127//424 655//424 622//424
f 127//425 130//425 655//425
f 655//426 130//426 133//426
f 656//427 133//427 136//427
f 139//428 656//428 136//428
f 139//429 657//429 656//429
f 139//430 142//430 657//430
f 657//431 142//431 658//431
f 659//432 658//432 555//432
f 659//433 657//433 658//433
f 659//434 660//434 657//434
f 657//435 660//435 656//435
f 656//436 660//436 661//436
f 655//437 661//437 624//437
f 622//438 655//438 624//438
f 655//439 133//439 656//439
f 661//440 655//440 656//440
f 142//441 145//441 658//441
f 658//442 145//442 146//442
f 555//443 658//443 146//443
f 577//444 633//444 579//444
f 579//445 634//445 581//445
f 581//446 635//446 583//446
f 583//447 636//447 585//447
f 585//448 637//448 587//448
f 587//449 638//449 589//449
f 589//450 639//450 591//450
f 591//451 640//451 593//451
f 593//452 641//452 595//452
f 595//453 642//453 597//453
f 597//454 643//454 599//454
f 599//455 644//455 601//455
f 601//456 645//456 603//456
f 603//457 646//457 605//457
f 605//458 647//458 607//458
f 607//459 648//459 609//459
f 609//460 649//460 611//460
f 611//461 650//461 613//461
f 613//462 651//462 615//462
f 615//463 652//463 617//463
f 617//464 653//464 619//464
f 561//465 626//465 563//465
f 563//466 627//466 565//466
f 565//467 628//467 567//467
f 567//468 629//468 569//468
f 630//469 263//469 240//469
f 571//470 240//470 573//470
f 662//471 663//471 320//471
f 662//472 664//472 663//472
f 662//473 665//473 664//473
f 664//474 665//474 666//474
f 612//371 666//371 610//371
f 611//371 612//371 610//371
f 665//475 667//475 666//475
f 666//476 667//476 668//476
f 610//370 668//370 608//370
f 609//370 610//370 608//370
f 667//477 669//477 668//477
f 668//478 669//478 670//478
f 608//369 670//369 606//369
f 607//369 608//369 606//369
f 669//479 671//479 670//479
f 670//480 671//480 672//480
f 606//368 672//368 604//368
f 605//368 606//368 604//368
f 671//481 673//481 672//481
f 672//482 673//482 674//482
f 604//367 674//367 602//367
f 603//367 604//367 602//367
f 673//483 65//483 674//483
f 674//484 65//484 503//484
f 501//485 674//485 503//485
f 501//486 500//486 674//486
f 674//487 500//487 675//487
f 602//366 675//366 600//366
f 601//366 602//366 600//366
f 65//488 62//488 503//488
f 500//489 497//489 675//489
f 675//490 497//490 496//490
f 493//491 675//491 496//491
f 493//492 676//492 675//492
f 493//493 492//493 676//493
f 676//494 492//494 489//494
f 488//495 676//495 489//495
f 488//496 677//496 676//496
f 488//497 485//497 677//497
f 677//498 485//498 678//498
f 596//363 678//363 594//363
f 595//363 596//363 594//363
f 485//499 484//499 678//499
f 678//500 484//500 482//500
f 679//501 482//501 480//501
f 680//502 480//502 505//502
f 506//503 680//503 505//503
f 506//503 681//503 680//503
f 506//504 479//504 681//504
f 681//505 479//505 682//505
f 588//360 682//360 586//360
f 587//360 588//360 586//360
f 678//506 482//506 679//506
f 594//362 679//362 592//362
f 593//362 594//362 592//362
f 679//507 480//507 680//507
f 592//25 680//25 590//25
f 591//25 592//25 590//25
f 479//508 481//508 682//508
f 682//509 481//509 683//509
f 586//359 683//359 584//359
f 585//359 586//359 584//359
f 481//510 483//510 683//510
f 683//511 483//511 486//511
f 684//512 486//512 487//512
f 685//513 487//513 490//513
f 491//514 685//514 490//514
f 491//515 494//515 685//515
f 685//516 494//516 686//516
f 580//356 686//356 578//356
f 579//356 580//356 578//356
f 683//517 486//517 684//517
f 584//358 684//358 582//358
f 583//358 584//358 582//358
f 684//518 487//518 685//518
f 582//357 685//357 580//357
f 581//357 582//357 580//357
f 494//519 495//519 686//519
f 686//520 495//520 498//520
f 499//521 686//521 498//521
f 499//522 687//522 686//522
f 499//523 59//523 687//523
f 499//524 502//524 59//524
f 59//525 502//525 504//525
f 57//526 59//526 504//526
f 59//527 688//527 687//527
f 687//528 688//528 689//528
f 576//354 689//354 574//354
f 575//354 576//354 574//354
f 688//529 690//529 689//529
f 689//530 690//530 691//530
f 574//353 691//353 572//353
f 573//353 574//353 572//353
f 690//531 692//531 691//531
f 691//532 692//532 693//532
f 572//352 693//352 570//352
f 571//352 572//352 570//352
f 692//533 694//533 693//533
f 693//534 694//534 695//534
f 570//351 695//351 568//351
f 569//351 570//351 568//351
f 694//535 696//535 695//535
f 695//536 696//536 697//536
f 568//350 697//350 566//350
f 567//350 568//350 566//350
f 696//537 698//537 697//537
f 697//538 698//538 699//538
f 566//349 699//349 564//349
f 565//349 566//349 564//349
f 698//539 321//539 699//539
f 699//540 321//540 700//540
f 564//348 700//348 562//348
f 563//348 564//348 562//348
f 296//541 531//541 321//541
f 321//542 531//542 529//542
f 700//543 529//543 528//543
f 525//544 700//544 528//544
f 525//545 524//545 700//545
f 700//546 524//546 701//546
f 562//347 701//347 560//347
f 561//347 562//347 560//347
f 321//547 529//547 700//547
f 524//548 521//548 701//548
f 701//549 521//549 520//549
f 544//550 520//550 517//550
f 516//551 544//551 517//551
f 701//552 520//552 544//552
f 560//307 544//307 542//307
f 559//307 560//307 542//307
f 512//553 510//553 545//553
f 545//554 510//554 558//554
f 540//340 558//340 539//340
f 540//312 545//312 558//312
f 514//555 515//555 548//555
f 548//556 515//556 518//556
f 519//557 548//557 518//557
f 523//558 526//558 621//558
f 621//559 526//559 527//559
f 530//560 621//560 527//560
f 530//561 320//561 621//561
f 530//562 532//562 320//562
f 320//563 532//563 306//563
f 539//332 557//332 538//332
f 569//564 630//564 571//564
f 535//565 549//565 161//565
f 621//375 618//375 620//375
f 546//566 548//566 535//566
f 536//567 546//567 535//567
f 543//568 545//568 541//568
f 542//568 543//568 541//568
f 695//352 570//352 693//352
f 693//353 572//353 691//353
f 697//351 568//351 695//351
f 689//354 691//354 574//354
f 687//355 689//355 576//355
f 578//355 576//355 577//355
f 578//355 687//355 576//355
f 578//356 686//356 687//356
f 685//357 686//357 580//357
f 684//358 685//358 582//358
f 683//359 684//359 584//359
f 682//360 683//360 586//360
f 681//361 682//361 588//361
f 590//361 588//361 589//361
f 590//361 681//361 588//361
f 590//25 680//25 681//25
f 679//362 680//362 592//362
f 678//363 679//363 594//363
f 677//364 678//364 596//364
f 598//364 596//364 597//364
f 598//364 677//364 596//364
f 598//365 676//365 677//365
f 598//365 600//365 676//365
f 598//365 599//365 600//365
f 675//366 676//366 600//366
f 674//367 675//367 602//367
f 672//368 674//368 604//368
f 670//369 672//369 606//369
f 668//370 670//370 608//370
f 666//371 668//371 610//371
f 664//372 666//372 612//372
f 614//372 612//372 613//372
f 614//372 664//372 612//372
f 614//373 663//373 664//373
f 614//373 616//373 663//373
f 614//373 615//373 616//373
f 320//569 663//569 621//569
f 621//374 663//374 616//374
f 701//347 544//347 560//347
f 700//348 701//348 562//348
f 699//349 700//349 564//349
f 697//350 699//350 566//350
f 383//202 650//202 406//202
f 383//202 651//202 650//202
f 383//202 652//202 651//202
f 383//202 384//202 652//202
f 652//202 384//202 653//202
f 653//202 384//202 654//202
f 654//202 384//202 385//202
f 552//202 385//202 386//202
f 553//202 386//202 555//202
f 553//202 552//202 386//202
f 654//202 385//202 552//202
f 386//202 387//202 555//202
f 555//202 387//202 659//202
f 659//202 387//202 388//202
f 660//202 388//202 661//202
f 660//202 659//202 388//202
f 388//202 389//202 661//202
f 661//202 389//202 624//202
f 624//202 389//202 623//202
f 623//202 389//202 390//202
f 625//202 390//202 391//202
f 626//202 391//202 627//202
f 626//202 625//202 391//202
f 623//202 390//202 625//202
f 391//202 392//202 627//202
f 627//202 392//202 628//202
f 628//202 392//202 629//202
f 629//202 392//202 393//202
f 630//202 393//202 394//202
f 263//202 394//202 631//202
f 263//202 630//202 394//202
f 629//202 393//202 630//202
f 394//202 395//202 631//202
f 631//202 395//202 632//202
f 632//202 395//202 396//202
f 633//202 396//202 634//202
f 633//202 632//202 396//202
f 396//202 397//202 634//202
f 634//202 397//202 635//202
f 635//202 397//202 636//202
f 636//202 397//202 398//202
f 637//202 398//202 399//202
f 638//202 399//202 639//202
f 638//202 637//202 399//202
f 636//202 398//202 637//202
f 399//202 400//202 639//202
f 639//202 400//202 640//202
f 640//202 400//202 641//202
f 641//202 400//202 401//202
f 642//202 401//202 402//202
f 643//202 402//202 644//202
f 643//202 642//202 402//202
f 641//202 401//202 642//202
f 402//202 403//202 644//202
f 644//202 403//202 645//202
f 645//202 403//202 404//202
f 646//202 404//202 647//202
f 646//202 645//202 404//202
f 404//202 405//202 647//202
f 647//202 405//202 648//202
f 648//202 405//202 649//202
f 649//202 405//202 406//202
f 650//202 649//202 406//202
f 65//202 673//202 64//202
f 64//202 673//202 671//202
f 669//202 64//202 671//202
f 669//202 319//202 64//202
f 669//202 667//202 319//202
f 319//202 667//202 665//202
f 662//202 319//202 665//202
f 662//202 320//202 319//202
f 321//202 698//202 293//202
f 293//202 698//202 696//202
f 694//202 293//202 696//202
f 694//202 692//202 293//202
f 293//202 692//202 58//202
f 58//202 692//202 690//202
f 688//202 58//202 690//202
f 688//202 59//202 58//202
f 264//203 293//203 56//203
f 56//203 293//203 58//203
f 201//117 35//117 195//117
f 200//117 201//117 195//117
f 66//117 187//117 37//117
f 66//117 177//117 187//117
f 187//117 195//117 37//117
f 37//117 195//117 35//117
f 86//570 85//570 207//570
f 207//570 85//570 310//570
f 310//571 85//571 73//571
f 269//572 73//572 74//572
f 270//573 74//573 75//573
f 271//574 75//574 76//574
f 272//575 76//575 77//575
f 273//576 77//576 14//576
f 13//576 273//576 14//576
f 310//571 73//571 269//571
f 269//572 74//572 270//572
f 270//573 75//573 271//573
f 271//574 76//574 272//574
f 272//575 77//575 273//575
f 12//577 15//577 11//577
f 11//577 15//577 17//577
f 82//578 81//578 278//578
f 278//578 81//578 277//578
f 83//579 82//579 284//579
f 284//579 82//579 278//579
f 319//10 266//10 64//10
f 64//10 266//10 63//10
f 67//580 63//580 267//580
f 267//580 63//580 266//580
f 68//581 67//581 268//581
f 268//581 67//581 267//581
f 78//582 68//582 274//582
f 274//582 68//582 268//582
f 79//583 78//583 275//583
f 275//583 78//583 274//583
f 80//584 79//584 276//584
f 276//584 79//584 275//584
f 81//117 80//117 277//117
f 277//117 80//117 276//117
